<?xml version="1.0" standalone="no"?>
<!DOCTYPE svg PUBLIC "-//W3C//DTD SVG 1.1//EN" "http://www.w3.org/Graphics/SVG/1.1/DTD/svg11.dtd" >
<svg>
<metadata>
Created by FontForge 20090914 at Sun Mar  3 20:47:34 2013
 By www-data
 The digitally encoded machine readable software for producing the Typefaces licensed to you is copyrighted (c) 1988 Adobe Systems. All rights reserved. This software is the property of Adobe Systems Incorporated and its licensors, and may not be reproduced, used, displayed, modified, disclosed, or transferred without the express written approval of Adobe. The digitally encoded machine readable outline data for producing the Typefaces provided as part of your laser printer is copyrighted  (c) 1981 Linotype All Rights Reserved. This data is the property of  Linotype and may not be reproduced, used, displayed, modified,  disclosed or transferred without the express written approval of  Linotype. 
</metadata>
<defs>
<font id="Clarendon-Bold" horiz-adv-x="611" >
  <font-face 
    font-family="Clarendon"
    font-weight="700"
    font-stretch="normal"
    units-per-em="1000"
    panose-1="2 0 8 3 0 0 0 0 0 0"
    ascent="800"
    descent="-200"
    x-height="468"
    cap-height="663"
    bbox="-167 -225.003 1000 940"
    underline-thickness="80"
    underline-position="-106"
    unicode-range="U+0020-U+FFFD"
  />
<missing-glyph horiz-adv-x="305" 
 />
    <glyph glyph-name=".notdef" unicode="&#xfffd;" horiz-adv-x="305" 
 />
    <glyph glyph-name="space" unicode=" " horiz-adv-x="305" 
 />
    <glyph glyph-name="exclam" unicode="!" horiz-adv-x="333" 
d="M215 205h-97c0 43.333 -7.5 107 -22.5 191s-22.5 135.667 -22.5 155c0 88 32 132 96 132c60.667 0 91 -44 91 -132c0 -19.333 -7.5 -71 -22.5 -155s-22.5 -147.667 -22.5 -191zM170 153c22.667 0 42.334 -8.33301 59.001 -25s25 -36.334 25 -59.001
s-8.33301 -42.167 -25 -58.5s-36.334 -24.5 -59.001 -24.5s-42.167 8.16699 -58.5 24.5s-24.5 35.833 -24.5 58.5s8.16699 42.334 24.5 59.001s35.833 25 58.5 25z" />
    <glyph glyph-name="quotedbl" unicode="&#x22;" horiz-adv-x="333" 
d="M128 602l-20.002 -204c-0.666992 -6 -3.66699 -12.667 -9 -20s-12.666 -11 -21.999 -11s-16.666 3.66699 -21.999 11s-8.33301 14 -9 20l-20 204c-4 54 13 81 51 81s55 -27 51 -81zM306.998 602l-20.002 -204c-0.666992 -6 -3.66699 -12.667 -9 -20
s-12.666 -11 -21.999 -11s-16.666 3.66699 -21.999 11s-8.33301 14 -9 20l-20 204c-4 54 13 81 51 81s55 -27 51 -81z" />
    <glyph glyph-name="numbersign" unicode="#" 
d="M509 252l-4 -82h-75l-22 -170h-87l24 170h-79l-24 -170h-86l23 170h-73l4 82h81l15 100h-74l3 82h82l23 171h86l-23 -171h78l24 171h87l-24 -171h67l-4 -82h-74l-14 -100h66zM370 352h-78l-14 -100h79z" />
    <glyph glyph-name="dollar" unicode="$" 
d="M267 400v151c-56.667 0 -85 -26.667 -85 -80c0 -31.333 28.333 -55 85 -71zM347 212v-158c24 2 45.167 10 63.5 24s27.5 33.333 27.5 58c0 20 -7.83301 35.667 -23.5 47s-38.167 21 -67.5 29zM267 54l0.00195312 176.003c-44.667 9.33301 -79.667 18.166 -105 26.499
s-49.5 19.666 -72.5 33.999s-39.167 32.166 -48.5 53.499s-14 48 -14 80c0 43.333 12.167 80.333 36.5 111s54.166 52.5 89.499 65.5s73.333 19.5 114 19.5v87h80v-87c23.333 -1.33301 47 -4.83301 71 -10.5s47.833 -13.834 71.5 -24.501s43 -25.334 58 -44.001
s22.5 -39.667 22.5 -63c0 -26 -7.66699 -45.5 -23 -58.5s-36.333 -19.5 -63 -19.5c-21.333 0 -39.5 6.66699 -54.5 20s-22.5 31 -22.5 53c0 11.333 3.5 21.833 10.5 31.5s16.167 16.167 27.5 19.5c-26 18 -58.667 27 -98 27v-171c26 -6 49.167 -12.167 69.5 -18.5
s42.166 -15 65.499 -26s42.5 -23.167 57.5 -36.5s27.667 -30.166 38 -50.499s15.5 -42.833 15.5 -67.5c0 -35.333 -7.66699 -66 -23 -92s-35.833 -46 -61.5 -60s-51.667 -24.333 -78 -31s-54.166 -11 -83.499 -13v-110h-80v110c-31.333 0 -60.5 2.16699 -87.5 6.5
s-53.167 11.833 -78.5 22.5s-45.5 26.167 -60.5 46.5s-22.5 44.5 -22.5 72.5c0 24.667 9 44.667 27 60s39.333 23 64 23c22 0 41.333 -6.16699 58 -18.5s25 -28.5 25 -48.5c0 -35.333 -21.333 -55.666 -64 -60.999c21.333 -22.667 67.666 -34 138.999 -34z" />
    <glyph glyph-name="percent" unicode="%" horiz-adv-x="833" 
d="M183 -15l414 635h60l-417 -635h-57zM630 307c-20 0 -34.5 -9.33301 -43.5 -28s-13.5 -54 -13.5 -106s4.5 -87.167 13.5 -105.5s23.5 -27.5 43.5 -27.5s34.5 9.16699 43.5 27.5s13.5 53.5 13.5 105.5s-4.5 87.333 -13.5 106s-23.5 28 -43.5 28zM630 362
c57.333 0 99.333 -17.167 126 -51.5s40 -80.166 40 -137.499s-13.333 -103 -40 -137s-68.667 -51 -126 -51s-99.333 17 -126 51s-40 79.667 -40 137s13.333 103.166 40 137.499s68.667 51.5 126 51.5zM203 565c-20 0 -34.5 -9.33301 -43.5 -28s-13.5 -54 -13.5 -106
s4.5 -87.167 13.5 -105.5s23.5 -27.5 43.5 -27.5s34.5 9.16699 43.5 27.5s13.5 53.5 13.5 105.5s-4.5 87.333 -13.5 106s-23.5 28 -43.5 28zM203 620c57.333 0 99.333 -17.167 126 -51.5s40 -80.166 40 -137.499s-13.333 -103 -40 -137s-68.667 -51 -126 -51
s-99.333 17 -126 51s-40 79.667 -40 137s13.333 103.166 40 137.499s68.667 51.5 126 51.5z" />
    <glyph glyph-name="ampersand" unicode="&#x26;" horiz-adv-x="889" 
d="M253 309c-35.333 -22.667 -53 -57.665 -53 -104.998c0 -34.667 12.833 -64 38.5 -88s55.834 -36 90.501 -36c30 0 57 8.33301 81 25l-18.5 19l-17 18c-5 5.33301 -10.833 12.166 -17.5 20.499l-15.5 19c-3.66699 4.33301 -9 11.5 -16 21.5s-11.833 16.667 -14.5 20
s-7.83398 10.666 -15.501 21.999l-14 20.5c-1.66699 2.33301 -6.66699 9.83301 -15 22.5s-12.833 19.667 -13.5 21zM412 544.002c0 34 -17.999 51.002 -53.999 51.002c-14.667 0 -26.167 -5.33301 -34.5 -16s-12.5 -23.334 -12.5 -38.001c0 -8.66699 4.16699 -22 12.5 -40
s16.166 -31 23.499 -39c21.333 9.33301 37.5 20.166 48.5 32.499s16.5 28.833 16.5 49.5zM750.001 231.004l89.999 -0.00390625v-42c0 -139.333 -64 -209 -192 -209c-62 0 -118 18.333 -168 55c-53.333 -36.667 -117.333 -55 -192 -55c-86 0 -149.333 20.667 -190 62
s-61 94.333 -61 159c0 52 13.667 92.667 41 122s68.333 56.333 123 81c-21.333 30 -32 68.667 -32 116c0 46.667 16.5 85.5 49.5 116.5s73.5 46.5 121.5 46.5c52 0 93.667 -13.667 125 -41s47 -64 47 -110c0 -32.667 -10.667 -63.167 -32 -91.5s-47.333 -50.166 -78 -65.499
c8.66699 -11.333 21.5 -29.166 38.5 -53.499s32.667 -45.666 47 -63.999s28.833 -34.5 43.5 -48.5l20 24c23.333 28.667 35 51.334 35 68.001s-12.667 25 -38 25h-36v88h287v-88c-29.333 0 -50.166 -1.33301 -62.499 -4s-21.5 -8.66699 -27.5 -18l-115 -170
c24 -32.667 52.333 -49 85 -49c24 0 41.833 10 53.5 30s17.5 46.333 17.5 79v37z" />
    <glyph glyph-name="quotesingle" unicode="'" horiz-adv-x="222" 
d="M162 602l-20.002 -204c-0.666992 -6 -3.66699 -12.667 -9 -20s-12.666 -11 -21.999 -11s-16.666 3.66699 -21.999 11s-8.33301 14 -9 20l-20 204c-4 54 13 81 51 81s55 -27 51 -81z" />
    <glyph glyph-name="parenleft" unicode="(" horiz-adv-x="389" 
d="M363 683l-0.00195312 -82c-57.333 -8.66699 -98.666 -40 -123.999 -94s-38 -141 -38 -261c0 -116 13 -202 39 -258s68 -88.333 126 -97v-83c-75.333 0 -140 21.5 -194 64.5s-93.333 96.833 -118 161.5s-37 135 -37 211c0 56 7.33301 109.667 22 161
s35.834 97.833 63.501 139.5s64 75 109 100s95.5 37.5 151.5 37.5z" />
    <glyph glyph-name="parenright" unicode=")" horiz-adv-x="389" 
d="M26 -192l0.00195312 82c57.333 8.66699 98.666 40 123.999 94s38 141 38 261c0 116 -13 202 -39 258s-68 88.333 -126 97v83c75.333 0 140 -21.5 194 -64.5s93.333 -96.833 118 -161.5s37 -135 37 -211c0 -56 -7.33301 -109.667 -22 -161s-35.834 -97.833 -63.501 -139.5
s-64 -75 -109 -100s-95.5 -37.5 -151.5 -37.5z" />
    <glyph glyph-name="asterisk" unicode="*" horiz-adv-x="500" 
d="M251 683c14 0 25.3311 -4.00195 33.998 -12.002s13 -19 13 -33c0 -10.667 -7.16699 -32.167 -21.5 -64.5s-20.166 -56.833 -17.499 -73.5c21.333 14 41 32.5 59 55.5s29.667 36.5 35 40.5c8.66699 6.66699 19 10 31 10c12.667 0 23.5 -4.33301 32.5 -13
s13.5 -21.334 13.5 -38.001c0 -15.333 -6.83301 -27 -20.5 -35s-29.167 -12.5 -46.5 -13.5s-35.666 -3 -54.999 -6s-33 -7.5 -41 -13.5c4 -4 10 -7.66699 18 -11s15.167 -5.5 21.5 -6.5l28 -4.5c12.333 -2 21.166 -3.66699 26.499 -5
c15.333 -3.33301 26.833 -6.16602 34.5 -8.49902s15 -7 22 -14s10.5 -15.833 10.5 -26.5c0 -13.333 -3.5 -24.5 -10.5 -33.5s-17.167 -13.5 -30.5 -13.5c-12.667 0 -23.667 3.16699 -33 9.5s-16.833 13.833 -22.5 22.5s-15 20.334 -28 35.001s-27.833 28 -44.5 40
c-2.66699 -16.667 3.16602 -41.167 17.499 -73.5s21.5 -53.833 21.5 -64.5c0 -14 -4.33301 -25 -13 -33s-20 -12 -34 -12s-25.333 4 -34 12s-13 19 -13 33c0 10 7 31.333 21 64s19.333 57.334 16 74.001c-16.667 -12 -31.5 -25.333 -44.5 -40s-22.333 -26.334 -28 -35.001
s-13.167 -16.167 -22.5 -22.5s-20.333 -9.5 -33 -9.5c-13.333 0 -23.5 4.5 -30.5 13.5s-10.5 20.167 -10.5 33.5c0 10.667 3.5 19.5 10.5 26.5s14.333 11.667 22 14s19.167 5.16602 34.5 8.49902c5.33301 1.33301 14.166 3 26.499 5l28 4.5c6.33301 1 13.5 3.16699 21.5 6.5
s14 7 18 11c-8 6 -21.667 10.5 -41 13.5s-37.666 5 -54.999 6s-32.833 5.5 -46.5 13.5s-20.5 19.667 -20.5 35c0 16.667 4.83301 29.334 14.5 38.001s20.834 13 33.501 13c10.667 0 20.334 -3.33301 29.001 -10c5.33301 -4 17 -17.5 35 -40.5s37.667 -41.5 59 -55.5
c3.33301 16.667 -2 41.334 -16 74.001s-21 54 -21 64c0 14 4.33301 25 13 33s20 12 34 12z" />
    <glyph glyph-name="plus" unicode="+" horiz-adv-x="600" 
d="M244 289v179h111v-179h178v-111h-178v-178h-111v178h-178v111h178z" />
    <glyph glyph-name="comma" unicode="," horiz-adv-x="305" 
d="M71 -137l0.000976562 54.999c54 10 86.667 38.667 98 86c-24.667 -5.33301 -38.334 -8 -41.001 -8c-20 0 -36.667 6.16699 -50 18.5s-20 28.5 -20 48.5c0 26.667 7.5 48.334 22.5 65.001s35.5 25 61.5 25c32.667 0 58.167 -10 76.5 -30s27.5 -46.333 27.5 -79
c0 -47.333 -17 -87.833 -51 -121.5s-75.333 -53.5 -124 -59.5z" />
    <glyph glyph-name="hyphen" unicode="-" horiz-adv-x="333" 
d="M297 164h-262v140h262v-140z" />
    <glyph glyph-name="period" unicode="." horiz-adv-x="305" 
d="M152 153c22.667 0 42.334 -8.33301 59.001 -25s25 -36.334 25 -59.001s-8.33301 -42.167 -25 -58.5s-36.334 -24.5 -59.001 -24.5s-42.167 8.16699 -58.5 24.5s-24.5 35.833 -24.5 58.5s8.16699 42.334 24.5 59.001s35.833 25 58.5 25z" />
    <glyph glyph-name="slash" unicode="/" horiz-adv-x="278" 
d="M-34 -20l235 703h111l-235 -703h-111z" />
    <glyph glyph-name="zero" unicode="0" 
d="M305 620c97.333 0 168.5 -29 213.5 -87s67.5 -135 67.5 -231s-22.5 -172.833 -67.5 -230.5s-116.167 -86.5 -213.5 -86.5s-168.5 28.833 -213.5 86.5s-67.5 134.5 -67.5 230.5s22.5 173 67.5 231s116.167 87 213.5 87zM208 302c0 -88.667 6.83301 -150.334 20.5 -185.001
s39.167 -52 76.5 -52s62.833 17.333 76.5 52s20.5 96.334 20.5 185.001s-6.83301 150.5 -20.5 185.5s-39.167 52.5 -76.5 52.5s-62.833 -17.5 -76.5 -52.5s-20.5 -96.833 -20.5 -185.5z" />
    <glyph glyph-name="one" unicode="1" 
d="M269 605h130v-473c0 -32 14.667 -48 44 -48h62v-84h-389v84h66c29.333 0 44 16 44 48v309h-108v84h25c61.333 0 103.333 26.667 126 80z" />
    <glyph glyph-name="two" unicode="2" 
d="M115 0h-87.002v42c0 39.333 8.33301 74.166 25 104.499s37.334 54.166 62.001 71.499s51.667 34.5 81 51.5s56.333 32 81 45s45.334 29.667 62.001 50s25 43.166 25 68.499c0 34 -11.667 60.333 -35 79s-52.333 28 -87 28c-26.667 0 -52.167 -7.16699 -76.5 -21.5
s-39.5 -33.833 -45.5 -58.5c10.667 5.33301 23.667 8 39 8c18 0 33.5 -7.33301 46.5 -22s19.5 -31 19.5 -49c0 -21.333 -7 -40 -21 -56s-38.667 -24 -74 -24c-30 0 -54.5 9.66699 -73.5 29s-28.5 44.333 -28.5 75c0 45.333 14.167 83.666 42.5 114.999
s61.833 53.166 100.5 65.499s80 18.5 124 18.5c32.667 0 63.5 -3.66699 92.5 -11s55.833 -18.666 80.5 -33.999s44.167 -36.166 58.5 -62.499s21.5 -56.5 21.5 -90.5c0 -38 -8 -70.167 -24 -96.5s-36.333 -45.666 -61 -57.999s-52.834 -24 -84.501 -35
s-62.167 -20.167 -91.5 -27.5s-57.5 -18.666 -84.5 -33.999s-47.5 -33.666 -61.5 -54.999l2 -2c36 25.333 78.667 38 128 38c18.667 0 46.334 -3.66699 83.001 -11c40 -8 66.667 -12 80 -12c33.333 0 50 27 50 81h85v-49c0 -117.333 -58.333 -176 -175 -176
c-32.667 0 -73 9.33301 -121 28s-81.667 28 -101 28c-34 0 -53 -13.667 -57 -41z" />
    <glyph glyph-name="three" unicode="3" 
d="M243 277l-0.000976562 79.9961c37.333 0 66.5 6 87.5 18s31.5 35 31.5 69c0 32.667 -11.333 56.834 -34 72.501s-51.334 23.5 -86.001 23.5c-44 0 -78 -12.667 -102 -38c55.333 0 83 -22.333 83 -67c0 -22.667 -9 -40.167 -27 -52.5s-39 -18.5 -63 -18.5
c-26 0 -47.333 8.33301 -64 25s-25 38.334 -25 65.001c0 30 7.5 56.333 22.5 79s35 40 60 52s50.833 20.833 77.5 26.5s54 8.5 82 8.5c28.667 0 56.834 -2.33301 84.501 -7s55.334 -12.5 83.001 -23.5s50 -27.667 67 -50s25.5 -48.833 25.5 -79.5
c0 -71.333 -44.333 -115.333 -133 -132v-2c49.333 -12.667 86.833 -30.167 112.5 -52.5s38.5 -56.833 38.5 -103.5c0 -36 -6.83301 -66.5 -20.5 -91.5s-33.5 -44.167 -59.5 -57.5s-54.333 -22.666 -85 -27.999s-66 -8 -106 -8c-36 0 -68 2.16699 -96 6.5s-55.5 12 -82.5 23
s-47.833 28 -62.5 51s-22 51.167 -22 84.5c0 32.667 8.66699 57.834 26 75.501s42 26.5 74 26.5c23.333 0 43.166 -7.33301 59.499 -22s24.5 -33.667 24.5 -57s-7.66699 -41 -23 -53s-35.333 -18 -60 -18c8 -10 22.833 -18.667 44.5 -26s39.834 -11 54.501 -11
c100 0 150 37 150 111c0 40.667 -11.833 67.667 -35.5 81s-57.5 20 -101.5 20z" />
    <glyph glyph-name="four" unicode="4" 
d="M126 267h182v192zM12 183v95l313 327h156v-338h98v-84h-98v-51c0 -32 14.667 -48 44 -48h54v-84h-381v84h66c29.333 0 44 16 44 48v51h-296z" />
    <glyph glyph-name="five" unicode="5" 
d="M72 306l23.002 314.001c63.333 -10 133 -15 209 -15c27.333 0 68.333 2.5 123 7.5s83 7.5 85 7.5c12.667 0 19 -6 19 -18c0 -34.667 -27.333 -63.834 -82 -87.501s-115.667 -35.5 -183 -35.5c-36.667 0 -67.334 4.66699 -92.001 14l-3 -91c35.333 22 79 33 131 33
c73.333 0 134.166 -19.167 182.499 -57.5s72.5 -93.166 72.5 -164.499c0 -74 -26.333 -130.5 -79 -169.5s-117 -58.5 -193 -58.5c-30 0 -58.833 2.83301 -86.5 8.5s-54.167 14.5 -79.5 26.5s-45.666 29.667 -60.999 53s-23 51 -23 83c0 27.333 9 50.333 27 69
s40.667 28 68 28c26 0 47.333 -7 64 -21s25 -33.667 25 -59c0 -21.333 -7.33301 -38 -22 -50s-33.334 -18.667 -56.001 -20c24 -25.333 53.667 -38 89 -38c95.333 0 143 50.667 143 152c0 39.333 -9.33301 70.666 -28 93.999s-47.667 35 -87 35c-38 0 -68 -13.333 -90 -40
h-96z" />
    <glyph glyph-name="six" unicode="6" 
d="M311 290c-54.667 0 -82 -37.667 -82 -113c0 -74.667 27.333 -112 82 -112s82 37.333 82 112c0 75.333 -27.333 113 -82 113zM218 380l-0.00195312 -55.002c26.667 18 50.334 30 71.001 36s48 9 82 9c58.667 0 107.667 -16.333 147 -49s59 -77.334 59 -134.001
c0 -45.333 -12.5 -83.666 -37.5 -114.999s-56.167 -53.666 -93.5 -66.999s-78.333 -20 -123 -20c-96 0 -168.167 25.5 -216.5 76.5s-72.5 122.5 -72.5 214.5c0 106.667 25.833 190.667 77.5 252s130.167 92 235.5 92c47.333 0 93.333 -11.333 138 -34s67 -53.667 67 -93
c0 -58 -33 -87 -99 -87c-21.333 0 -39.666 6.33301 -54.999 19s-23 28.334 -23 47.001c0 26 13 45.667 39 59c-15.333 10 -32.333 15 -51 15c-48.667 0 -85 -15.333 -109 -46s-36 -70.667 -36 -120z" />
    <glyph glyph-name="seven" unicode="7" 
d="M134 605l0.00195312 -67.999h6c18.667 25.333 38.834 43.166 60.501 53.499s49.5 15.5 83.5 15.5c26.667 0 59.667 -6.33301 99 -19s67 -19 83 -19c28.667 0 43 12.333 43 37h77v-18c0 -30 -7.16699 -60.833 -21.5 -92.5s-31.833 -62.334 -52.5 -92.001
s-41.334 -61.167 -62.001 -94.5s-38.167 -72.833 -52.5 -118.5s-21.5 -94.167 -21.5 -145.5v-44h-184v25c0 63.333 8.5 117.333 25.5 162s36.167 77.834 57.5 99.501l88.5 86c37.667 35.667 68.5 69.5 92.5 101.5l-2 2c-27.333 -16 -63.333 -24 -108 -24
c-14.667 0 -37.834 2.66699 -69.501 8s-53.167 8 -64.5 8c-22.667 0 -41.334 -10 -56.001 -30s-22 -47.667 -22 -83v-29h-85v279h85z" />
    <glyph glyph-name="eight" unicode="8" 
d="M337 216l-115.001 42.001c-19.333 -6.66699 -36.333 -19.334 -51 -38.001s-22 -36.334 -22 -53.001c0 -39.333 14.833 -67.166 44.5 -83.499s66.167 -24.5 109.5 -24.5c32.667 0 61.334 6.5 86.001 19.5s37 33.833 37 62.5c0 15.333 -6.16699 28.5 -18.5 39.5
s-35.833 22.833 -70.5 35.5zM365.999 388.001l25.999 15.999c24.667 14.667 37 36.334 37 65.001c0 28 -11.667 47.833 -35 59.5s-50.666 17.5 -81.999 17.5c-70.667 0 -106 -22.667 -106 -68c0 -23.333 12.333 -39 37 -47zM311.998 620
c21.333 0 42.166 -1.33203 62.499 -3.99902s41.333 -7.5 63 -14.5s40.5 -16 56.5 -27s29.167 -25.5 39.5 -43.5s15.5 -38.667 15.5 -62c0 -30 -9.16699 -53.833 -27.5 -71.5s-43.5 -31.834 -75.5 -42.501c90 -35.333 135 -93.333 135 -174
c0 -36.667 -7.66699 -68.167 -23 -94.5s-36.666 -46.666 -63.999 -60.999s-56.833 -24.666 -88.5 -30.999s-66.834 -9.5 -105.501 -9.5c-32 0 -61.833 2.16699 -89.5 6.5s-56.167 11.833 -85.5 22.5s-52.666 27.667 -69.999 51s-26 51.666 -26 84.999
c0 72 38.667 121.667 116 149c-27.333 13.333 -49.833 31.166 -67.5 53.499s-26.5 47.5 -26.5 75.5c0 128 87 192 261 192z" />
    <glyph glyph-name="nine" unicode="9" 
d="M299 540c-54.667 0 -82 -37.667 -82 -113c0 -74.667 27.333 -112 82 -112s82 37.333 82 112c0 75.333 -27.333 113 -82 113zM393 246l0.00292969 34.002c-26.667 -18 -50.334 -30 -71.001 -36s-48 -9 -82 -9c-62 0 -112 15.833 -150 47.5s-57 76.834 -57 135.501
c0 45.333 12.667 83.666 38 114.999s56.666 53.666 93.999 66.999s78.333 20 123 20c94.667 0 166.5 -27.667 215.5 -83s73.5 -124.666 73.5 -207.999c0 -105.333 -26.5 -189 -79.5 -251s-130.167 -93 -231.5 -93h-1c-22 0 -44.167 2 -66.5 6s-44.333 10.5 -66 19.5
s-39.334 22.333 -53.001 40s-20.5 38.167 -20.5 61.5c0 29.333 8.16699 51.166 24.5 65.499s37.166 21.5 62.499 21.5c26.667 0 48.334 -6.33301 65.001 -19s25 -28.334 25 -47.001c0 -26 -13 -45.667 -39 -59c15.333 -10 32.333 -15 51 -15c96.667 0 145 62.333 145 187z
" />
    <glyph glyph-name="colon" unicode=":" horiz-adv-x="305" 
d="M152 153c22.667 0 42.334 -8.33301 59.001 -25s25 -36.334 25 -59.001s-8.33301 -42.167 -25 -58.5s-36.334 -24.5 -59.001 -24.5s-42.167 8.16699 -58.5 24.5s-24.5 35.833 -24.5 58.5s8.16699 42.334 24.5 59.001s35.833 25 58.5 25zM152 443
c22.667 0 42.334 -8.33301 59.001 -25s25 -36.334 25 -59.001s-8.33301 -42.167 -25 -58.5s-36.334 -24.5 -59.001 -24.5s-42.167 8.16699 -58.5 24.5s-24.5 35.833 -24.5 58.5s8.16699 42.334 24.5 59.001s35.833 25 58.5 25z" />
    <glyph glyph-name="semicolon" unicode=";" horiz-adv-x="305" 
d="M71 -137l0.000976562 54.999c54 10 86.667 38.667 98 86c-24.667 -5.33301 -38.334 -8 -41.001 -8c-20 0 -36.667 6.16699 -50 18.5s-20 28.5 -20 48.5c0 26.667 7.5 48.334 22.5 65.001s35.5 25 61.5 25c32.667 0 58.167 -10 76.5 -30s27.5 -46.333 27.5 -79
c0 -47.333 -17 -87.833 -51 -121.5s-75.333 -53.5 -124 -59.5zM155.001 442.999c22.667 0 42.334 -8.33301 59.001 -25s25 -36.334 25 -59.001s-8.33301 -42.167 -25 -58.5s-36.334 -24.5 -59.001 -24.5s-42.167 8.16699 -58.5 24.5s-24.5 35.833 -24.5 58.5
s8.16699 42.334 24.5 59.001s35.833 25 58.5 25z" />
    <glyph glyph-name="less" unicode="&#x3c;" horiz-adv-x="600" 
d="M554 88v-115l-508 214v94l508 214v-115l-352 -146z" />
    <glyph glyph-name="equal" unicode="=" horiz-adv-x="600" 
d="M533 388v-111h-467v111h467zM533 191v-111h-467v111h467z" />
    <glyph glyph-name="greater" unicode="&#x3e;" horiz-adv-x="600" 
d="M46 88l352 146l-352 146v115l508 -214v-94l-508 -214v115z" />
    <glyph glyph-name="question" unicode="?" horiz-adv-x="556" 
d="M301 207l-99.0029 -0.00390625c1.33301 32.667 4.33301 56.334 9 71.001c6.66699 20.667 20.334 43.167 41.001 67.5s38.667 48.833 54 73.5s23 51.334 23 80.001c0 28 -10.667 49.833 -32 65.5s-46.333 23.5 -75 23.5c-28 0 -51.833 -7.16699 -71.5 -21.5
s-31.834 -34.833 -36.501 -61.5c14.667 7.33301 29.334 11 44.001 11c20.667 0 37.5 -7.16699 50.5 -21.5s19.5 -31.833 19.5 -52.5c0 -26 -8 -45.833 -24 -59.5s-37 -20.5 -63 -20.5c-33.333 0 -58.833 11.667 -76.5 35s-26.5 52.333 -26.5 87
c0 60 22.833 108.167 68.5 144.5s99.167 54.5 160.5 54.5c26 0 52.333 -3.5 79 -10.5s52.5 -17.5 77.5 -31.5s45.333 -33.333 61 -58s23.5 -53 23.5 -85c0 -58.667 -32.667 -112 -98 -160c-5.33301 -4 -15.166 -10.667 -29.499 -20s-24.666 -16.666 -30.999 -21.999
s-13.833 -12.666 -22.5 -21.999s-15 -19.333 -19 -30s-6.33301 -23 -7 -37zM250.997 152.996c22.667 0 42.334 -8.33301 59.001 -25s25 -36.334 25 -59.001s-8.33301 -42.167 -25 -58.5s-36.334 -24.5 -59.001 -24.5s-42.167 8.16699 -58.5 24.5s-24.5 35.833 -24.5 58.5
s8.16699 42.334 24.5 59.001s35.833 25 58.5 25z" />
    <glyph glyph-name="at" unicode="@" horiz-adv-x="800" 
d="M500 390c0 22 -2.83398 38.332 -8.50098 48.999s-15.5 16 -29.5 16c-24 0 -48.5 -16.667 -73.5 -50s-37.5 -72 -37.5 -116c0 -24.667 4.16699 -45 12.5 -61s17.833 -24 28.5 -24c26 0 48.833 15.333 68.5 46s32.834 77.334 39.501 140.001zM523.999 468.999
l9.99316 32.998h78l-59 -240c-1.33301 -4.66699 -2 -12.334 -2 -23.001c0 -13.333 2.5 -24.833 7.5 -34.5s12.167 -14.5 21.5 -14.5c20.667 0 41.334 21.5 62.001 64.5s31 85.5 31 127.5c0 58.667 -23.667 110.5 -71 155.5s-108.666 67.5 -183.999 67.5
c-27.333 0 -54.833 -5 -82.5 -15s-54.167 -25 -79.5 -45s-45.833 -47.833 -61.5 -83.5s-23.5 -76.167 -23.5 -121.5c0 -85.333 26 -153.666 78 -204.999s111.667 -77 179 -77c74.667 0 142 16 202 48l10 -62c-73.333 -42.667 -143.666 -64 -210.999 -64
c-64 0 -121.167 10.333 -171.5 31s-90.5 48.334 -120.5 83.001s-52.667 72.5 -68 113.5s-23 83.833 -23 128.5c0 98 36.5 180.333 109.5 247s160.5 100 262.5 100c94.667 0 174.167 -28.5 238.5 -85.5s96.5 -128.5 96.5 -214.5c0 -58 -17.5 -113 -52.5 -165
s-80.5 -78 -136.5 -78c-29.333 0 -52.166 9.16699 -68.499 27.5s-24.166 33.833 -23.499 46.5h-2c-4.66699 -12 -18.667 -27.167 -42 -45.5s-48.333 -27.5 -75 -27.5c-24.667 0 -47.167 10 -67.5 30s-30.5 51.333 -30.5 94c0 24 4.16699 50 12.5 78s20.333 55.333 36 82
s36.834 48.834 63.501 66.501s56.334 26.5 89.001 26.5c6.66699 0 12.667 -0.333008 18 -1s10.166 -2.16699 14.499 -4.5s7.83301 -4.33301 10.5 -6s5.33398 -4.5 8.00098 -8.5s4.66699 -6.83301 6 -8.5s3.33301 -5.16699 6 -10.5z" />
    <glyph glyph-name="A" unicode="A" horiz-adv-x="778" 
d="M282 663h200.002l167 -500c10 -30 19.667 -50 29 -60s22.666 -15 39.999 -15h34v-88h-365v88h30c36.667 0 55 5 55 15c0 11.333 -1.66699 23.333 -5 36l-21 72h-204l-12 -40c-10 -32 -15 -53.333 -15 -64c0 -12.667 20.667 -19 62 -19h29v-88h-294v88h34
c17.333 0 30.666 5 39.999 15s19 30 29 60zM342.002 514l-71 -215h145l-72 215h-2z" />
    <glyph glyph-name="B" unicode="B" horiz-adv-x="722" 
d="M109 128l-0.00195312 407.001c0 26.667 -13 40 -39 40h-57v88h431c69.333 0 122 -14.167 158 -42.5s54 -65.833 54 -112.5c0 -42 -13 -76.167 -39 -102.5s-60.667 -44.5 -104 -54.5v-2c24 -7.33301 41.333 -12.833 52 -16.5s25.667 -10.334 45 -20.001
s33.333 -19.667 42 -30s16.834 -24.5 24.501 -42.5s11.5 -38.667 11.5 -62c0 -64 -20.667 -109.667 -62 -137s-110.666 -41 -207.999 -41h-404v88h56c26 0 39 13.333 39 40zM296.998 300.001v-212h67c40 0 71.167 7.66699 93.5 23s33.5 43 33.5 83s-11.167 67.667 -33.5 83
s-53.5 23 -93.5 23h-67zM296.998 575.001v-187h55c77.333 0 116 31.333 116 94c0 34 -10 58 -30 72s-48.667 21 -86 21h-55z" />
    <glyph glyph-name="C" unicode="C" horiz-adv-x="722" 
d="M566 616l19.999 56.001h90v-272h-93c0 54.667 -14.667 100 -44 136s-71 54 -125 54c-114 0 -171 -86 -171 -258c0 -85.333 13.333 -149.833 40 -193.5s73 -65.5 139 -65.5c50 0 89.333 17.667 118 53s43 77.666 43 126.999h93
c-1.33301 -90.667 -27.666 -158.834 -78.999 -204.501s-124 -68.5 -218 -68.5c-106.667 0 -192.167 30.167 -256.5 90.5s-96.5 147.5 -96.5 261.5c0 104.667 32 189.334 96 254.001s145.333 97 244 97c28.667 0 64.167 -6.33301 106.5 -19s73.5 -28.667 93.5 -48z" />
    <glyph glyph-name="D" unicode="D" horiz-adv-x="778" 
d="M110 128v407c0 26.667 -13 40 -39 40h-60v88h363c118 0 209.833 -27.5 275.5 -82.5s98.5 -139.833 98.5 -254.5c0 -110.667 -32.833 -192.667 -98.5 -246s-159.5 -80 -281.5 -80h-356v88h59c26 0 39 13.333 39 40zM298 575v-486.999h46
c69.333 0 118.666 16.833 147.999 50.5s44 98.167 44 193.5s-14.667 159.666 -44 192.999s-78.666 50 -147.999 50h-46z" />
    <glyph glyph-name="E" unicode="E" horiz-adv-x="722" 
d="M118 128v406.999c0 26.667 -13 40 -39 40h-62v88h665v-254h-93c0 68.667 -13.5 113.5 -40.5 134.5s-74.833 31.5 -143.5 31.5h-99v-191h31c28.667 0 49 6.33301 61 19s18 34.667 18 66v22h83v-302h-83v24c0 21.333 -4.16699 40.5 -12.5 57.5s-20.833 25.5 -37.5 25.5h-60
v-208h122c28.667 0 52 2 70 6s34.5 12.333 49.5 25s25.667 31.334 32 56.001s9.5 56.667 9.5 96h93v-271h-664v88h61c26 0 39 13.333 39 40z" />
    <glyph glyph-name="F" unicode="F" horiz-adv-x="722" 
d="M410 0h-389v88h61c26 0 39 13.333 39 40v407c0 26.667 -13 40 -39 40h-62v88h665v-254h-93c0 68.667 -13.5 113.5 -40.5 134.5s-74.833 31.5 -143.5 31.5h-99v-191h31c52.667 0 79 22.667 79 68v39h83v-302h-83v39c0 45.333 -26.333 68 -79 68h-31v-168
c0 -26.667 13 -40 39 -40h62v-88z" />
    <glyph glyph-name="G" unicode="G" horiz-adv-x="778" 
d="M771 350l0.000976562 -87.999h-46c-26 0 -39 -13.333 -39 -40v-230h-87l-22 49c-52.667 -40.667 -118.334 -61 -197.001 -61c-106.667 0 -192.334 29.667 -257.001 89s-97 143.666 -97 252.999c0 112 32.167 200.167 96.5 264.5s150.166 96.5 257.499 96.5
c73.333 0 133.333 -22.333 180 -67l20 56h90v-272h-93c-1.33301 52 -16.666 96.667 -45.999 134s-68.333 56 -117 56c-114 0 -171 -86.333 -171 -259c0 -86.667 14 -151 42 -193s71 -63 129 -63c22.667 0 42.334 5 59.001 15s25 25.667 25 47v85c0 26.667 -13 40 -39 40h-52
v88h364z" />
    <glyph glyph-name="H" unicode="H" horiz-adv-x="833" 
d="M306 388l220 -0.000976562v157c0 20 -13 30 -39 30h-42v88h370v-88h-62c-26 0 -39 -13.333 -39 -40v-410c0 -24.667 13 -37 39 -37h61v-88h-368v88h41c13.333 0 23.166 2.33301 29.499 7s9.5 13.334 9.5 26.001v179h-220v-177c0 -23.333 13 -35 39 -35h41v-88h-368v88h61
c26 0 39 13.333 39 40v420c0 18 -13 27 -39 27h-62v88h370v-88h-42c-13.333 0 -23.166 -3.16699 -29.499 -9.5s-9.5 -17.5 -9.5 -33.5v-144z" />
    <glyph glyph-name="I" unicode="I" horiz-adv-x="444" 
d="M417 663v-88h-62c-14 0 -24 -2.5 -30 -7.5s-9 -15.833 -9 -32.5v-407c0 -26.667 13 -40 39 -40h61v-88h-388v88h61c26 0 39 13.333 39 40v421c0 17.333 -13 26 -39 26h-62v88h390z" />
    <glyph glyph-name="J" unicode="J" 
d="M197 663h389.999v-88h-62c-26 0 -39 -8.33301 -39 -25v-342c0 -152 -77.667 -228 -233 -228c-73.333 0 -133.666 15.333 -180.999 46s-71 76.667 -71 138c0 35.333 9.33301 65 28 89s45 36 79 36c28 0 51.333 -7.83301 70 -23.5s28 -37.167 28 -64.5
c0 -26.667 -7.5 -47 -22.5 -61s-32.5 -21 -52.5 -21c-18 0 -31.667 3.66699 -41 11h-2c13.333 -38 48.333 -57 105 -57c70 0 105 45 105 135v339c0 18.667 -13 28 -39 28h-62v88z" />
    <glyph glyph-name="K" unicode="K" horiz-adv-x="833" 
d="M440 663h351.999v-88c-33.333 0 -57.5 -1.5 -72.5 -4.5s-28.5 -9.83301 -40.5 -20.5l-148 -130l168 -274c14 -23.333 26.667 -38.833 38 -46.5s24 -11.5 38 -11.5h35v-88h-372v88h36c26 0 39 3.66699 39 11c0 8 -6 21.333 -18 40l-99 161l-103 -87v-85
c0 -26.667 13 -40 39 -40h51v-88h-368v88h51c26 0 39 13.333 39 40v407c0 26.667 -13 40 -39 40h-52v88h370v-88h-52c-26 0 -39 -13.333 -39 -40v-188l122 106l33 28l32 27.5l24 21c8.66699 7.66699 14.834 13.5 18.501 17.5s5.5 7 5.5 9c0 12.667 -16.333 19 -49 19h-39v88
z" />
    <glyph glyph-name="L" unicode="L" horiz-adv-x="667" 
d="M642 0h-629v88h61c26 0 39 13.333 39 40v407c0 26.667 -13 40 -39 40h-62v88h390v-88h-62c-26 0 -39 -13.333 -39 -40v-447h109c55.333 0 92.333 15.5 111 46.5s28 77.167 28 138.5h93v-273z" />
    <glyph glyph-name="M" unicode="M" horiz-adv-x="1000" 
d="M19 663h362l115 -407h2l118 407h356v-88h-55c-26 0 -39 -13.333 -39 -40v-407c0 -26.667 13 -40 39 -40h55v-88h-363v88h42c26 0 39 13.333 39 40v422h-2l-157 -550h-146l-156 560h-2v-432c0 -26.667 13 -40 39 -40h42v-88h-289v88h60c26 0 39 13.333 39 40v407
c0 26.667 -13 40 -39 40h-60v88z" />
    <glyph glyph-name="N" unicode="N" horiz-adv-x="833" 
d="M343 663l259 -457h2v329c0 26.667 -13 40 -39 40h-61v88h308v-88h-60c-26 0 -39 -13.333 -39 -40v-535h-202l-278 493h-2v-365c0 -26.667 13 -40 39 -40h61v-88h-309v88h61c26 0 39 13.333 39 40v407c0 26.667 -13 40 -39 40h-62v88h322z" />
    <glyph glyph-name="O" unicode="O" horiz-adv-x="778" 
d="M389 590c-50 0 -86.833 -21.167 -110.5 -63.5s-35.5 -107.5 -35.5 -195.5s11.833 -153 35.5 -195s60.5 -63 110.5 -63s86.833 21 110.5 63s35.5 107 35.5 195s-11.833 153.167 -35.5 195.5s-60.5 63.5 -110.5 63.5zM389 683c110.667 0 198.834 -31.667 264.501 -95
s98.5 -149 98.5 -257s-32.833 -193.5 -98.5 -256.5s-153.834 -94.5 -264.501 -94.5s-198.834 31.5 -264.501 94.5s-98.5 148.5 -98.5 256.5s32.833 193.667 98.5 257s153.834 95 264.501 95z" />
    <glyph glyph-name="P" unicode="P" horiz-adv-x="722" 
d="M118 128l0.000976562 407.001c0 26.667 -13 40 -39 40h-62v88h419c85.333 0 150.166 -14.833 194.499 -44.5s66.5 -77.5 66.5 -143.5c0 -66.667 -23.167 -114.834 -69.5 -144.501s-116.833 -44.5 -211.5 -44.5h-110v-158c0 -26.667 13 -40 39 -40h67v-88h-394v88h61
c26 0 39 13.333 39 40zM306.001 575.001l0.000976562 -201h86c35.333 0 63.666 9 84.999 27s32 42.333 32 73c0 30 -9.66699 54.333 -29 73s-43.333 28 -72 28h-102z" />
    <glyph glyph-name="Q" unicode="Q" horiz-adv-x="833" 
d="M398 313c45.333 0 94 -22.666 146 -67.999c4 25.333 6 54 6 86c0 88 -11.833 153.167 -35.5 195.5s-60.5 63.5 -110.5 63.5s-86.833 -21.167 -110.5 -63.5s-35.5 -107.5 -35.5 -195.5c0 -48.667 3.66699 -90.334 11 -125.001h2c10 71.333 52.333 107 127 107z
M304 141.001c0 -23.333 10.6689 -40.5 32.002 -51.5s45 -16.5 71 -16.5c41.333 0 72.666 13.667 93.999 41c-49.333 56.667 -94 85 -134 85c-18.667 0 -33.834 -5 -45.501 -15s-17.5 -24.333 -17.5 -43zM783.002 170.001l54.998 -0.000976562
c0 -46 -3.33301 -84.167 -10 -114.5s-16.667 -52.666 -30 -66.999s-27.166 -24 -41.499 -29s-32.166 -7.5 -53.499 -7.5c-40.667 0 -79.334 22.333 -116.001 67c-52 -26 -113 -39 -183 -39c-110.667 0 -198.834 31.5 -264.501 94.5s-98.5 148.5 -98.5 256.5
s32.833 193.667 98.5 257s153.834 95 264.501 95s198.834 -31.667 264.501 -95s98.5 -149 98.5 -257c0 -88 -23 -162 -69 -222c14.667 -14.667 28.667 -22 42 -22c28.667 0 43 27.667 43 83z" />
    <glyph glyph-name="R" unicode="R" horiz-adv-x="833" 
d="M306 575l0.00195312 -187h96c39.333 0 67.666 6.5 84.999 19.5s26 38.5 26 76.5c0 35.333 -10.333 59.333 -31 72s-55.334 19 -104.001 19h-72zM118.002 128l0.000976562 407c0 26.667 -13 40 -39 40h-62v88h461c70.667 0 125.5 -13.833 164.5 -41.5
s58.5 -67.834 58.5 -120.501c0 -86 -50.333 -136 -151 -150v-2c41.333 -11.333 71.166 -25.666 89.499 -42.999s27.5 -45.333 27.5 -84v-105c0 -22.667 11.333 -34 34 -34c22 0 33 20.667 33 62v40h67v-34c0 -54 -12.167 -96 -36.5 -126s-66.5 -45 -126.5 -45
c-106 0 -159 54.667 -159 164v82c0 30.667 -5.33301 50.667 -16 60s-35.667 14 -75 14h-82v-172c0 -26.667 13 -40 39 -40h62v-88h-389v88h61c26 0 39 13.333 39 40z" />
    <glyph glyph-name="S" unicode="S" horiz-adv-x="667" 
d="M606 672l0.00195312 -246.001h-92c-7.33301 50 -30.166 89.833 -68.499 119.5s-80.833 44.5 -127.5 44.5c-74.667 0 -112 -28.667 -112 -86c0 -16.667 8 -30.5 24 -41.5s36.667 -19.5 62 -25.5s53.5 -11.833 84.5 -17.5s61.833 -13.5 92.5 -23.5s58.667 -22.5 84 -37.5
s46 -36.5 62 -64.5s24 -61.333 24 -100c0 -50.667 -13.833 -92.667 -41.5 -126s-61.334 -56.333 -101.001 -69s-84.167 -19 -133.5 -19c-88.667 0 -161.334 20.667 -218.001 62l-26 -53h-84v262h93c6.66699 -52.667 30 -95.5 70 -128.5s89.333 -49.5 148 -49.5
c29.333 0 55.833 7.66699 79.5 23s35.5 36.333 35.5 63c0 19.333 -8 35 -24 47s-36.667 21.333 -62 28s-53.5 12.667 -84.5 18s-61.833 12.666 -92.5 21.999s-58.667 21.333 -84 36s-46 35.834 -62 63.501s-24 60.834 -24 99.501c0 32 5.66699 60.333 17 85s26 44.667 44 60
s39.833 28 65.5 38s51.5 17 77.5 21s53.667 6 83 6c65.333 0 128.666 -19.333 189.999 -58l18 47h83z" />
    <glyph glyph-name="T" unicode="T" horiz-adv-x="722" 
d="M122 409h-93v254h664v-254h-93c0 55.333 -10.5 96.833 -31.5 124.5s-58.833 41.5 -113.5 41.5v-447c0 -26.667 13 -40 39 -40h60v-88h-388v88h62c26 0 39 13.333 39 40v447c-54.667 0 -92.5 -13.833 -113.5 -41.5s-31.5 -69.167 -31.5 -124.5z" />
    <glyph glyph-name="U" unicode="U" horiz-adv-x="778" 
d="M15 575v88h390v-88h-62c-26 0 -39 -13.333 -39 -40v-353c0 -33.333 9.66699 -59.833 29 -79.5s48.333 -29.5 87 -29.5c55.333 0 91.833 12.667 109.5 38s26.5 71 26.5 137v287c0 26.667 -13 40 -39 40h-59v88h305v-88h-59c-26 0 -39 -13.333 -39 -40v-321
c0 -156 -88.333 -234 -265 -234c-92.667 0 -163.167 17.167 -211.5 51.5s-72.5 91.833 -72.5 172.5v331c0 26.667 -13 40 -39 40h-62z" />
    <glyph glyph-name="V" unicode="V" horiz-adv-x="778" 
d="M23 663l376.999 -0.000976562v-88h-64c-20.667 0 -31 -7 -31 -21c0 -8 5.33301 -29 16 -63l105 -328h2l106 328c10.667 33.333 15.667 54.333 15 63c0.666992 6.66699 -1.66602 11.834 -6.99902 15.501s-13 5.5 -23 5.5h-57v88h292v-88h-24
c-22 0 -38.167 -4.16699 -48.5 -12.5s-19.833 -24.833 -28.5 -49.5l-173 -513h-178l-174 513c-8.66699 25.333 -18.5 42 -29.5 50s-29.167 12 -54.5 12h-21v88z" />
    <glyph glyph-name="W" unicode="W" horiz-adv-x="1000" 
d="M19 575l-0.000976562 88.001h303v-88h-27c-20 0 -30 -8.33301 -30 -25c0 -2 4.33301 -20.333 13 -55l91 -339h2l88 307l-18 59c-10.667 35.333 -28 53 -52 53h-21v88h318v-88h-45c-20 0 -30 -8.33301 -30 -25c0 -2 4.33301 -20.333 13 -55l85 -328h2l83 328
c7.33301 29.333 11 48.666 11 57.999c0 6.66699 -2.83301 12 -8.5 16s-11.5 6 -17.5 6h-45v88h246v-88h-12c-16.667 0 -30.667 -5 -42 -15s-20.666 -29 -27.999 -57l-130 -503h-185l-76 279h-2l-80 -279h-186l-133 471c-10.667 38.667 -21.667 65.667 -33 81s-25 23 -41 23
h-13z" />
    <glyph glyph-name="X" unicode="X" horiz-adv-x="778" 
d="M327 0l-308 0.000976562v88c31.333 0 55.166 3 71.499 9s34.5 21.333 54.5 46l139 172l-163 226c-7.33301 10.667 -16.5 18.667 -27.5 24s-20.333 8.33301 -28 9s-18.5 1 -32.5 1v88h354v-88h-39c-14.667 0 -22 -4.66699 -22 -14c0 -7.33301 3.33301 -16 10 -26l72 -104
l82 104c6.66699 7.33301 10 16 10 26c0 9.33301 -7.33301 14 -22 14h-37v88h287v-88h-28c-27.333 0 -52.666 -14 -75.999 -42l-138 -171l173 -237c18 -24.667 42 -37 72 -37h27v-88h-371v88h48c16 0 24 4.33301 24 13c0 8 -5 18.667 -15 32l-83 115l-91 -115
c-10 -12.667 -15 -23.334 -15 -32.001s8 -13 24 -13h48v-88z" />
    <glyph glyph-name="Y" unicode="Y" horiz-adv-x="778" 
d="M23 663h381v-88h-41c-20.667 0 -31 -5.33301 -31 -16c0 -6.66699 5 -18 15 -34l88 -137l89 137c10 16 15 27.333 15 34c0 10.667 -10.333 16 -31 16h-41v88h288v-88h-21c-34 0 -57 -9 -69 -27l-178 -281v-139c0 -26.667 13 -40 39 -40h68v-88h-400v88h66
c26 0 39 13.333 39 40v139l-158 252c-14 22 -27.167 36.833 -39.5 44.5s-31.5 11.5 -57.5 11.5h-21v88z" />
    <glyph glyph-name="Z" unicode="Z" horiz-adv-x="667" 
d="M29 0v90.998l385 484h-107c-67.333 0 -113.166 -12.167 -137.499 -36.5s-36.5 -67.166 -36.5 -128.499h-93v253h591v-90l-385 -485h116c67.333 0 113.166 13.333 137.499 40s36.5 74.334 36.5 143.001h93v-271h-600z" />
    <glyph glyph-name="bracketleft" unicode="[" horiz-adv-x="389" 
d="M354 -174h-298v837h298v-84h-125v-669h125v-84z" />
    <glyph glyph-name="backslash" unicode="\" horiz-adv-x="278" 
d="M-70 683h112l306 -703h-111z" />
    <glyph glyph-name="bracketright" unicode="]" horiz-adv-x="389" 
d="M35 -174v84h125v669h-125v84h298v-837h-298z" />
    <glyph glyph-name="asciicircum" unicode="^" horiz-adv-x="600" 
d="M189 240h-116l174 365h106l174 -365h-117l-110 248z" />
    <glyph glyph-name="underscore" unicode="_" horiz-adv-x="500" 
d="M500 -146h-500v80h500v-80z" />
    <glyph glyph-name="grave" unicode="`" horiz-adv-x="333" 
d="M251 543l-71.999 0.00195312l-118 69c-14.667 8.66699 -25.167 15.167 -31.5 19.5s-12.833 11.5 -19.5 21.5s-10 21.333 -10 34c0 15.333 5.83301 28 17.5 38s25.167 15 40.5 15c8.66699 0 17.167 -1.33301 25.5 -4s15 -5.33398 20 -8.00098
s11.167 -7.83398 18.5 -15.501s12.166 -13 14.499 -16s7.5 -10 15.5 -21s12.667 -17.167 14 -18.5z" />
    <glyph glyph-name="a" unicode="a" 
d="M324 163l0.000976562 68.0029c-8.66699 -4.66699 -25.834 -11.834 -51.501 -21.501s-45 -19.834 -58 -30.501s-19.5 -25.334 -19.5 -44.001c0 -37.333 19 -56 57 -56c48 0 72 28 72 84zM542.001 171.003l55.002 -0.00195312v-55c0 -50 -10.833 -84.333 -32.5 -103
s-60.5 -28 -116.5 -28c-25.333 0 -48.333 6.16699 -69 18.5s-34.667 29.833 -42 52.5c-39.333 -47.333 -90.666 -71 -153.999 -71c-102.667 0 -154 46.333 -154 139c0 34.667 10.167 61.667 30.5 81s45.166 31.833 74.499 37.5s58.5 10.334 87.5 14.001
s53.667 11.334 74 23.001s30.5 29.5 30.5 53.5c0 58.667 -32.333 88 -97 88c-32.667 0 -59 -6.33301 -79 -19v-2c17.333 -2 32.166 -7.66699 44.499 -17s18.5 -22 18.5 -38c0 -20.667 -7.66699 -36.334 -23 -47.001s-34 -16 -56 -16c-24.667 0 -45.334 6.66699 -62.001 20
s-25 31.333 -25 54c0 26 8 48 24 66s37 31.167 63 39.5s50.5 14 73.5 17s46.833 4.5 71.5 4.5c73.333 0 126.833 -12.333 160.5 -37s50.5 -71.667 50.5 -141v-186c0 -15.333 1.16699 -25.833 3.5 -31.5s7.5 -8.5 15.5 -8.5c12 0 20.5 4.83301 25.5 14.5
s7.5 27.834 7.5 54.501v23z" />
    <glyph glyph-name="b" unicode="b" 
d="M62 0v540c0 14.667 -2.5 25.5 -7.5 32.5s-14.5 10.5 -28.5 10.5h-46v80h248v-249c40.667 46 83.667 69 129 69c48 0 87.833 -11.833 119.5 -35.5s54 -53.5 67 -89.5s19.5 -77.333 19.5 -124s-6.5 -88 -19.5 -124s-35.333 -65.833 -67 -89.5s-71.5 -35.5 -119.5 -35.5
c-70 0 -121.333 25.667 -154 77l-29 -62h-112zM307 397c-52.667 0 -79 -54.333 -79 -163s26.333 -163 79 -163s79 54.333 79 163s-26.333 163 -79 163z" />
    <glyph glyph-name="c" unicode="c" horiz-adv-x="500" 
d="M378 162l99.001 0.00292969c-2 -60.667 -21.833 -105.334 -59.5 -134.001s-86.834 -43 -147.501 -43c-76.667 0 -137.167 21.167 -181.5 63.5s-66.5 104.166 -66.5 185.499c0 79.333 24.167 140.666 72.5 183.999s106.833 65 175.5 65c58 0 107 -14 147 -42
s60 -68 60 -120c0 -27.333 -8 -50.5 -24 -69.5s-37.667 -28.5 -65 -28.5c-26 0 -47.167 6 -63.5 18s-24.5 30.333 -24.5 55c0 22.667 7.16699 40.5 21.5 53.5s32.833 19.5 55.5 19.5c-18.667 22.667 -45.334 34 -80.001 34c-27.333 0 -50.5 -14.167 -69.5 -42.5
s-28.5 -69.5 -28.5 -123.5c0 -58 7.66699 -100.167 23 -126.5s40.333 -39.5 75 -39.5c24 0 42.833 8.66699 56.5 26s21.834 39 24.501 65z" />
    <glyph glyph-name="d" unicode="d" 
d="M276 78c52.667 0 79 53.333 79 160c0 106 -26.333 159 -79 159s-79 -53 -79 -159c0 -106.667 26.333 -160 79 -160zM363 0v72.998h-2c-28 -58.667 -76.333 -88 -145 -88c-29.333 0 -55.5 4.83301 -78.5 14.5s-41.667 22.334 -56 38.001s-26.333 34.5 -36 56.5
s-16.334 44.333 -20.001 67s-5.5 47 -5.5 73s1.83301 50.333 5.5 73s10.334 45 20.001 67s21.667 40.833 36 56.5s33 28.334 56 38.001s49.167 14.5 78.5 14.5c31.333 0 59.5 -5.83301 84.5 -17.5s42.5 -28.167 52.5 -49.5l2 2v139c0 14.667 -2.5 25.5 -7.5 32.5
s-14.5 10.5 -28.5 10.5h-41v80h243v-557c0 -14.667 2.5 -25.5 7.5 -32.5s14.5 -10.5 28.5 -10.5h39v-80h-233z" />
    <glyph glyph-name="e" unicode="e" horiz-adv-x="556" 
d="M531 211l-330 -0.000976562c0 -93.333 33.333 -140 100 -140c20.667 0 41.667 7.66699 63 23s34 36.333 38 63h116c-7.33301 -56 -34.5 -98.667 -81.5 -128s-100.167 -44 -159.5 -44c-84 0 -147.167 21.833 -189.5 65.5s-63.5 104.834 -63.5 183.501
c0 76 23.833 136.5 71.5 181.5s108.167 67.5 181.5 67.5c79.333 0 141.5 -25.333 186.5 -76s67.5 -116 67.5 -196zM203 290.999h150.999v26c0 26 -6.66699 46.833 -20 62.5s-31.666 23.5 -54.999 23.5c-24 0 -42.667 -7.83301 -56 -23.5s-20 -36.5 -20 -62.5v-26z" />
    <glyph glyph-name="f" unicode="f" horiz-adv-x="389" 
d="M18 456l73.999 0.000976562v24c0 70.667 15.333 122.167 46 154.5s78.334 48.5 143.001 48.5c42.667 0 80.834 -8.83301 114.501 -26.5s50.5 -45.5 50.5 -83.5c0 -19.333 -6.83301 -37 -20.5 -53s-29.834 -24 -48.501 -24c-19.333 0 -35.833 6.16699 -49.5 18.5
s-20.5 28.166 -20.5 47.499c0 12.667 3.66699 23.5 11 32.5s17 14.167 29 15.5v2c-20 3.33301 -32.333 5 -37 5c-21.333 0 -35.333 -7.33301 -42 -22s-10 -34.667 -10 -60v-79h84v-80h-84v-253c0 -14.667 2.5 -25.5 7.5 -32.5s14.5 -10.5 28.5 -10.5h41v-80h-322v80h43
c14 0 23.5 3.5 28.5 10.5s7.5 17.833 7.5 32.5v253h-74v80z" />
    <glyph glyph-name="g" unicode="g" horiz-adv-x="667" 
d="M283 422c-38.667 0 -58 -41.667 -58 -125c0 -82.667 19.333 -124 58 -124s58 41.333 58 124c0 83.333 -19.333 125 -58 125zM203 63l202.998 0.000976562c116.667 0 175 -41.667 175 -125c0 -24 -5.33301 -45.167 -16 -63.5s-24.5 -32.833 -41.5 -43.5
s-38.5 -19.334 -64.5 -26.001s-52.333 -11.167 -79 -13.5s-57 -3.5 -91 -3.5c-168 0 -252 32.667 -252 98c0 21.333 8.16699 38.166 24.5 50.499s36.166 20.5 59.499 24.5v2c-20.667 7.33301 -38.5 19 -53.5 35s-22.5 34.333 -22.5 55c0 28 6.83301 49 20.5 63
s35.5 27 65.5 39c-45.333 32 -68 82.667 -68 152c0 56 22.333 99.333 67 130s96.334 46 155.001 46c50 0 100.667 -15 152 -45c34.667 30 71.334 45 110.001 45c29.333 0 54.833 -8.5 76.5 -25.5s32.5 -39.833 32.5 -68.5c0 -22.667 -6.5 -40.334 -19.5 -53.001
s-31.167 -19 -54.5 -19c-16 0 -29.167 5.5 -39.5 16.5s-15.5 24.5 -15.5 40.5c0 18 9.33301 34.667 28 50c-1.33301 0 -5 0.666992 -11 2l-13.5 3c-3 0.666992 -7.5 0.833984 -13.5 0.500977s-11.167 -1.33301 -15.5 -3s-9.5 -4.5 -15.5 -8.5s-11.667 -9 -17 -15
c23.333 -38.667 35 -73 35 -103c0 -62 -21.667 -109 -65 -141s-98.333 -48 -165 -48c-40 0 -74 5.66699 -102 17c-13.333 -4 -20 -13.667 -20 -29c0 -11.333 5.83301 -20.166 17.5 -26.499s22.834 -9.5 33.501 -9.5zM160.998 -103.999c0 -27.333 50.333 -41 151 -41
s151 13.667 151 41c0 16 -13 26.833 -39 32.5s-63.333 8.5 -112 8.5s-86 -2.83301 -112 -8.5s-39 -16.5 -39 -32.5z" />
    <glyph glyph-name="h" unicode="h" horiz-adv-x="667" 
d="M16 663h235v-272h2c22.667 32.667 47 56.167 73 70.5s59 21.5 99 21.5c54.667 0 93.667 -14.5 117 -43.5s35 -71.167 35 -126.5v-190c0 -14.667 2.5 -25.5 7.5 -32.5s14.5 -10.5 28.5 -10.5h38v-80h-297v80h21c14 0 23.5 3.5 28.5 10.5s7.5 17.833 7.5 32.5v172
c0 33.333 -5 58 -15 74s-30.667 24 -62 24c-22 0 -40 -8.66699 -54 -26s-21 -37 -21 -59v-185c0 -14.667 2.5 -25.5 7.5 -32.5s14.5 -10.5 28.5 -10.5h24v-80h-302v80h40c14 0 23.5 3.5 28.5 10.5s7.5 17.833 7.5 32.5v417c0 14.667 -2.5 25.5 -7.5 32.5
s-14.5 10.5 -28.5 10.5h-41v80z" />
    <glyph glyph-name="i" unicode="i" horiz-adv-x="389" 
d="M278 468v-345c0 -14.667 2.5 -25.5 7.5 -32.5s14.5 -10.5 28.5 -10.5h41v-80h-322v80h43c14 0 23.5 3.5 28.5 10.5s7.5 17.833 7.5 32.5v222c0 14.667 -2.5 25.5 -7.5 32.5s-14.5 10.5 -28.5 10.5h-46v80h248zM191 683c24.667 0 45.334 -8.33301 62.001 -25
s25 -37.334 25 -62.001s-8.33301 -45.334 -25 -62.001s-37.334 -25 -62.001 -25s-45.334 8.33301 -62.001 25s-25 37.334 -25 62.001s8.33301 45.334 25 62.001s37.334 25 62.001 25z" />
    <glyph glyph-name="j" unicode="j" horiz-adv-x="389" 
d="M134 -101l0.00195312 445.999c0 14.667 -2.5 25.5 -7.5 32.5s-14.5 10.5 -28.5 10.5h-46v80h248v-507c0 -115.333 -65 -173 -195 -173c-25.333 0 -48.833 2.83301 -70.5 8.5s-41.334 16.834 -59.001 33.501s-26.5 37.667 -26.5 63c0 22 6.33301 39.667 19 53s30 20 52 20
c20 0 36.5 -5 49.5 -15s19.5 -24.667 19.5 -44c0 -22 -10.667 -38.667 -32 -50c13.333 -6 28.666 -9 45.999 -9c20.667 0 31 17 31 51zM213.002 682.999c24.667 0 45.334 -8.33301 62.001 -25s25 -37.334 25 -62.001s-8.33301 -45.334 -25 -62.001s-37.334 -25 -62.001 -25
s-45.334 8.33301 -62.001 25s-25 37.334 -25 62.001s8.33301 45.334 25 62.001s37.334 25 62.001 25z" />
    <glyph glyph-name="k" unicode="k" horiz-adv-x="667" 
d="M90 123l-0.00292969 417c0 14.667 -2.5 25.5 -7.5 32.5s-14.5 10.5 -28.5 10.5h-36v80h238v-411l125 100c10.667 8 16 16.333 16 25c0 7.33301 -7.33301 11 -22 11h-50v80h292v-80h-26c-21.333 0 -38.666 -5.33301 -51.999 -16l-85 -68l123 -198
c10.667 -17.333 26.334 -26 47.001 -26h25v-80h-303v80h28c13.333 0 20 4.33301 20 13c0 6 -2.66699 13.333 -8 22l-54 90l-76 -64v-18c0 -17.333 2.33301 -28.833 7 -34.5s14.334 -8.5 29.001 -8.5h16v-80h-291v80h37c14 0 23.5 3.5 28.5 10.5s7.5 17.833 7.5 32.5z" />
    <glyph glyph-name="l" unicode="l" horiz-adv-x="389" 
d="M278 663v-540c0 -14.667 2.5 -25.5 7.5 -32.5s14.5 -10.5 28.5 -10.5h41v-80h-322v80h43c14 0 23.5 3.5 28.5 10.5s7.5 17.833 7.5 32.5v417c0 14.667 -2.5 25.5 -7.5 32.5s-14.5 10.5 -28.5 10.5h-46v80h248z" />
    <glyph glyph-name="m" unicode="m" horiz-adv-x="944" 
d="M17 468h232.001v-80h2c38 63.333 92.667 95 164 95c68 0 113.333 -29.667 136 -89c38 59.333 90.667 89 158 89c101.333 0 152 -49 152 -147v-213c0 -14.667 2.5 -25.5 7.5 -32.5s14.5 -10.5 28.5 -10.5h34v-80h-287v80h15c14 0 23.5 3.5 28.5 10.5s7.5 17.833 7.5 32.5
v184c0 21.333 -5.33301 41 -16 59s-26.334 27 -47.001 27c-48 0 -72 -25 -72 -75v-215c0 -9.33301 2.16699 -15.5 6.5 -18.5s14.166 -4.5 29.499 -4.5h13v-80h-265v80h14c14 0 23.5 3.16699 28.5 9.5s7.5 17.5 7.5 33.5v184c0 29.333 -4 51 -12 65s-25 21 -51 21
c-25.333 0 -43.666 -8.5 -54.999 -25.5s-17 -38.5 -17 -64.5v-200c0 -15.333 12 -23 36 -23h16v-80h-297v80h43c14 0 23.5 3.5 28.5 10.5s7.5 17.833 7.5 32.5v222c0 14.667 -2.5 25.5 -7.5 32.5s-14.5 10.5 -28.5 10.5h-40v80z" />
    <glyph glyph-name="n" unicode="n" horiz-adv-x="667" 
d="M16 468h235v-77h2c22.667 32.667 47 56.167 73 70.5s59 21.5 99 21.5c54.667 0 93.667 -14.5 117 -43.5s35 -71.167 35 -126.5v-190c0 -14.667 2.5 -25.5 7.5 -32.5s14.5 -10.5 28.5 -10.5h38v-80h-297v80h21c14 0 23.5 3.5 28.5 10.5s7.5 17.833 7.5 32.5v172
c0 33.333 -5 58 -15 74s-30.667 24 -62 24c-22 0 -40 -8.66699 -54 -26s-21 -37 -21 -59v-185c0 -14.667 2.5 -25.5 7.5 -32.5s14.5 -10.5 28.5 -10.5h24v-80h-302v80h40c14 0 23.5 3.5 28.5 10.5s7.5 17.833 7.5 32.5v222c0 14.667 -2.5 25.5 -7.5 32.5
s-14.5 10.5 -28.5 10.5h-41v80z" />
    <glyph glyph-name="o" unicode="o" horiz-adv-x="556" 
d="M278 483c76.667 0 138.834 -22 186.501 -66s71.5 -105 71.5 -183s-23.833 -139 -71.5 -183s-109.834 -66 -186.501 -66s-138.834 22 -186.501 66s-71.5 105 -71.5 183s23.833 139 71.5 183s109.834 66 186.501 66zM278 403c-29.333 0 -50.166 -13.167 -62.499 -39.5
s-18.5 -69.5 -18.5 -129.5s6.16699 -103.167 18.5 -129.5s33.166 -39.5 62.499 -39.5s50.166 13.167 62.499 39.5s18.5 69.5 18.5 129.5s-6.16699 103.167 -18.5 129.5s-33.166 39.5 -62.499 39.5z" />
    <glyph glyph-name="p" unicode="p" 
d="M311 390c-52.667 0 -79 -53.333 -79 -160c0 -106 26.333 -159 79 -159s79 53 79 159c0 106.667 -26.333 160 -79 160zM224 468v-72.998h2c28 58.667 76.333 88 145 88c29.333 0 55.5 -4.83301 78.5 -14.5s41.667 -22.334 56 -38.001s26.333 -34.5 36 -56.5
s16.334 -44.333 20.001 -67s5.5 -47 5.5 -73s-1.83301 -50.333 -5.5 -73s-10.334 -45 -20.001 -67s-21.667 -40.833 -36 -56.5s-33 -28.334 -56 -38.001s-49.167 -14.5 -78.5 -14.5c-31.333 0 -59.5 5.83301 -84.5 17.5s-42.5 28.167 -52.5 49.5l-2 -2v-139
c0 -14.667 2.5 -25.5 7.5 -32.5s14.5 -10.5 28.5 -10.5h41v-80h-317v80h38c14 0 23.5 3.5 28.5 10.5s7.5 17.833 7.5 32.5v434c0 14.667 -2.5 25.5 -7.5 32.5s-14.5 10.5 -28.5 10.5h-39v80h233z" />
    <glyph glyph-name="q" unicode="q" 
d="M280 390c-52.667 0 -79 -53.333 -79 -160c0 -106 26.333 -159 79 -159s79 53 79 159c0 106.667 -26.333 160 -79 160zM367 395v72.998h233v-80h-39c-14 0 -23.5 -3.5 -28.5 -10.5s-7.5 -17.833 -7.5 -32.5v-434c0 -14.667 2.5 -25.5 7.5 -32.5s14.5 -10.5 28.5 -10.5h38
v-80h-317v80h41c14 0 23.5 3.5 28.5 10.5s7.5 17.833 7.5 32.5v139l-2 2c-10 -21.333 -27.5 -37.833 -52.5 -49.5s-53.167 -17.5 -84.5 -17.5c-29.333 0 -55.5 4.83301 -78.5 14.5s-41.667 22.334 -56 38.001s-26.333 34.5 -36 56.5s-16.334 44.333 -20.001 67
s-5.5 47 -5.5 73s1.83301 50.333 5.5 73s10.334 45 20.001 67s21.667 40.833 36 56.5s33 28.334 56 38.001s49.167 14.5 78.5 14.5c68.667 0 117 -29.333 145 -88h2z" />
    <glyph glyph-name="r" unicode="r" horiz-adv-x="500" 
d="M16 388l0.000976562 80.001h236v-80h2c26.667 63.333 65.667 95 117 95c31.333 0 58.166 -10.833 80.499 -32.5s33.5 -48.834 33.5 -81.501c0 -22.667 -7.66699 -43.167 -23 -61.5s-34.333 -27.5 -57 -27.5s-41.667 5.5 -57 16.5s-23 27.5 -23 49.5
c0 34.667 17.333 55 52 61c-7.33301 7.33301 -18 11 -32 11c-24.667 0 -45.167 -12.5 -61.5 -37.5s-24.5 -51.167 -24.5 -78.5v-179c0 -14.667 2.5 -25.5 7.5 -32.5s14.5 -10.5 28.5 -10.5h41v-80h-320v80h41c14 0 23.5 3.5 28.5 10.5s7.5 17.833 7.5 32.5v222
c0 14.667 -2.5 25.5 -7.5 32.5s-14.5 10.5 -28.5 10.5h-41z" />
    <glyph glyph-name="s" unicode="s" horiz-adv-x="556" 
d="M41 168l81.9961 -0.000976562c4 -28 20.333 -52.167 49 -72.5s57.667 -30.5 87 -30.5c56.667 0 85 14.667 85 44c0 15.333 -10.667 27.5 -32 36.5s-47.166 16.833 -77.499 23.5s-60.666 14.834 -90.999 24.501s-56.166 25.5 -77.499 47.5s-32 50 -32 84
c0 28.667 6.83301 53.667 20.5 75s31.834 37.833 54.501 49.5s46.5 20.167 71.5 25.5s50.833 8 77.5 8c54 0 105.667 -14 155 -42l12 30h69v-150h-76c-9.33301 26 -26.333 46.667 -51 62c-22 13.333 -48.333 20 -79 20c-10.667 0 -21 -0.833008 -31 -2.5
s-20.167 -5.5 -30.5 -11.5s-15.5 -14.333 -15.5 -25c0 -13.333 7.66699 -24.166 23 -32.499s34.5 -14.333 57.5 -18s47.833 -9.16699 74.5 -16.5s51.5 -15.833 74.5 -25.5s42.167 -25 57.5 -46s23 -46.833 23 -77.5c0 -38 -11 -69.833 -33 -95.5
s-48.333 -43.334 -79 -53.001s-64.667 -14.5 -102 -14.5c-74 0 -132.667 15 -176 45l-15 -34h-75v172z" />
    <glyph glyph-name="t" unicode="t" horiz-adv-x="444" 
d="M153 654h99.001v-186h123v-80h-123v-275c0 -25.333 11.333 -38 34 -38c18 0 30.5 6 37.5 18s10.5 30.333 10.5 55v78h80v-89c0 -50.667 -13.333 -88.667 -40 -114s-69.334 -38 -128.001 -38c-106.667 0 -160 50.667 -160 152v251h-67v80c77.333 0 122 62 134 186z" />
    <glyph glyph-name="u" unicode="u" horiz-adv-x="667" 
d="M641 0h-229.999v77h-2c-22.667 -32.667 -47 -56.167 -73 -70.5s-59 -21.5 -99 -21.5c-56 0 -95.333 12.333 -118 37s-34 64.667 -34 120v203c0 14.667 -2.5 25.5 -7.5 32.5s-14.5 10.5 -28.5 10.5h-33v80h235v-295c0 -22 0.333008 -37.5 1 -46.5s3.5 -18.333 8.5 -28
s12.667 -16 23 -19s25.166 -4.5 44.499 -4.5c22 0 40 8.66699 54 26s21 37 21 59v185c0 14.667 -2.5 25.5 -7.5 32.5s-14.5 10.5 -28.5 10.5h-44v80h246v-345c0 -14.667 2.5 -25.5 7.5 -32.5s14.5 -10.5 28.5 -10.5h36v-80z" />
    <glyph glyph-name="v" unicode="v" 
d="M21 388v80h300v-80h-36c-20.667 0 -31 -5 -31 -15c0 -7.33301 2.33301 -17.333 7 -30l75 -238h2l79 235c3.33301 11.333 5 21 5 29c0 12.667 -10.333 19 -31 19h-28v80h227v-80h-25c-22.667 0 -39.667 -16 -51 -48l-120 -340h-185l-114 340c-11.333 32 -30 48 -56 48h-18
z" />
    <glyph glyph-name="w" unicode="w" horiz-adv-x="889" 
d="M18 388v80.001h285v-80h-18c-23.333 0 -35 -6 -35 -18c0 -2 0.666992 -6.33301 2 -13l66 -245h2l73 245c1.33301 3.33301 2 7.66602 2 12.999c0 12 -11.667 18 -35 18h-18v80h276v-80h-23c-23.333 0 -35 -6 -35 -18c0 -2 0.666992 -6.33301 2 -13l72 -251h2l65 237
c2.66699 8.66699 4 17.667 4 27c0 12 -11.667 18 -35 18h-14v80h214v-80h-32c-11.333 0 -21 -4.5 -29 -13.5s-15.667 -25.167 -23 -48.5l-98 -326h-178l-67 228h-2l-70 -228h-178l-92 327c-11.333 40.667 -32 61 -62 61h-21z" />
    <glyph glyph-name="x" unicode="x" horiz-adv-x="667" 
d="M361 468v-79.999h-21c-16.667 0 -25 -3.33301 -25 -10c0 -4.66699 3.66699 -11.334 11 -20.001l50 -55l51 45c11.333 10 17 19.333 17 28c0 8 -10.333 12 -31 12h-10v80h241v-80h-22c-20 0 -43.667 -11.667 -71 -35l-122 -104l119 -133c22 -24 42.667 -36 62 -36h41v-80
h-341v80h21c18.667 0 28 4.66699 28 14c0 4.66699 -4.33301 11.334 -13 20.001l-52 54l-66 -66c-5.33301 -6.66699 -8 -11.334 -8 -14.001c0 -5.33301 8.33301 -8 25 -8h24v-80h-246v80h27c21.333 0 44.333 11.333 69 34l123 114l-122 127c-20.667 22 -41.667 33 -63 33h-20
v80h324z" />
    <glyph glyph-name="y" unicode="y" 
d="M364 468l222.997 -0.000976562v-80h-19c-12 0 -22.167 -2.66699 -30.5 -8s-14 -10.666 -17 -15.999s-6.83301 -14 -11.5 -26l-133 -324c-31.333 -75.333 -62.166 -131.833 -92.499 -169.5s-69.833 -56.5 -118.5 -56.5c-44.667 0 -80.834 10.5 -108.501 31.5
s-41.5 53.5 -41.5 97.5c0 26 7.83301 46.667 23.5 62s36.5 23 62.5 23c20.667 0 38.334 -6 53.001 -18s22 -28 22 -48c0 -42.667 -17.667 -64 -53 -64c-11.333 0 -20.666 1.33301 -27.999 4c2 -17.333 21 -26 57 -26c14.667 0 27.667 3.16699 39 9.5s21.5 16.5 30.5 30.5
s15.833 26 20.5 36s10.667 24.667 18 44l-158 356c-6.66699 15.333 -11.667 26.5 -15 33.5s-8.16602 13.5 -14.499 19.5s-13.5 9 -21.5 9h-32v80h303v-80h-33c-22 0 -33 -6.33301 -33 -19c0 -4.66699 2 -11.667 6 -21l82 -185h2l71 182c4 10 6 19 6 27
c0 10.667 -10 16 -30 16h-29v80z" />
    <glyph glyph-name="z" unicode="z" horiz-adv-x="500" 
d="M472 380l-258 -300h90c57.333 0 86 28 86 84v53h80v-217h-442v97l252 291h-93c-26 0 -43.833 -5.5 -53.5 -16.5s-14.5 -29.167 -14.5 -54.5v-45h-80v196h433v-88z" />
    <glyph glyph-name="braceleft" unicode="{" horiz-adv-x="389" 
d="M79 -50v180.002c0 32.667 -5.66699 57.667 -17 75s-30.666 31 -57.999 41c27.333 9.33301 46.666 22.666 57.999 39.999s17 42.333 17 75v180c0 58 19.5 96.167 58.5 114.5s107.5 27.5 205.5 27.5v-50c-32 -3.33301 -55.167 -14.5 -69.5 -33.5s-21.5 -46.5 -21.5 -82.5
v-141c0 -38 -6.33301 -67 -19 -87s-37.667 -34.333 -75 -43v-2c37.333 -8.66699 62.333 -22.834 75 -42.501s19 -48.5 19 -86.5v-141c0 -36 7.16699 -63.5 21.5 -82.5s37.5 -30.167 69.5 -33.5v-50c-98 0 -166.5 9.16699 -205.5 27.5s-58.5 56.5 -58.5 114.5z" />
    <glyph glyph-name="bar" unicode="|" horiz-adv-x="222" 
d="M55 0v663h111v-663h-111z" />
    <glyph glyph-name="braceright" unicode="}" horiz-adv-x="389" 
d="M310 541v-180.002c0 -32.667 5.66699 -57.667 17 -75s30.666 -31 57.999 -41c-27.333 -9.33301 -46.666 -22.666 -57.999 -39.999s-17 -42.333 -17 -75v-180c0 -58 -19.5 -96.167 -58.5 -114.5s-107.5 -27.5 -205.5 -27.5v50c32 3.33301 55.167 14.5 69.5 33.5
s21.5 46.5 21.5 82.5v141c0 38 6.33301 67 19 87s37.667 34.333 75 43v2c-37.333 8.66699 -62.333 22.834 -75 42.501s-19 48.5 -19 86.5v141c0 36 -7.16699 63.5 -21.5 82.5s-37.5 30.167 -69.5 33.5v50c98 0 166.5 -9.16699 205.5 -27.5s58.5 -56.5 58.5 -114.5z" />
    <glyph glyph-name="asciitilde" unicode="~" horiz-adv-x="600" 
d="M495 327l36 -95.999c-13.333 -18 -24.333 -32 -33 -42s-21.334 -19.833 -38.001 -29.5s-34.667 -14.5 -54 -14.5c-25.333 0 -60 11.333 -104 34s-81.667 34 -113 34c-34 0 -62 -24 -84 -72l-36 96c30 57.333 71.667 86 125 86c27.333 0 65.666 -11.333 114.999 -34
c50.667 -22.667 83.334 -34 98.001 -34c12.667 0 24.834 4 36.501 12s20.667 16.167 27 24.5s14.5 20.166 24.5 35.499z" />
    <glyph glyph-name="exclamdown" unicode="&#xa1;" horiz-adv-x="333" 
d="M118 266h97c0 -42.667 7.5 -106.334 22.5 -191.001s22.5 -136.334 22.5 -155.001c0 -88 -32 -132 -96 -132c-60.667 0 -91 44 -91 132c0 18.667 7.5 70.334 22.5 155.001s22.5 148.334 22.5 191.001zM163 318c-22.667 0 -42.334 8.33301 -59.001 25
s-25 36.334 -25 59.001s8.33301 42.167 25 58.5s36.334 24.5 59.001 24.5s42.167 -8.16699 58.5 -24.5s24.5 -35.833 24.5 -58.5s-8.16699 -42.334 -24.5 -59.001s-35.833 -25 -58.5 -25z" />
    <glyph glyph-name="cent" unicode="&#xa2;" 
d="M381 235l-76.999 -151c9.33301 -8.66699 22.333 -13 39 -13c24 0 42.833 8.66699 56.5 26s21.834 39 24.501 65h99c-2 -60.667 -22.167 -105.334 -60.5 -134.001s-88.833 -43 -151.5 -43c-18 0 -36.333 1.66699 -55 5l-56 -109h-68l65 126
c-40.667 16.667 -72.334 43 -95.001 79s-34 79.667 -34 131c0 83.333 21.833 148.5 65.5 195.5s106.834 70.5 189.501 70.5c39.333 0 74.666 -7.33301 105.999 -22l46 90h68l-63 -124c28.667 -27.333 43 -62.666 43 -105.999c0 -34.667 -8.5 -59.667 -25.5 -75
s-38.167 -23 -63.5 -23c-22.667 0 -40.334 4 -53.001 12zM260.001 131l86.001 169.001c0.666992 21.333 8 38.166 22 50.499s32.333 18.5 55 18.5c-18.667 22.667 -44.334 34 -77.001 34c-36.667 0 -62.667 -15.5 -78 -46.5s-23 -67.167 -23 -108.5
c0 -53.333 5 -92.333 15 -117z" />
    <glyph glyph-name="sterling" unicode="&#xa3;" 
d="M65 -15l-39.998 104.002c66 31.333 99 77.666 99 138.999v34h-94v74h73c-16 29.333 -24 62 -24 98c0 42.667 12.5 78.5 37.5 107.5s55 49.333 90 61s73.167 17.5 114.5 17.5c27.333 0 54.166 -2.5 80.499 -7.5s52.833 -12.833 79.5 -23.5s48.167 -26.667 64.5 -48
s24.5 -46.666 24.5 -75.999s-7.83301 -51.333 -23.5 -66s-37.167 -22 -64.5 -22c-22.667 0 -41.834 6.16699 -57.501 18.5s-23.5 29.166 -23.5 50.499c0 13.333 1.83301 24.166 5.5 32.499s7.66699 14 12 17l12 8c3.66699 2.33301 5.5 4.83301 5.5 7.5
c0 19.333 -27 29 -81 29c-28 0 -52.167 -8 -72.5 -24s-30.5 -37.667 -30.5 -65c0 -9.33301 0.833008 -19.5 2.5 -30.5s3.33398 -19.5 5.00098 -25.5s4.66699 -16.167 9 -30.5l8.5 -28.5h121v-74h-116c-7.33301 -56.667 -37 -100 -89 -130l7 -8c25.333 12 45 20.167 59 24.5
s32.667 6.5 56 6.5c15.333 0 40 -5.66699 74 -17s56.333 -17 67 -17c18.667 0 31.5 6.5 38.5 19.5s10.5 27.167 10.5 42.5v22h80v-29c0 -127.333 -47.667 -191 -143 -191c-35.333 0 -77.333 8.33301 -126 25s-85.667 25 -111 25c-17.333 0 -34.833 -2.66699 -52.5 -8
s-31.834 -10.833 -42.501 -16.5s-25.667 -14.167 -45 -25.5z" />
    <glyph glyph-name="currency" unicode="&#xa4;" 
d="M40 155l58.999 59c-31.333 34.667 -47 81.667 -47 141c0 65.333 15.667 113.333 47 144l-59 59l64 64l58 -58c14.667 13.333 35.5 24.166 62.5 32.499s54.833 12.5 83.5 12.5c26.667 0 52.5 -4 77.5 -12s44.167 -18.333 57.5 -31l59 59l69 -69l-57 -57
c28.667 -30.667 43 -78 43 -142c0 -61.333 -15 -109.666 -45 -144.999l57 -57l-61 -61l-59 59c-31.333 -32.667 -78.666 -49 -141.999 -49c-64.667 0 -113.667 15.667 -147 47l-58 -58zM438.999 356c0 38.667 -13.167 71.834 -39.5 99.501s-58.166 41.5 -95.499 41.5
s-69 -13.833 -95 -41.5s-39 -60.834 -39 -99.501s13 -71.667 39 -99s57.667 -41 95 -41s69.166 13.667 95.499 41s39.5 60.333 39.5 99z" />
    <glyph glyph-name="yen" unicode="&#xa5;" 
d="M558 396l-0.000976562 -73.999h-142l-28 -54h170v-74h-171v-66c0 -26.667 11 -40 33 -40h57v-88h-334v88h55c21.333 0 32 13.333 32 40v66h-171v74h170l-28 54h-142v74h103l-64 123c-11.333 22 -22.166 36.833 -32.499 44.5s-26.166 11.5 -47.499 11.5h-18v88h318v-88
h-34c-17.333 0 -26 -5.33301 -26 -16c0 -6.66699 4 -18 12 -34l74 -137l74 137c8.66699 17.333 13 28.666 13 33.999c0 10.667 -8.66699 16 -26 16h-34v88h240v-88h-18c-18.667 0 -32.334 -3.83301 -41.001 -11.5s-19 -22.5 -31 -44.5l-65 -123h102z" />
    <glyph glyph-name="brokenbar" unicode="&#xa6;" horiz-adv-x="222" 
d="M55 0v248h111v-248h-111zM55 415v248h111v-248h-111z" />
    <glyph glyph-name="section" unicode="&#xa7;" 
d="M203 212l97.001 -43.998c26.667 -12 50.667 -18 72 -18s39 6.66699 53 20s21 30.666 21 51.999c0 33.333 -24.667 59.666 -74 78.999l-82 31c-24 8.66699 -43 13 -57 13c-20.667 0 -37.334 -7 -50.001 -21s-19 -30.333 -19 -49c0 -29.333 13 -50.333 39 -63z
M292.001 683.002c22.667 0 45.3311 -1.66797 67.998 -5.00098s46 -9.16602 70 -17.499s43.5 -21.166 58.5 -38.499s22.5 -38.333 22.5 -63c0 -22 -6.83301 -39.5 -20.5 -52.5s-31.5 -19.5 -53.5 -19.5c-20.667 0 -37.667 5 -51 15s-20 25 -20 45c0 17.333 8.66699 33 26 47
c-20.667 14 -46.667 21 -78 21c-73.333 0 -110 -26 -110 -78c0 -20.667 11.833 -38.334 35.5 -53.001s52.334 -27.167 86.001 -37.5s67.5 -22 101.5 -35s62.833 -32.5 86.5 -58.5s35.5 -58 35.5 -96c0 -68 -36.667 -116.333 -110 -145c59.333 -34.667 89 -82 89 -142
c0 -60.667 -22.5 -106.167 -67.5 -136.5s-99.5 -45.5 -163.5 -45.5c-33.333 0 -64.666 4.33301 -93.999 13s-55.166 24.334 -77.499 47.001s-33.5 50.667 -33.5 84c0 20.667 7 38.167 21 52.5s32 21.5 54 21.5c19.333 0 35.833 -5 49.5 -15s20.5 -25.667 20.5 -47
c0 -31.333 -13 -51.666 -39 -60.999c22.667 -18 51 -27 85 -27c89.333 0 134 28.667 134 86c0 26 -12.167 47.167 -36.5 63.5s-54 29.666 -89 39.999s-70 21.666 -105 33.999s-64.667 31.5 -89 57.5s-36.5 59 -36.5 99c0 76 37.667 125.333 113 148
c-22.667 12 -41.834 29.5 -57.501 52.5s-23.5 46.5 -23.5 70.5c0 54.667 19 97.667 57 129s85.333 47 142 47z" />
    <glyph glyph-name="dieresis" unicode="&#xa8;" horiz-adv-x="333" 
d="M57 705c22 0 40.667 -7.83301 56 -23.5s23 -34.167 23 -55.5c0 -22 -7.66699 -40.667 -23 -56s-34 -23 -56 -23s-40.667 7.66699 -56 23s-23 34 -23 56c0 21.333 7.66699 39.833 23 55.5s34 23.5 56 23.5zM277 705c22 0 40.667 -7.83301 56 -23.5s23 -34.167 23 -55.5
c0 -22 -7.66699 -40.667 -23 -56s-34 -23 -56 -23s-40.667 7.66699 -56 23s-23 34 -23 56c0 21.333 7.66699 39.833 23 55.5s34 23.5 56 23.5z" />
    <glyph glyph-name="copyright" unicode="&#xa9;" horiz-adv-x="800" 
d="M400 -20c-99.333 0 -181.5 33.333 -246.5 100s-97.5 150.334 -97.5 251.001s32.5 184.5 97.5 251.5s147.167 100.5 246.5 100.5s181.5 -33.5 246.5 -100.5s97.5 -150.833 97.5 -251.5s-32.5 -184.334 -97.5 -251.001s-147.167 -100 -246.5 -100zM400 43
c74.667 0 135.667 27.5 183 82.5s71 123.5 71 205.5s-23.667 150.667 -71 206s-108.333 83 -183 83s-135.667 -27.667 -183 -83s-71 -124 -71 -206s23.667 -150.5 71 -205.5s108.333 -82.5 183 -82.5zM544 260l22.999 0.00195312l-15 -77c-1.33301 -8 -11.333 -15 -30 -21
c-42 -14 -76.667 -21 -104 -21c-68 0 -120.833 17.5 -158.5 52.5s-56.5 84.833 -56.5 149.5c0 23.333 3.5 45.666 10.5 66.999s18.333 42.166 34 62.499s39 36.5 70 48.5s67.5 18 109.5 18c32.667 0 66.334 -6 101.001 -18c14.667 -4.66699 22 -12 22 -22v-70h-23
c-21.333 56 -53.666 84 -96.999 84c-32 0 -56 -14.5 -72 -43.5s-24 -69.167 -24 -120.5c0 -57.333 6.66699 -102 20 -134s37.666 -48 72.999 -48c48.667 0 87.667 31 117 93z" />
    <glyph glyph-name="ordfeminine" unicode="&#xaa;" horiz-adv-x="367" 
d="M192 428v40.999c-5.33301 -2.66699 -16.5 -7 -33.5 -13s-29.667 -12.167 -38 -18.5s-12.5 -15.166 -12.5 -26.499c0 -22.667 12.333 -34 37 -34c31.333 0 47 17 47 51zM333 432.999l36.002 0.00195312v-33c0 -30 -7.16699 -50.667 -21.5 -62s-39.5 -17 -75.5 -17
c-38 0 -62 14.333 -72 43c-26 -28.667 -59.333 -43 -100 -43c-66.667 0 -100 27.667 -100 83c0 21.333 6.66699 37.666 20 48.999s29.5 18.666 48.5 21.999s37.833 6.16602 56.5 8.49902s34.667 7 48 14s20 17.833 20 32.5c0 35.333 -21 53 -63 53
c-20.667 0 -37.667 -4 -51 -12v-2c10.667 -0.666992 20 -3.66699 28 -9s12 -13 12 -23c0 -12 -5 -21.333 -15 -28s-22 -10 -36 -10c-16 0 -29.333 4 -40 12s-16 19 -16 33c0 15.333 5.16699 28.5 15.5 39.5s24 18.833 41 23.5s32.833 8 47.5 10s30 3 46 3
c48 0 83 -7.5 105 -22.5s33 -43.167 33 -84.5v-112c0 -9.33301 0.666992 -15.666 2 -18.999s4.66602 -5 9.99902 -5c7.33301 0 12.666 3 15.999 9s5 17 5 33v14z" />
    <glyph glyph-name="guillemotleft" unicode="&#xab;" horiz-adv-x="500" 
d="M158 403l86 -0.00195312l-16 -37c-1.33301 -2.66699 -5.33301 -11.167 -12 -25.5l-17.5 -38.5c-5 -11.333 -9.83301 -23.666 -14.5 -36.999s-7 -23.666 -7 -30.999s2.33301 -17.666 7 -30.999s9.5 -25.666 14.5 -36.999l17.5 -38.5
c6.66699 -14.333 10.667 -22.833 12 -25.5l16 -37h-86l-42 61c-1.33301 2 -6.33301 8.66699 -15 20s-16 21.333 -22 30s-11.833 18.667 -17.5 30s-8.5 20.666 -8.5 27.999s2.83301 16.666 8.5 27.999s11.5 21.333 17.5 30s13.333 18.667 22 30s13.667 18 15 20zM362 402.998
l86 -0.00195312l-16 -37c-1.33301 -2.66699 -5.33301 -11.167 -12 -25.5l-17.5 -38.5c-5 -11.333 -9.83301 -23.666 -14.5 -36.999s-7 -23.666 -7 -30.999s2.33301 -17.666 7 -30.999s9.5 -25.666 14.5 -36.999l17.5 -38.5c6.66699 -14.333 10.667 -22.833 12 -25.5l16 -37
h-86l-42 61c-1.33301 2 -6.33301 8.66699 -15 20s-16 21.333 -22 30s-11.833 18.667 -17.5 30s-8.5 20.666 -8.5 27.999s2.83301 16.666 8.5 27.999s11.5 21.333 17.5 30s13.333 18.667 22 30s13.667 18 15 20z" />
    <glyph glyph-name="logicalnot" unicode="&#xac;" horiz-adv-x="600" 
d="M422 100v177h-356v111h467v-288h-111z" />
    <glyph glyph-name="registered" unicode="&#xae;" horiz-adv-x="800" 
d="M234 507l-0.00292969 21h206c32.667 0 58.834 -8.33301 78.501 -25s29.5 -41.667 29.5 -75c0 -21.333 -6.66699 -41.333 -20 -60s-31.666 -31.334 -54.999 -38.001l56 -84l56 -80v-14h-98c-8.66699 0 -18.167 8.83301 -28.5 26.5s-22.166 41.667 -35.499 72
s-24 52.166 -32 65.499h-19v-101c0 -14.667 2 -24.334 6 -29.001s15.667 -7.33398 35 -8.00098v-26h-179v26c19.333 0.666992 31 3.33398 35 8.00098s6 14.334 6 29.001v255c0 14.667 -2 24.334 -6 29.001s-15.667 7.33398 -35 8.00098zM371.997 502v-160.001h22
c32.667 0 49 27.667 49 83c0 27.333 -3.5 46.833 -10.5 58.5s-18.167 17.834 -33.5 18.501h-27zM399.997 -20.001c-99.333 0 -181.5 33.333 -246.5 100s-97.5 150.334 -97.5 251.001s32.5 184.5 97.5 251.5s147.167 100.5 246.5 100.5s181.5 -33.5 246.5 -100.5
s97.5 -150.833 97.5 -251.5s-32.5 -184.334 -97.5 -251.001s-147.167 -100 -246.5 -100zM399.997 42.999c74.667 0 135.667 27.5 183 82.5s71 123.5 71 205.5s-23.667 150.667 -71 206s-108.333 83 -183 83s-135.667 -27.667 -183 -83s-71 -124 -71 -206
s23.667 -150.5 71 -205.5s108.333 -82.5 183 -82.5z" />
    <glyph glyph-name="macron" unicode="&#xaf;" horiz-adv-x="333" 
d="M344 581h-353v88h353v-88z" />
    <glyph glyph-name="degree" unicode="&#xb0;" horiz-adv-x="400" 
d="M200 389c24.667 0 44.834 8.33301 60.501 25s23.5 37.667 23.5 63s-7.83301 46.333 -23.5 63s-35.834 25 -60.501 25s-44.834 -8.33301 -60.501 -25s-23.5 -37.667 -23.5 -63s7.83301 -46.333 23.5 -63s35.834 -25 60.501 -25zM200 620c40 0 73.833 -13.833 101.5 -41.5
s41.5 -61.5 41.5 -101.5s-13.833 -73.833 -41.5 -101.5s-61.5 -41.5 -101.5 -41.5s-73.833 13.833 -101.5 41.5s-41.5 61.5 -41.5 101.5s13.833 73.833 41.5 101.5s61.5 41.5 101.5 41.5z" />
    <glyph glyph-name="plusminus" unicode="&#xb1;" horiz-adv-x="600" 
d="M244 363v105h111v-105h178v-111h-178v-104h-111v104h-178v111h178zM66 0v111h467v-111h-467z" />
    <glyph glyph-name="twosuperior" unicode="&#xb2;" horiz-adv-x="366" 
d="M64 248h-57.001v25c0 28 7.5 52 22.5 72s33.167 35.833 54.5 47.5s42.833 22.5 64.5 32.5s40 21.833 55 35.5s22.5 29.5 22.5 47.5c0 20 -7.66699 35.667 -23 47s-34.333 17 -57 17c-17.333 0 -33.833 -4.16699 -49.5 -12.5s-25.5 -20.166 -29.5 -35.499
c6.66699 3.33301 15 5 25 5c12 0 22.167 -4.5 30.5 -13.5s12.5 -18.833 12.5 -29.5c0 -32 -20.333 -48 -61 -48c-19.333 0 -35.333 5.83301 -48 17.5s-19 26.834 -19 45.501c0 39.333 17.5 69 52.5 89s75.5 30 121.5 30c45.333 0 84 -9.83301 116 -29.5s48 -49.5 48 -89.5
c0 -26.667 -7.16699 -48.5 -21.5 -65.5s-32.666 -29.333 -54.999 -37s-45.166 -14.334 -68.499 -20.001s-46.333 -13.334 -69 -23.001s-39.334 -22.167 -50.001 -37.5l1 -2c22.667 15.333 50.334 23 83.001 23c14.667 0 32.667 -2 54 -6c28.667 -5.33301 46 -8 52 -8
c22 0 33 16.333 33 49h55v-29c0 -70.667 -38 -106 -114 -106c-22.667 0 -49 5.66699 -79 17c-32.667 11.333 -54.334 17 -65.001 17c-22.667 0 -35 -8.33301 -37 -25z" />
    <glyph glyph-name="threesuperior" unicode="&#xb3;" horiz-adv-x="366" 
d="M158 414v47.999c51.333 0 77 17.333 77 52c0 20 -7.33301 34.667 -22 44s-33.334 14 -56.001 14c-28.667 0 -50.667 -7.66699 -66 -23c36 0 54 -13.333 54 -40c0 -13.333 -5.83301 -23.833 -17.5 -31.5s-25.5 -11.5 -41.5 -11.5c-16.667 0 -30.334 5.16699 -41.001 15.5
s-16 23.166 -16 38.499c0 34.667 15.833 60 47.5 76s68.167 24 109.5 24c18.667 0 36.834 -1.33301 54.501 -4s35.667 -7.33398 54 -14.001s33 -16.667 44 -30s16.5 -29.333 16.5 -48c0 -43.333 -29 -69.666 -87 -78.999v-2c32.667 -7.33301 57.334 -17.666 74.001 -30.999
s25 -34 25 -62c0 -41.333 -15.667 -70.166 -47 -86.499s-74.666 -24.5 -129.999 -24.5c-113.333 0 -170 33 -170 99c0 40.667 21.667 61 65 61c15.333 0 28.166 -4.33301 38.499 -13s15.5 -20 15.5 -34c0 -28.667 -18 -43 -54 -43c5.33301 -6 15 -11.167 29 -15.5
s26 -6.5 36 -6.5c64.667 0 97 22.333 97 67c0 24 -7.66699 40 -23 48s-37.333 12 -66 12z" />
    <glyph glyph-name="acute" unicode="&#xb4;" horiz-adv-x="333" 
d="M153 543l-71.999 -0.00195312l85 114c1.33301 1.33301 6 7.5 14 18.5s13.167 18 15.5 21s7.16602 8.33301 14.499 16s13.5 12.834 18.5 15.501s11.667 5.33398 20 8.00098s16.833 4 25.5 4c15.333 0 28.833 -5 40.5 -15s17.5 -22.667 17.5 -38
c0 -12.667 -3.33301 -24 -10 -34s-13.167 -17.167 -19.5 -21.5s-16.833 -10.833 -31.5 -19.5z" />
    <glyph glyph-name="paragraph" unicode="&#xb6;" horiz-adv-x="620" 
d="M568 663v-33.001c-18 0 -33.667 -5.5 -47 -16.5s-20 -28.833 -20 -53.5v-713h-114v783h-55v-783h-114v427c-44 0 -79.5 18.167 -106.5 54.5s-40.5 82.833 -40.5 139.5s13.5 103.334 40.5 140.001s62.5 55 106.5 55h350z" />
    <glyph glyph-name="periodcentered" unicode="&#xb7;" horiz-adv-x="305" 
d="M231 234c0 -22 -7.83301 -40.667 -23.5 -56s-34.167 -23 -55.5 -23c-22 0 -40.5 7.66699 -55.5 23s-22.5 34 -22.5 56c0 21.333 7.5 39.666 22.5 54.999s33.5 23 55.5 23c21.333 0 39.833 -7.66699 55.5 -23s23.5 -33.666 23.5 -54.999z" />
    <glyph glyph-name="cedilla" unicode="&#xb8;" horiz-adv-x="333" 
d="M42 -205l17.001 43.999c26 -8.66699 49.667 -13 71 -13c28 0 42 12 42 36c0 10 -3.16699 18.5 -9.5 25.5s-14.5 10.5 -24.5 10.5c-7.33301 0 -17 -2 -29 -6l-16 9l46 99h46l-28 -62c11.333 3.33301 25.333 5 42 5c23.333 0 43.666 -6.16699 60.999 -18.5
s26 -30.166 26 -53.499c0 -18.667 -5 -34.5 -15 -47.5s-23.167 -22.667 -39.5 -29s-32.5 -10.833 -48.5 -13.5s-32.667 -4 -50 -4c-30 0 -60.333 6 -91 18z" />
    <glyph glyph-name="onesuperior" unicode="&#xb9;" horiz-adv-x="366" 
d="M155 611h84v-284c0 -19.333 9.66699 -29 29 -29h40v-50h-253v50h43c19.333 0 29 9.66699 29 29v186h-70v50h16c40 0 67.333 16 82 48z" />
    <glyph glyph-name="ordmasculine" unicode="&#xba;" horiz-adv-x="334" 
d="M168 620c50 0 90.333 -13.333 121 -40s46 -63.334 46 -110.001s-15.333 -83.167 -46 -109.5s-71 -39.5 -121 -39.5s-90.5 13.167 -121.5 39.5s-46.5 62.833 -46.5 109.5s15.5 83.334 46.5 110.001s71.5 40 121.5 40zM168 572c-19.333 0 -33 -8 -41 -24s-12 -42 -12 -78
c0 -35.333 4 -61 12 -77s21.667 -24 41 -24s32.833 7.83301 40.5 23.5s11.5 41.5 11.5 77.5s-3.83301 62 -11.5 78s-21.167 24 -40.5 24z" />
    <glyph glyph-name="guillemotright" unicode="&#xbb;" horiz-adv-x="500" 
d="M342 65l-86 0.00195312l16 37c1.33301 2.66699 5.33301 11.167 12 25.5l17.5 38.5c5 11.333 9.83301 23.666 14.5 36.999s7 23.666 7 30.999s-2.33301 17.666 -7 30.999s-9.5 25.666 -14.5 36.999l-17.5 38.5c-6.66699 14.333 -10.667 22.833 -12 25.5l-16 37h86l42 -61
c1.33301 -2 6.33301 -8.66699 15 -20s16 -21.333 22 -30s11.833 -18.667 17.5 -30s8.5 -20.666 8.5 -27.999s-2.83301 -16.666 -8.5 -27.999s-11.5 -21.333 -17.5 -30s-13.333 -18.667 -22 -30s-13.667 -18 -15 -20zM138 65.002l-86 0.00195312l16 37
c1.33301 2.66699 5.33301 11.167 12 25.5l17.5 38.5c5 11.333 9.83301 23.666 14.5 36.999s7 23.666 7 30.999s-2.33301 17.666 -7 30.999s-9.5 25.666 -14.5 36.999l-17.5 38.5c-6.66699 14.333 -10.667 22.833 -12 25.5l-16 37h86l42 -61
c1.33301 -2 6.33301 -8.66699 15 -20s16 -21.333 22 -30s11.833 -18.667 17.5 -30s8.5 -20.666 8.5 -27.999s-2.83301 -16.666 -8.5 -27.999s-11.5 -21.333 -17.5 -30s-13.333 -18.667 -22 -30s-13.667 -18 -15 -20z" />
    <glyph glyph-name="onequarter" unicode="&#xbc;" horiz-adv-x="916" 
d="M225 -15l437 635h60l-435 -635h-62zM528 110v57l203 196h102v-203h63v-50h-63v-31c0 -19.333 9.33301 -29 28 -29h35v-50h-247v50h43c18.667 0 28 9.66699 28 29v31h-192zM602 160h116v115zM180 611h84v-284c0 -19.333 9.66699 -29 29 -29h40v-50h-253v50h43
c19.333 0 29 9.66699 29 29v186h-70v50h16c40 0 67.333 16 82 48z" />
    <glyph glyph-name="onehalf" unicode="&#xbd;" horiz-adv-x="916" 
d="M199 -15l437 635h60l-435 -635h-62zM180 611h84v-284c0 -19.333 9.66699 -29 29 -29h40v-50h-253v50h43c19.333 0 29 9.66699 29 29v186h-70v50h16c40 0 67.333 16 82 48zM585 0h-57v25c0 28 7.5 52 22.5 72s33.333 35.833 55 47.5s43.167 22.5 64.5 32.5
s39.5 21.833 54.5 35.5s22.5 29.5 22.5 47.5c0 20 -7.66699 35.667 -23 47s-34.333 17 -57 17c-17.333 0 -33.833 -4.16699 -49.5 -12.5s-25.5 -20.166 -29.5 -35.499c6.66699 3.33301 15 5 25 5c12 0 22.167 -4.5 30.5 -13.5s12.5 -18.833 12.5 -29.5
c0 -32 -20.333 -48 -61 -48c-19.333 0 -35.333 5.83301 -48 17.5s-19 26.834 -19 45.501c0 39.333 17.5 69 52.5 89s75.5 30 121.5 30c45.333 0 84 -9.83301 116 -29.5s48 -49.5 48 -89.5c0 -26.667 -7.16699 -48.5 -21.5 -65.5s-32.666 -29.333 -54.999 -37
s-45.166 -14.334 -68.499 -20.001s-46.333 -13.334 -69 -23.001s-39.334 -22.167 -50.001 -37.5l1 -2c23.333 15.333 51 23 83 23c14.667 0 32.667 -2 54 -6c28.667 -5.33301 46 -8 52 -8c22 0 33 16.333 33 49h55v-29c0 -70.667 -38 -106 -114 -106
c-22.667 0 -49 5.66699 -79 17c-32.667 11.333 -54.334 17 -65.001 17c-22.667 0 -35 -8.33301 -37 -25z" />
    <glyph glyph-name="threequarters" unicode="&#xbe;" horiz-adv-x="916" 
d="M237 -15l437 635h60l-435 -635h-62zM523 110v57l203 196h102v-203h63v-50h-63v-31c0 -19.333 9.33301 -29 28 -29h35v-50h-247v50h43c18.667 0 28 9.66699 28 29v31h-192zM597 160h116v115zM165 414v47.999c51.333 0 77 17.333 77 52c0 20 -7.33301 34.667 -22 44
s-33.334 14 -56.001 14c-28.667 0 -50.667 -7.66699 -66 -23c36 0 54 -13.333 54 -40c0 -13.333 -5.83301 -23.833 -17.5 -31.5s-25.5 -11.5 -41.5 -11.5c-16.667 0 -30.334 5.16699 -41.001 15.5s-16 23.166 -16 38.499c0 34.667 15.833 60 47.5 76s68.167 24 109.5 24
c18.667 0 36.834 -1.33301 54.501 -4s35.667 -7.33398 54 -14.001s33 -16.667 44 -30s16.5 -29.333 16.5 -48c0 -43.333 -29 -69.666 -87 -78.999v-2c32.667 -7.33301 57.334 -17.666 74.001 -30.999s25 -34 25 -62c0 -41.333 -15.667 -70.166 -47 -86.499
s-74.666 -24.5 -129.999 -24.5c-113.333 0 -170 33 -170 99c0 40.667 21.667 61 65 61c15.333 0 28.166 -4.33301 38.499 -13s15.5 -20 15.5 -34c0 -28.667 -18 -43 -54 -43c5.33301 -6 15 -11.167 29 -15.5s26 -6.5 36 -6.5c64.667 0 97 22.333 97 67
c0 24 -7.66699 40 -23 48s-37.333 12 -66 12z" />
    <glyph glyph-name="questiondown" unicode="&#xbf;" horiz-adv-x="556" 
d="M255 264l99.0029 0.00390625c-1.33301 -32.667 -4.33301 -56.334 -9 -71.001c-6.66699 -20.667 -20.334 -43.167 -41.001 -67.5s-38.667 -48.833 -54 -73.5s-23 -51.334 -23 -80.001c0 -28 10.667 -49.833 32 -65.5s46.333 -23.5 75 -23.5c28 0 51.833 7.16699 71.5 21.5
s31.834 34.833 36.501 61.5c-14.667 -7.33301 -29.334 -11 -44.001 -11c-20.667 0 -37.5 7.16699 -50.5 21.5s-19.5 31.833 -19.5 52.5c0 26 8 45.833 24 59.5s37 20.5 63 20.5c33.333 0 58.833 -11.667 76.5 -35s26.5 -52.333 26.5 -87
c0 -60 -22.833 -108.167 -68.5 -144.5s-99.167 -54.5 -160.5 -54.5c-26 0 -52.333 3.5 -79 10.5s-52.5 17.5 -77.5 31.5s-45.333 33.333 -61 58s-23.5 53 -23.5 85c0 58.667 32.667 112 98 160c5.33301 4 15.166 10.667 29.499 20s24.666 16.666 30.999 21.999
s13.833 12.666 22.5 21.999s15 19.333 19 30s6.33301 23 7 37zM305.003 318.004c-22.667 0 -42.334 8.33301 -59.001 25s-25 36.334 -25 59.001s8.33301 42.167 25 58.5s36.334 24.5 59.001 24.5s42.167 -8.16699 58.5 -24.5s24.5 -35.833 24.5 -58.5
s-8.16699 -42.334 -24.5 -59.001s-35.833 -25 -58.5 -25z" />
    <glyph glyph-name="Agrave" unicode="&#xc0;" horiz-adv-x="778" 
d="M282 663h200.002l167 -500c10 -30 19.667 -50 29 -60s22.666 -15 39.999 -15h34v-88h-365v88h30c36.667 0 55 5 55 15c0 11.333 -1.66699 23.333 -5 36l-21 72h-204l-12 -40c-10 -32 -15 -53.333 -15 -64c0 -12.667 20.667 -19 62 -19h29v-88h-294v88h34
c17.333 0 30.666 5 39.999 15s19 30 29 60zM342.002 514l-71 -215h145l-72 215h-2zM464.002 716l-71.999 0.00195312l-118 69c-14.667 8.66699 -25.167 15.167 -31.5 19.5s-12.833 11.5 -19.5 21.5s-10 21.333 -10 34c0 15.333 5.83301 28 17.5 38s25.167 15 40.5 15
c8.66699 0 17.167 -1.33301 25.5 -4s15 -5.33398 20 -8.00098s11.167 -7.83398 18.5 -15.501s12.166 -13 14.499 -16s7.5 -10 15.5 -21s12.667 -17.167 14 -18.5z" />
    <glyph glyph-name="Aacute" unicode="&#xc1;" horiz-adv-x="778" 
d="M282 663h200.002l167 -500c10 -30 19.667 -50 29 -60s22.666 -15 39.999 -15h34v-88h-365v88h30c36.667 0 55 5 55 15c0 11.333 -1.66699 23.333 -5 36l-21 72h-204l-12 -40c-10 -32 -15 -53.333 -15 -64c0 -12.667 20.667 -19 62 -19h29v-88h-294v88h34
c17.333 0 30.666 5 39.999 15s19 30 29 60zM342.002 514l-71 -215h145l-72 215h-2zM366.002 716l-71.999 -0.00195312l85 114c1.33301 1.33301 6 7.5 14 18.5s13.167 18 15.5 21s7.16602 8.33301 14.499 16s13.5 12.834 18.5 15.501s11.667 5.33398 20 8.00098
s16.833 4 25.5 4c15.333 0 28.833 -5 40.5 -15s17.5 -22.667 17.5 -38c0 -12.667 -3.33301 -24 -10 -34s-13.167 -17.167 -19.5 -21.5s-16.833 -10.833 -31.5 -19.5z" />
    <glyph glyph-name="Acircumflex" unicode="&#xc2;" horiz-adv-x="778" 
d="M282 663h200.002l167 -500c10 -30 19.667 -50 29 -60s22.666 -15 39.999 -15h34v-88h-365v88h30c36.667 0 55 5 55 15c0 11.333 -1.66699 23.333 -5 36l-21 72h-204l-12 -40c-10 -32 -15 -53.333 -15 -64c0 -12.667 20.667 -19 62 -19h29v-88h-294v88h34
c17.333 0 30.666 5 39.999 15s19 30 29 60zM342.002 514l-71 -215h145l-72 215h-2zM380.002 808l-107 -92h-78l122 180h125l123 -180h-79z" />
    <glyph glyph-name="Atilde" unicode="&#xc3;" horiz-adv-x="778" 
d="M282 663h200.002l167 -500c10 -30 19.667 -50 29 -60s22.666 -15 39.999 -15h34v-88h-365v88h30c36.667 0 55 5 55 15c0 11.333 -1.66699 23.333 -5 36l-21 72h-204l-12 -40c-10 -32 -15 -53.333 -15 -64c0 -12.667 20.667 -19 62 -19h29v-88h-294v88h34
c17.333 0 30.666 5 39.999 15s19 30 29 60zM342.002 514l-71 -215h145l-72 215h-2zM524.002 877h54.999c-8 -39.333 -22.167 -73.5 -42.5 -102.5s-48.166 -43.5 -83.499 -43.5c-28.667 0 -61.667 9 -99 27c-40 17.333 -64.333 26 -73 26c-24.667 0 -40.334 -16 -47.001 -48
h-52c4 42 17.333 76.667 40 104s53.667 41 93 41c18.667 0 47.334 -8.66699 86.001 -26s63.667 -26 75 -26c24 0 40 16 48 48z" />
    <glyph glyph-name="Adieresis" unicode="&#xc4;" horiz-adv-x="778" 
d="M282 663h200.002l167 -500c10 -30 19.667 -50 29 -60s22.666 -15 39.999 -15h34v-88h-365v88h30c36.667 0 55 5 55 15c0 11.333 -1.66699 23.333 -5 36l-21 72h-204l-12 -40c-10 -32 -15 -53.333 -15 -64c0 -12.667 20.667 -19 62 -19h29v-88h-294v88h34
c17.333 0 30.666 5 39.999 15s19 30 29 60zM342.002 514l-71 -215h145l-72 215h-2zM270.002 878c22 0 40.667 -7.83301 56 -23.5s23 -34.167 23 -55.5c0 -22 -7.66699 -40.667 -23 -56s-34 -23 -56 -23s-40.667 7.66699 -56 23s-23 34 -23 56
c0 21.333 7.66699 39.833 23 55.5s34 23.5 56 23.5zM490.002 878c22 0 40.667 -7.83301 56 -23.5s23 -34.167 23 -55.5c0 -22 -7.66699 -40.667 -23 -56s-34 -23 -56 -23s-40.667 7.66699 -56 23s-23 34 -23 56c0 21.333 7.66699 39.833 23 55.5s34 23.5 56 23.5z" />
    <glyph glyph-name="Aring" unicode="&#xc5;" horiz-adv-x="778" 
d="M282 663h200.002l167 -500c10 -30 19.667 -50 29 -60s22.666 -15 39.999 -15h34v-88h-365v88h30c36.667 0 55 5 55 15c0 11.333 -1.66699 23.333 -5 36l-21 72h-204l-12 -40c-10 -32 -15 -53.333 -15 -64c0 -12.667 20.667 -19 62 -19h29v-88h-294v88h34
c17.333 0 30.666 5 39.999 15s19 30 29 60zM342.002 514l-71 -215h145l-72 215h-2zM379.002 940c31.333 0 58 -11 80 -33s33 -48.333 33 -79s-11 -57 -33 -79s-48.667 -33 -80 -33s-58 11 -80 33s-33 48.333 -33 79s11 57 33 79s48.667 33 80 33zM379.002 880
c-14.667 0 -27.167 -5.16699 -37.5 -15.5s-15.5 -22.5 -15.5 -36.5c0 -14.667 5.16699 -27 15.5 -37s22.833 -15 37.5 -15c14 0 26.333 5.16699 37 15.5s16 22.5 16 36.5s-5.33301 26.167 -16 36.5s-23 15.5 -37 15.5z" />
    <glyph glyph-name="AE" unicode="&#xc6;" horiz-adv-x="1000" 
d="M395 575l-116 -240h141v240h-25zM420 247h-183.001l-63 -136c-2 -5.33301 -3 -9.66602 -3 -12.999c0 -6.66699 7 -10 21 -10h52v-88h-253v88c16 0 31.167 5 45.5 15s25.166 22.333 32.499 37l193 390c10 21.333 15 33.666 15 36.999c0 5.33301 -10.667 8 -32 8h-47v88
h766v-254h-93c0 46.667 -4.66699 82.334 -14 107.001s-21.666 40.667 -36.999 48s-36.333 11 -63 11h-160v-191h22c28 0 48.167 5.33301 60.5 16s18.5 28 18.5 52v39h83v-302h-83v39c0 22.667 -5.66699 39.667 -17 51s-32 17 -62 17h-22v-208h117
c44.667 0 77.334 4.16699 98.001 12.5s35.667 25.166 45 50.499s14 65.333 14 120h93v-271h-632v88h49c26 0 39 13.333 39 40v119z" />
    <glyph glyph-name="Ccedilla" unicode="&#xc7;" horiz-adv-x="722" 
d="M566 616l19.999 56.001h90v-272h-93c0 54.667 -14.667 100 -44 136s-71 54 -125 54c-114 0 -171 -86 -171 -258c0 -85.333 13.333 -149.833 40 -193.5s73 -65.5 139 -65.5c50 0 89.333 17.667 118 53s43 77.666 43 126.999h93
c-1.33301 -90.667 -27.666 -158.834 -78.999 -204.501s-124 -68.5 -218 -68.5c-106.667 0 -192.167 30.167 -256.5 90.5s-96.5 147.5 -96.5 261.5c0 104.667 32 189.334 96 254.001s145.333 97 244 97c28.667 0 64.167 -6.33301 106.5 -19s73.5 -28.667 93.5 -48z
M282.999 -204.999l17.001 43.999c26 -8.66699 49.667 -13 71 -13c28 0 42 12 42 36c0 10 -3.16699 18.5 -9.5 25.5s-14.5 10.5 -24.5 10.5c-7.33301 0 -17 -2 -29 -6l-16 9l46 99h46l-28 -62c11.333 3.33301 25.333 5 42 5c23.333 0 43.666 -6.16699 60.999 -18.5
s26 -30.166 26 -53.499c0 -18.667 -5 -34.5 -15 -47.5s-23.167 -22.667 -39.5 -29s-32.5 -10.833 -48.5 -13.5s-32.667 -4 -50 -4c-30 0 -60.333 6 -91 18z" />
    <glyph glyph-name="Egrave" unicode="&#xc8;" horiz-adv-x="722" 
d="M118 128v406.999c0 26.667 -13 40 -39 40h-62v88h665v-254h-93c0 68.667 -13.5 113.5 -40.5 134.5s-74.833 31.5 -143.5 31.5h-99v-191h31c28.667 0 49 6.33301 61 19s18 34.667 18 66v22h83v-302h-83v24c0 21.333 -4.16699 40.5 -12.5 57.5s-20.833 25.5 -37.5 25.5h-60
v-208h122c28.667 0 52 2 70 6s34.5 12.333 49.5 25s25.667 31.334 32 56.001s9.5 56.667 9.5 96h93v-271h-664v88h61c26 0 39 13.333 39 40zM455 715.999l-71.999 0.00195312l-118 69c-14.667 8.66699 -25.167 15.167 -31.5 19.5s-12.833 11.5 -19.5 21.5s-10 21.333 -10 34
c0 15.333 5.83301 28 17.5 38s25.167 15 40.5 15c8.66699 0 17.167 -1.33301 25.5 -4s15 -5.33398 20 -8.00098s11.167 -7.83398 18.5 -15.501s12.166 -13 14.499 -16s7.5 -10 15.5 -21s12.667 -17.167 14 -18.5z" />
    <glyph glyph-name="Eacute" unicode="&#xc9;" horiz-adv-x="722" 
d="M118 128v406.999c0 26.667 -13 40 -39 40h-62v88h665v-254h-93c0 68.667 -13.5 113.5 -40.5 134.5s-74.833 31.5 -143.5 31.5h-99v-191h31c28.667 0 49 6.33301 61 19s18 34.667 18 66v22h83v-302h-83v24c0 21.333 -4.16699 40.5 -12.5 57.5s-20.833 25.5 -37.5 25.5h-60
v-208h122c28.667 0 52 2 70 6s34.5 12.333 49.5 25s25.667 31.334 32 56.001s9.5 56.667 9.5 96h93v-271h-664v88h61c26 0 39 13.333 39 40zM357 715.999l-71.999 -0.00195312l85 114c1.33301 1.33301 6 7.5 14 18.5s13.167 18 15.5 21s7.16602 8.33301 14.499 16
s13.5 12.834 18.5 15.501s11.667 5.33398 20 8.00098s16.833 4 25.5 4c15.333 0 28.833 -5 40.5 -15s17.5 -22.667 17.5 -38c0 -12.667 -3.33301 -24 -10 -34s-13.167 -17.167 -19.5 -21.5s-16.833 -10.833 -31.5 -19.5z" />
    <glyph glyph-name="Ecircumflex" unicode="&#xca;" horiz-adv-x="722" 
d="M118 128v406.999c0 26.667 -13 40 -39 40h-62v88h665v-254h-93c0 68.667 -13.5 113.5 -40.5 134.5s-74.833 31.5 -143.5 31.5h-99v-191h31c28.667 0 49 6.33301 61 19s18 34.667 18 66v22h83v-302h-83v24c0 21.333 -4.16699 40.5 -12.5 57.5s-20.833 25.5 -37.5 25.5h-60
v-208h122c28.667 0 52 2 70 6s34.5 12.333 49.5 25s25.667 31.334 32 56.001s9.5 56.667 9.5 96h93v-271h-664v88h61c26 0 39 13.333 39 40zM371 807.999l-107 -92h-78l122 180h125l123 -180h-79z" />
    <glyph glyph-name="Edieresis" unicode="&#xcb;" horiz-adv-x="722" 
d="M118 128v406.999c0 26.667 -13 40 -39 40h-62v88h665v-254h-93c0 68.667 -13.5 113.5 -40.5 134.5s-74.833 31.5 -143.5 31.5h-99v-191h31c28.667 0 49 6.33301 61 19s18 34.667 18 66v22h83v-302h-83v24c0 21.333 -4.16699 40.5 -12.5 57.5s-20.833 25.5 -37.5 25.5h-60
v-208h122c28.667 0 52 2 70 6s34.5 12.333 49.5 25s25.667 31.334 32 56.001s9.5 56.667 9.5 96h93v-271h-664v88h61c26 0 39 13.333 39 40zM261 877.999c22 0 40.667 -7.83301 56 -23.5s23 -34.167 23 -55.5c0 -22 -7.66699 -40.667 -23 -56s-34 -23 -56 -23
s-40.667 7.66699 -56 23s-23 34 -23 56c0 21.333 7.66699 39.833 23 55.5s34 23.5 56 23.5zM481 877.999c22 0 40.667 -7.83301 56 -23.5s23 -34.167 23 -55.5c0 -22 -7.66699 -40.667 -23 -56s-34 -23 -56 -23s-40.667 7.66699 -56 23s-23 34 -23 56
c0 21.333 7.66699 39.833 23 55.5s34 23.5 56 23.5z" />
    <glyph glyph-name="Igrave" unicode="&#xcc;" horiz-adv-x="444" 
d="M417 663v-88h-62c-14 0 -24 -2.5 -30 -7.5s-9 -15.833 -9 -32.5v-407c0 -26.667 13 -40 39 -40h61v-88h-388v88h61c26 0 39 13.333 39 40v421c0 17.333 -13 26 -39 26h-62v88h390zM298 716l-71.999 0.00195312l-118 69c-14.667 8.66699 -25.167 15.167 -31.5 19.5
s-12.833 11.5 -19.5 21.5s-10 21.333 -10 34c0 15.333 5.83301 28 17.5 38s25.167 15 40.5 15c8.66699 0 17.167 -1.33301 25.5 -4s15 -5.33398 20 -8.00098s11.167 -7.83398 18.5 -15.501s12.166 -13 14.499 -16s7.5 -10 15.5 -21s12.667 -17.167 14 -18.5z" />
    <glyph glyph-name="Iacute" unicode="&#xcd;" horiz-adv-x="444" 
d="M417 663v-88h-62c-14 0 -24 -2.5 -30 -7.5s-9 -15.833 -9 -32.5v-407c0 -26.667 13 -40 39 -40h61v-88h-388v88h61c26 0 39 13.333 39 40v421c0 17.333 -13 26 -39 26h-62v88h390zM200 716l-71.999 -0.00195312l85 114c1.33301 1.33301 6 7.5 14 18.5s13.167 18 15.5 21
s7.16602 8.33301 14.499 16s13.5 12.834 18.5 15.501s11.667 5.33398 20 8.00098s16.833 4 25.5 4c15.333 0 28.833 -5 40.5 -15s17.5 -22.667 17.5 -38c0 -12.667 -3.33301 -24 -10 -34s-13.167 -17.167 -19.5 -21.5s-16.833 -10.833 -31.5 -19.5z" />
    <glyph glyph-name="Icircumflex" unicode="&#xce;" horiz-adv-x="444" 
d="M417 663v-88h-62c-14 0 -24 -2.5 -30 -7.5s-9 -15.833 -9 -32.5v-407c0 -26.667 13 -40 39 -40h61v-88h-388v88h61c26 0 39 13.333 39 40v421c0 17.333 -13 26 -39 26h-62v88h390zM214 808l-107 -92h-78l122 180h125l123 -180h-79z" />
    <glyph glyph-name="Idieresis" unicode="&#xcf;" horiz-adv-x="444" 
d="M417 663v-88h-62c-14 0 -24 -2.5 -30 -7.5s-9 -15.833 -9 -32.5v-407c0 -26.667 13 -40 39 -40h61v-88h-388v88h61c26 0 39 13.333 39 40v421c0 17.333 -13 26 -39 26h-62v88h390zM104 878c22 0 40.667 -7.83301 56 -23.5s23 -34.167 23 -55.5
c0 -22 -7.66699 -40.667 -23 -56s-34 -23 -56 -23s-40.667 7.66699 -56 23s-23 34 -23 56c0 21.333 7.66699 39.833 23 55.5s34 23.5 56 23.5zM324 878c22 0 40.667 -7.83301 56 -23.5s23 -34.167 23 -55.5c0 -22 -7.66699 -40.667 -23 -56s-34 -23 -56 -23
s-40.667 7.66699 -56 23s-23 34 -23 56c0 21.333 7.66699 39.833 23 55.5s34 23.5 56 23.5z" />
    <glyph glyph-name="Eth" unicode="&#xd0;" horiz-adv-x="778" 
d="M11 300v88h99v147c0 26.667 -13 40 -39 40h-60v88h363c118 0 209.833 -27.5 275.5 -82.5s98.5 -139.833 98.5 -254.5c0 -110.667 -32.833 -192.667 -98.5 -246s-159.5 -80 -281.5 -80h-356v88h59c26 0 39 13.333 39 40v172h-99zM416 388v-87.999h-118v-212h46
c69.333 0 118.666 16.833 147.999 50.5s44 98.167 44 193.5s-14.667 159.666 -44 192.999s-78.666 50 -147.999 50h-46v-187h118z" />
    <glyph glyph-name="Ntilde" unicode="&#xd1;" horiz-adv-x="833" 
d="M343 663l259 -457h2v329c0 26.667 -13 40 -39 40h-61v88h308v-88h-60c-26 0 -39 -13.333 -39 -40v-535h-202l-278 493h-2v-365c0 -26.667 13 -40 39 -40h61v-88h-309v88h61c26 0 39 13.333 39 40v407c0 26.667 -13 40 -39 40h-62v88h322zM561 877h54.999
c-8 -39.333 -22.167 -73.5 -42.5 -102.5s-48.166 -43.5 -83.499 -43.5c-28.667 0 -61.667 9 -99 27c-40 17.333 -64.333 26 -73 26c-24.667 0 -40.334 -16 -47.001 -48h-52c4 42 17.333 76.667 40 104s53.667 41 93 41c18.667 0 47.334 -8.66699 86.001 -26
s63.667 -26 75 -26c24 0 40 16 48 48z" />
    <glyph glyph-name="Ograve" unicode="&#xd2;" horiz-adv-x="778" 
d="M389 590c-50 0 -86.833 -21.167 -110.5 -63.5s-35.5 -107.5 -35.5 -195.5s11.833 -153 35.5 -195s60.5 -63 110.5 -63s86.833 21 110.5 63s35.5 107 35.5 195s-11.833 153.167 -35.5 195.5s-60.5 63.5 -110.5 63.5zM389 683c110.667 0 198.834 -31.667 264.501 -95
s98.5 -149 98.5 -257s-32.833 -193.5 -98.5 -256.5s-153.834 -94.5 -264.501 -94.5s-198.834 31.5 -264.501 94.5s-98.5 148.5 -98.5 256.5s32.833 193.667 98.5 257s153.834 95 264.501 95zM474 716l-71.999 0.00195312l-118 69c-14.667 8.66699 -25.167 15.167 -31.5 19.5
s-12.833 11.5 -19.5 21.5s-10 21.333 -10 34c0 15.333 5.83301 28 17.5 38s25.167 15 40.5 15c8.66699 0 17.167 -1.33301 25.5 -4s15 -5.33398 20 -8.00098s11.167 -7.83398 18.5 -15.501s12.166 -13 14.499 -16s7.5 -10 15.5 -21s12.667 -17.167 14 -18.5z" />
    <glyph glyph-name="Oacute" unicode="&#xd3;" horiz-adv-x="778" 
d="M389 590c-50 0 -86.833 -21.167 -110.5 -63.5s-35.5 -107.5 -35.5 -195.5s11.833 -153 35.5 -195s60.5 -63 110.5 -63s86.833 21 110.5 63s35.5 107 35.5 195s-11.833 153.167 -35.5 195.5s-60.5 63.5 -110.5 63.5zM389 683c110.667 0 198.834 -31.667 264.501 -95
s98.5 -149 98.5 -257s-32.833 -193.5 -98.5 -256.5s-153.834 -94.5 -264.501 -94.5s-198.834 31.5 -264.501 94.5s-98.5 148.5 -98.5 256.5s32.833 193.667 98.5 257s153.834 95 264.501 95zM376 716l-71.999 -0.00195312l85 114c1.33301 1.33301 6 7.5 14 18.5
s13.167 18 15.5 21s7.16602 8.33301 14.499 16s13.5 12.834 18.5 15.501s11.667 5.33398 20 8.00098s16.833 4 25.5 4c15.333 0 28.833 -5 40.5 -15s17.5 -22.667 17.5 -38c0 -12.667 -3.33301 -24 -10 -34s-13.167 -17.167 -19.5 -21.5s-16.833 -10.833 -31.5 -19.5z" />
    <glyph glyph-name="Ocircumflex" unicode="&#xd4;" horiz-adv-x="778" 
d="M389 590c-50 0 -86.833 -21.167 -110.5 -63.5s-35.5 -107.5 -35.5 -195.5s11.833 -153 35.5 -195s60.5 -63 110.5 -63s86.833 21 110.5 63s35.5 107 35.5 195s-11.833 153.167 -35.5 195.5s-60.5 63.5 -110.5 63.5zM389 683c110.667 0 198.834 -31.667 264.501 -95
s98.5 -149 98.5 -257s-32.833 -193.5 -98.5 -256.5s-153.834 -94.5 -264.501 -94.5s-198.834 31.5 -264.501 94.5s-98.5 148.5 -98.5 256.5s32.833 193.667 98.5 257s153.834 95 264.501 95zM390 808l-107 -92h-78l122 180h125l123 -180h-79z" />
    <glyph glyph-name="Otilde" unicode="&#xd5;" horiz-adv-x="778" 
d="M389 590c-50 0 -86.833 -21.167 -110.5 -63.5s-35.5 -107.5 -35.5 -195.5s11.833 -153 35.5 -195s60.5 -63 110.5 -63s86.833 21 110.5 63s35.5 107 35.5 195s-11.833 153.167 -35.5 195.5s-60.5 63.5 -110.5 63.5zM389 683c110.667 0 198.834 -31.667 264.501 -95
s98.5 -149 98.5 -257s-32.833 -193.5 -98.5 -256.5s-153.834 -94.5 -264.501 -94.5s-198.834 31.5 -264.501 94.5s-98.5 148.5 -98.5 256.5s32.833 193.667 98.5 257s153.834 95 264.501 95zM534 877h54.999c-8 -39.333 -22.167 -73.5 -42.5 -102.5
s-48.166 -43.5 -83.499 -43.5c-28.667 0 -61.667 9 -99 27c-40 17.333 -64.333 26 -73 26c-24.667 0 -40.334 -16 -47.001 -48h-52c4 42 17.333 76.667 40 104s53.667 41 93 41c18.667 0 47.334 -8.66699 86.001 -26s63.667 -26 75 -26c24 0 40 16 48 48z" />
    <glyph glyph-name="Odieresis" unicode="&#xd6;" horiz-adv-x="778" 
d="M389 590c-50 0 -86.833 -21.167 -110.5 -63.5s-35.5 -107.5 -35.5 -195.5s11.833 -153 35.5 -195s60.5 -63 110.5 -63s86.833 21 110.5 63s35.5 107 35.5 195s-11.833 153.167 -35.5 195.5s-60.5 63.5 -110.5 63.5zM389 683c110.667 0 198.834 -31.667 264.501 -95
s98.5 -149 98.5 -257s-32.833 -193.5 -98.5 -256.5s-153.834 -94.5 -264.501 -94.5s-198.834 31.5 -264.501 94.5s-98.5 148.5 -98.5 256.5s32.833 193.667 98.5 257s153.834 95 264.501 95zM280 878c22 0 40.667 -7.83301 56 -23.5s23 -34.167 23 -55.5
c0 -22 -7.66699 -40.667 -23 -56s-34 -23 -56 -23s-40.667 7.66699 -56 23s-23 34 -23 56c0 21.333 7.66699 39.833 23 55.5s34 23.5 56 23.5zM500 878c22 0 40.667 -7.83301 56 -23.5s23 -34.167 23 -55.5c0 -22 -7.66699 -40.667 -23 -56s-34 -23 -56 -23
s-40.667 7.66699 -56 23s-23 34 -23 56c0 21.333 7.66699 39.833 23 55.5s34 23.5 56 23.5z" />
    <glyph glyph-name="multiply" unicode="&#xd7;" horiz-adv-x="600" 
d="M225 234l-152 150l75 76l152 -150l151 149l76 -75l-152 -150l152 -150l-75 -75l-152 150l-152 -150l-75 75z" />
    <glyph glyph-name="Oslash" unicode="&#xd8;" horiz-adv-x="778" 
d="M248 243l261 261c-22 57.333 -62 86 -120 86c-50 0 -86.833 -21.167 -110.5 -63.5s-35.5 -107.5 -35.5 -195.5c0 -30 1.66699 -59.333 5 -88zM156 48l-79.999 -81.002l-54 50l81 81c-51.333 60.667 -77 138.334 -77 233.001c0 108 32.833 193.667 98.5 257
s153.834 95 264.501 95c91.333 0 168.333 -22.667 231 -68l77 77l52 -51l-75 -75c52 -61.333 78 -139.666 78 -234.999c0 -108 -32.833 -193.5 -98.5 -256.5s-153.834 -94.5 -264.501 -94.5c-94.667 0 -172.334 22.667 -233.001 68zM529.001 420.998l-261 -261
c22.667 -58 63 -87 121 -87c50 0 86.833 21 110.5 63s35.5 107 35.5 195c0 34 -2 64 -6 90z" />
    <glyph glyph-name="Ugrave" unicode="&#xd9;" horiz-adv-x="778" 
d="M15 575v88h390v-88h-62c-26 0 -39 -13.333 -39 -40v-353c0 -33.333 9.66699 -59.833 29 -79.5s48.333 -29.5 87 -29.5c55.333 0 91.833 12.667 109.5 38s26.5 71 26.5 137v287c0 26.667 -13 40 -39 40h-59v88h305v-88h-59c-26 0 -39 -13.333 -39 -40v-321
c0 -156 -88.333 -234 -265 -234c-92.667 0 -163.167 17.167 -211.5 51.5s-72.5 91.833 -72.5 172.5v331c0 26.667 -13 40 -39 40h-62zM479 716l-71.999 0.00195312l-118 69c-14.667 8.66699 -25.167 15.167 -31.5 19.5s-12.833 11.5 -19.5 21.5s-10 21.333 -10 34
c0 15.333 5.83301 28 17.5 38s25.167 15 40.5 15c8.66699 0 17.167 -1.33301 25.5 -4s15 -5.33398 20 -8.00098s11.167 -7.83398 18.5 -15.501s12.166 -13 14.499 -16s7.5 -10 15.5 -21s12.667 -17.167 14 -18.5z" />
    <glyph glyph-name="Uacute" unicode="&#xda;" horiz-adv-x="778" 
d="M15 575v88h390v-88h-62c-26 0 -39 -13.333 -39 -40v-353c0 -33.333 9.66699 -59.833 29 -79.5s48.333 -29.5 87 -29.5c55.333 0 91.833 12.667 109.5 38s26.5 71 26.5 137v287c0 26.667 -13 40 -39 40h-59v88h305v-88h-59c-26 0 -39 -13.333 -39 -40v-321
c0 -156 -88.333 -234 -265 -234c-92.667 0 -163.167 17.167 -211.5 51.5s-72.5 91.833 -72.5 172.5v331c0 26.667 -13 40 -39 40h-62zM381 716l-71.999 -0.00195312l85 114c1.33301 1.33301 6 7.5 14 18.5s13.167 18 15.5 21s7.16602 8.33301 14.499 16
s13.5 12.834 18.5 15.501s11.667 5.33398 20 8.00098s16.833 4 25.5 4c15.333 0 28.833 -5 40.5 -15s17.5 -22.667 17.5 -38c0 -12.667 -3.33301 -24 -10 -34s-13.167 -17.167 -19.5 -21.5s-16.833 -10.833 -31.5 -19.5z" />
    <glyph glyph-name="Ucircumflex" unicode="&#xdb;" horiz-adv-x="778" 
d="M15 575v88h390v-88h-62c-26 0 -39 -13.333 -39 -40v-353c0 -33.333 9.66699 -59.833 29 -79.5s48.333 -29.5 87 -29.5c55.333 0 91.833 12.667 109.5 38s26.5 71 26.5 137v287c0 26.667 -13 40 -39 40h-59v88h305v-88h-59c-26 0 -39 -13.333 -39 -40v-321
c0 -156 -88.333 -234 -265 -234c-92.667 0 -163.167 17.167 -211.5 51.5s-72.5 91.833 -72.5 172.5v331c0 26.667 -13 40 -39 40h-62zM395 808l-107 -92h-78l122 180h125l123 -180h-79z" />
    <glyph glyph-name="Udieresis" unicode="&#xdc;" horiz-adv-x="778" 
d="M15 575v88h390v-88h-62c-26 0 -39 -13.333 -39 -40v-353c0 -33.333 9.66699 -59.833 29 -79.5s48.333 -29.5 87 -29.5c55.333 0 91.833 12.667 109.5 38s26.5 71 26.5 137v287c0 26.667 -13 40 -39 40h-59v88h305v-88h-59c-26 0 -39 -13.333 -39 -40v-321
c0 -156 -88.333 -234 -265 -234c-92.667 0 -163.167 17.167 -211.5 51.5s-72.5 91.833 -72.5 172.5v331c0 26.667 -13 40 -39 40h-62zM285 878c22 0 40.667 -7.83301 56 -23.5s23 -34.167 23 -55.5c0 -22 -7.66699 -40.667 -23 -56s-34 -23 -56 -23s-40.667 7.66699 -56 23
s-23 34 -23 56c0 21.333 7.66699 39.833 23 55.5s34 23.5 56 23.5zM505 878c22 0 40.667 -7.83301 56 -23.5s23 -34.167 23 -55.5c0 -22 -7.66699 -40.667 -23 -56s-34 -23 -56 -23s-40.667 7.66699 -56 23s-23 34 -23 56c0 21.333 7.66699 39.833 23 55.5s34 23.5 56 23.5z
" />
    <glyph glyph-name="Yacute" unicode="&#xdd;" horiz-adv-x="778" 
d="M23 663h381v-88h-41c-20.667 0 -31 -5.33301 -31 -16c0 -6.66699 5 -18 15 -34l88 -137l89 137c10 16 15 27.333 15 34c0 10.667 -10.333 16 -31 16h-41v88h288v-88h-21c-34 0 -57 -9 -69 -27l-178 -281v-139c0 -26.667 13 -40 39 -40h68v-88h-400v88h66
c26 0 39 13.333 39 40v139l-158 252c-14 22 -27.167 36.833 -39.5 44.5s-31.5 11.5 -57.5 11.5h-21v88zM399 716l-71.999 -0.00195312l85 114c1.33301 1.33301 6 7.5 14 18.5s13.167 18 15.5 21s7.16602 8.33301 14.499 16s13.5 12.834 18.5 15.501
s11.667 5.33398 20 8.00098s16.833 4 25.5 4c15.333 0 28.833 -5 40.5 -15s17.5 -22.667 17.5 -38c0 -12.667 -3.33301 -24 -10 -34s-13.167 -17.167 -19.5 -21.5s-16.833 -10.833 -31.5 -19.5z" />
    <glyph glyph-name="Thorn" unicode="&#xde;" horiz-adv-x="722" 
d="M306 450v-201h54c99.333 0 149 33.333 149 100c0 67.333 -49.667 101 -149 101h-54zM400 161l-94 -0.00195312v-161h-288v88h61c26 0 39 13.333 39 40v407c0 26.667 -13 40 -39 40h-62v88h289v-124h94c102 0 177 -14.667 225 -44s72 -77.666 72 -144.999
s-24 -115.666 -72 -144.999s-123 -44 -225 -44z" />
    <glyph glyph-name="germandbls" unicode="&#xdf;" 
d="M83 123l-0.00195312 347.999c0 141.333 81 212 243 212c26.667 0 52.334 -2.33301 77.001 -7s49 -12.167 73 -22.5s43.333 -25.666 58 -45.999s22 -44.833 22 -73.5c0 -72.667 -46 -115 -138 -127v-2c115.333 -21.333 173 -92 173 -212
c0 -58.667 -17.167 -108 -51.5 -148s-75.166 -60 -122.499 -60c-87.333 0 -131 39 -131 117v66h73v-60c0 -9.33301 0.333008 -16.333 1 -21s3 -9.5 7 -14.5s10.333 -7.5 19 -7.5c11.333 0 18.833 10.667 22.5 32s5.5 59.333 5.5 114c0 52 -8.16699 89.5 -24.5 112.5
s-45.5 34.5 -87.5 34.5v80c32 0 54.667 6.33301 68 19s20 34.667 20 66c0 26.667 -5.66699 46.5 -17 59.5s-30 19.5 -56 19.5c-45.333 0 -68 -27.333 -68 -82v-520h-230v80h28c14 0 23.5 3.5 28.5 10.5s7.5 17.833 7.5 32.5z" />
    <glyph glyph-name="agrave" unicode="&#xe0;" 
d="M324 163l0.000976562 68.0029c-8.66699 -4.66699 -25.834 -11.834 -51.501 -21.501s-45 -19.834 -58 -30.501s-19.5 -25.334 -19.5 -44.001c0 -37.333 19 -56 57 -56c48 0 72 28 72 84zM542.001 171.003l55.002 -0.00195312v-55c0 -50 -10.833 -84.333 -32.5 -103
s-60.5 -28 -116.5 -28c-25.333 0 -48.333 6.16699 -69 18.5s-34.667 29.833 -42 52.5c-39.333 -47.333 -90.666 -71 -153.999 -71c-102.667 0 -154 46.333 -154 139c0 34.667 10.167 61.667 30.5 81s45.166 31.833 74.499 37.5s58.5 10.334 87.5 14.001
s53.667 11.334 74 23.001s30.5 29.5 30.5 53.5c0 58.667 -32.333 88 -97 88c-32.667 0 -59 -6.33301 -79 -19v-2c17.333 -2 32.166 -7.66699 44.499 -17s18.5 -22 18.5 -38c0 -20.667 -7.66699 -36.334 -23 -47.001s-34 -16 -56 -16c-24.667 0 -45.334 6.66699 -62.001 20
s-25 31.333 -25 54c0 26 8 48 24 66s37 31.167 63 39.5s50.5 14 73.5 17s46.833 4.5 71.5 4.5c73.333 0 126.833 -12.333 160.5 -37s50.5 -71.667 50.5 -141v-186c0 -15.333 1.16699 -25.833 3.5 -31.5s7.5 -8.5 15.5 -8.5c12 0 20.5 4.83301 25.5 14.5
s7.5 27.834 7.5 54.501v23zM362.003 543.001l-71.999 0.00195312l-118 69c-14.667 8.66699 -25.167 15.167 -31.5 19.5s-12.833 11.5 -19.5 21.5s-10 21.333 -10 34c0 15.333 5.83301 28 17.5 38s25.167 15 40.5 15c8.66699 0 17.167 -1.33301 25.5 -4
s15 -5.33398 20 -8.00098s11.167 -7.83398 18.5 -15.501s12.166 -13 14.499 -16s7.5 -10 15.5 -21s12.667 -17.167 14 -18.5z" />
    <glyph glyph-name="aacute" unicode="&#xe1;" 
d="M324 163l0.000976562 68.0029c-8.66699 -4.66699 -25.834 -11.834 -51.501 -21.501s-45 -19.834 -58 -30.501s-19.5 -25.334 -19.5 -44.001c0 -37.333 19 -56 57 -56c48 0 72 28 72 84zM542.001 171.003l55.002 -0.00195312v-55c0 -50 -10.833 -84.333 -32.5 -103
s-60.5 -28 -116.5 -28c-25.333 0 -48.333 6.16699 -69 18.5s-34.667 29.833 -42 52.5c-39.333 -47.333 -90.666 -71 -153.999 -71c-102.667 0 -154 46.333 -154 139c0 34.667 10.167 61.667 30.5 81s45.166 31.833 74.499 37.5s58.5 10.334 87.5 14.001
s53.667 11.334 74 23.001s30.5 29.5 30.5 53.5c0 58.667 -32.333 88 -97 88c-32.667 0 -59 -6.33301 -79 -19v-2c17.333 -2 32.166 -7.66699 44.499 -17s18.5 -22 18.5 -38c0 -20.667 -7.66699 -36.334 -23 -47.001s-34 -16 -56 -16c-24.667 0 -45.334 6.66699 -62.001 20
s-25 31.333 -25 54c0 26 8 48 24 66s37 31.167 63 39.5s50.5 14 73.5 17s46.833 4.5 71.5 4.5c73.333 0 126.833 -12.333 160.5 -37s50.5 -71.667 50.5 -141v-186c0 -15.333 1.16699 -25.833 3.5 -31.5s7.5 -8.5 15.5 -8.5c12 0 20.5 4.83301 25.5 14.5
s7.5 27.834 7.5 54.501v23zM264.003 543.001l-71.999 -0.00195312l85 114c1.33301 1.33301 6 7.5 14 18.5s13.167 18 15.5 21s7.16602 8.33301 14.499 16s13.5 12.834 18.5 15.501s11.667 5.33398 20 8.00098s16.833 4 25.5 4c15.333 0 28.833 -5 40.5 -15
s17.5 -22.667 17.5 -38c0 -12.667 -3.33301 -24 -10 -34s-13.167 -17.167 -19.5 -21.5s-16.833 -10.833 -31.5 -19.5z" />
    <glyph glyph-name="acircumflex" unicode="&#xe2;" 
d="M324 163l0.000976562 68.0029c-8.66699 -4.66699 -25.834 -11.834 -51.501 -21.501s-45 -19.834 -58 -30.501s-19.5 -25.334 -19.5 -44.001c0 -37.333 19 -56 57 -56c48 0 72 28 72 84zM542.001 171.003l55.002 -0.00195312v-55c0 -50 -10.833 -84.333 -32.5 -103
s-60.5 -28 -116.5 -28c-25.333 0 -48.333 6.16699 -69 18.5s-34.667 29.833 -42 52.5c-39.333 -47.333 -90.666 -71 -153.999 -71c-102.667 0 -154 46.333 -154 139c0 34.667 10.167 61.667 30.5 81s45.166 31.833 74.499 37.5s58.5 10.334 87.5 14.001
s53.667 11.334 74 23.001s30.5 29.5 30.5 53.5c0 58.667 -32.333 88 -97 88c-32.667 0 -59 -6.33301 -79 -19v-2c17.333 -2 32.166 -7.66699 44.499 -17s18.5 -22 18.5 -38c0 -20.667 -7.66699 -36.334 -23 -47.001s-34 -16 -56 -16c-24.667 0 -45.334 6.66699 -62.001 20
s-25 31.333 -25 54c0 26 8 48 24 66s37 31.167 63 39.5s50.5 14 73.5 17s46.833 4.5 71.5 4.5c73.333 0 126.833 -12.333 160.5 -37s50.5 -71.667 50.5 -141v-186c0 -15.333 1.16699 -25.833 3.5 -31.5s7.5 -8.5 15.5 -8.5c12 0 20.5 4.83301 25.5 14.5
s7.5 27.834 7.5 54.501v23zM278.003 635.001l-107 -92h-78l122 180h125l123 -180h-79z" />
    <glyph glyph-name="atilde" unicode="&#xe3;" 
d="M324 163l0.000976562 68.0029c-8.66699 -4.66699 -25.834 -11.834 -51.501 -21.501s-45 -19.834 -58 -30.501s-19.5 -25.334 -19.5 -44.001c0 -37.333 19 -56 57 -56c48 0 72 28 72 84zM542.001 171.003l55.002 -0.00195312v-55c0 -50 -10.833 -84.333 -32.5 -103
s-60.5 -28 -116.5 -28c-25.333 0 -48.333 6.16699 -69 18.5s-34.667 29.833 -42 52.5c-39.333 -47.333 -90.666 -71 -153.999 -71c-102.667 0 -154 46.333 -154 139c0 34.667 10.167 61.667 30.5 81s45.166 31.833 74.499 37.5s58.5 10.334 87.5 14.001
s53.667 11.334 74 23.001s30.5 29.5 30.5 53.5c0 58.667 -32.333 88 -97 88c-32.667 0 -59 -6.33301 -79 -19v-2c17.333 -2 32.166 -7.66699 44.499 -17s18.5 -22 18.5 -38c0 -20.667 -7.66699 -36.334 -23 -47.001s-34 -16 -56 -16c-24.667 0 -45.334 6.66699 -62.001 20
s-25 31.333 -25 54c0 26 8 48 24 66s37 31.167 63 39.5s50.5 14 73.5 17s46.833 4.5 71.5 4.5c73.333 0 126.833 -12.333 160.5 -37s50.5 -71.667 50.5 -141v-186c0 -15.333 1.16699 -25.833 3.5 -31.5s7.5 -8.5 15.5 -8.5c12 0 20.5 4.83301 25.5 14.5
s7.5 27.834 7.5 54.501v23zM422.003 704.001h54.999c-8 -39.333 -22.167 -73.5 -42.5 -102.5s-48.166 -43.5 -83.499 -43.5c-28.667 0 -61.667 9 -99 27c-40 17.333 -64.333 26 -73 26c-24.667 0 -40.334 -16 -47.001 -48h-52c4 42 17.333 76.667 40 104s53.667 41 93 41
c18.667 0 47.334 -8.66699 86.001 -26s63.667 -26 75 -26c24 0 40 16 48 48z" />
    <glyph glyph-name="adieresis" unicode="&#xe4;" 
d="M324 163l0.000976562 68.0029c-8.66699 -4.66699 -25.834 -11.834 -51.501 -21.501s-45 -19.834 -58 -30.501s-19.5 -25.334 -19.5 -44.001c0 -37.333 19 -56 57 -56c48 0 72 28 72 84zM542.001 171.003l55.002 -0.00195312v-55c0 -50 -10.833 -84.333 -32.5 -103
s-60.5 -28 -116.5 -28c-25.333 0 -48.333 6.16699 -69 18.5s-34.667 29.833 -42 52.5c-39.333 -47.333 -90.666 -71 -153.999 -71c-102.667 0 -154 46.333 -154 139c0 34.667 10.167 61.667 30.5 81s45.166 31.833 74.499 37.5s58.5 10.334 87.5 14.001
s53.667 11.334 74 23.001s30.5 29.5 30.5 53.5c0 58.667 -32.333 88 -97 88c-32.667 0 -59 -6.33301 -79 -19v-2c17.333 -2 32.166 -7.66699 44.499 -17s18.5 -22 18.5 -38c0 -20.667 -7.66699 -36.334 -23 -47.001s-34 -16 -56 -16c-24.667 0 -45.334 6.66699 -62.001 20
s-25 31.333 -25 54c0 26 8 48 24 66s37 31.167 63 39.5s50.5 14 73.5 17s46.833 4.5 71.5 4.5c73.333 0 126.833 -12.333 160.5 -37s50.5 -71.667 50.5 -141v-186c0 -15.333 1.16699 -25.833 3.5 -31.5s7.5 -8.5 15.5 -8.5c12 0 20.5 4.83301 25.5 14.5
s7.5 27.834 7.5 54.501v23zM168.003 705.001c22 0 40.667 -7.83301 56 -23.5s23 -34.167 23 -55.5c0 -22 -7.66699 -40.667 -23 -56s-34 -23 -56 -23s-40.667 7.66699 -56 23s-23 34 -23 56c0 21.333 7.66699 39.833 23 55.5s34 23.5 56 23.5zM388.003 705.001
c22 0 40.667 -7.83301 56 -23.5s23 -34.167 23 -55.5c0 -22 -7.66699 -40.667 -23 -56s-34 -23 -56 -23s-40.667 7.66699 -56 23s-23 34 -23 56c0 21.333 7.66699 39.833 23 55.5s34 23.5 56 23.5z" />
    <glyph glyph-name="aring" unicode="&#xe5;" 
d="M324 163l0.000976562 68.0029c-8.66699 -4.66699 -25.834 -11.834 -51.501 -21.501s-45 -19.834 -58 -30.501s-19.5 -25.334 -19.5 -44.001c0 -37.333 19 -56 57 -56c48 0 72 28 72 84zM542.001 171.003l55.002 -0.00195312v-55c0 -50 -10.833 -84.333 -32.5 -103
s-60.5 -28 -116.5 -28c-25.333 0 -48.333 6.16699 -69 18.5s-34.667 29.833 -42 52.5c-39.333 -47.333 -90.666 -71 -153.999 -71c-102.667 0 -154 46.333 -154 139c0 34.667 10.167 61.667 30.5 81s45.166 31.833 74.499 37.5s58.5 10.334 87.5 14.001
s53.667 11.334 74 23.001s30.5 29.5 30.5 53.5c0 58.667 -32.333 88 -97 88c-32.667 0 -59 -6.33301 -79 -19v-2c17.333 -2 32.166 -7.66699 44.499 -17s18.5 -22 18.5 -38c0 -20.667 -7.66699 -36.334 -23 -47.001s-34 -16 -56 -16c-24.667 0 -45.334 6.66699 -62.001 20
s-25 31.333 -25 54c0 26 8 48 24 66s37 31.167 63 39.5s50.5 14 73.5 17s46.833 4.5 71.5 4.5c73.333 0 126.833 -12.333 160.5 -37s50.5 -71.667 50.5 -141v-186c0 -15.333 1.16699 -25.833 3.5 -31.5s7.5 -8.5 15.5 -8.5c12 0 20.5 4.83301 25.5 14.5
s7.5 27.834 7.5 54.501v23zM277.003 767.001c31.333 0 58 -11 80 -33s33 -48.333 33 -79s-11 -57 -33 -79s-48.667 -33 -80 -33s-58 11 -80 33s-33 48.333 -33 79s11 57 33 79s48.667 33 80 33zM277.003 707.001c-14.667 0 -27.167 -5.16699 -37.5 -15.5
s-15.5 -22.5 -15.5 -36.5c0 -14.667 5.16699 -27 15.5 -37s22.833 -15 37.5 -15c14 0 26.333 5.16699 37 15.5s16 22.5 16 36.5s-5.33301 26.167 -16 36.5s-23 15.5 -37 15.5z" />
    <glyph glyph-name="ae" unicode="&#xe6;" horiz-adv-x="833" 
d="M318 163l-0.000976562 68l-51 -23c-52 -23.333 -78 -49 -78 -77c0 -17.333 5.33301 -30.333 16 -39s24.334 -13 41.001 -13c48 0 72 28 72 84zM481.999 291h150.999v26c0 26 -6.66699 46.833 -20 62.5s-31.666 23.5 -54.999 23.5c-24 0 -42.667 -7.83301 -56 -23.5
s-20 -36.5 -20 -62.5v-26zM808.998 211l-327.005 0.000976562c0 -44 8.83301 -77 26.5 -99s40.834 -33 69.501 -33c58.667 0 92.334 26 101.001 78h116c-7.33301 -56.667 -32.666 -99.5 -75.999 -128.5s-93.666 -43.5 -150.999 -43.5c-107.333 0 -175 29 -203 87
c-28.667 -30 -57.5 -52 -86.5 -66s-62.833 -21 -101.5 -21c-102.667 0 -154 46.667 -154 140c0 35.333 10.5 62.666 31.5 81.999s46.5 31.833 76.5 37.5s60.167 10.5 90.5 14.5s56 12.167 77 24.5s31.5 31.5 31.5 57.5c0 23.333 -10.667 42.5 -32 57.5
s-46.333 22.5 -75 22.5c-33.333 0 -59.666 -5.66699 -78.999 -17v-2c17.333 -2.66699 32.166 -8.66699 44.499 -18s18.5 -22 18.5 -38c0 -20.667 -7.66699 -36.334 -23 -47.001s-34 -16 -56 -16c-24 0 -44.5 6.5 -61.5 19.5s-25.5 31.167 -25.5 54.5
c0 26.667 7.83301 49 23.5 67s36.667 31 63 39s50.833 13.5 73.5 16.5s46.667 4.5 72 4.5c48.667 0 98.667 -14.333 150 -43c14.667 12.667 34.334 22.834 59.001 30.501s46.667 11.5 66 11.5c174 0 261 -90.667 261 -272z" />
    <glyph glyph-name="ccedilla" unicode="&#xe7;" horiz-adv-x="500" 
d="M378 162l99.001 0.00292969c-2 -60.667 -21.833 -105.334 -59.5 -134.001s-86.834 -43 -147.501 -43c-76.667 0 -137.167 21.167 -181.5 63.5s-66.5 104.166 -66.5 185.499c0 79.333 24.167 140.666 72.5 183.999s106.833 65 175.5 65c58 0 107 -14 147 -42
s60 -68 60 -120c0 -27.333 -8 -50.5 -24 -69.5s-37.667 -28.5 -65 -28.5c-26 0 -47.167 6 -63.5 18s-24.5 30.333 -24.5 55c0 22.667 7.16699 40.5 21.5 53.5s32.833 19.5 55.5 19.5c-18.667 22.667 -45.334 34 -80.001 34c-27.333 0 -50.5 -14.167 -69.5 -42.5
s-28.5 -69.5 -28.5 -123.5c0 -58 7.66699 -100.167 23 -126.5s40.333 -39.5 75 -39.5c24 0 42.833 8.66699 56.5 26s21.834 39 24.501 65zM149.001 -204.997l17.001 43.999c26 -8.66699 49.667 -13 71 -13c28 0 42 12 42 36c0 10 -3.16699 18.5 -9.5 25.5
s-14.5 10.5 -24.5 10.5c-7.33301 0 -17 -2 -29 -6l-16 9l46 99h46l-28 -62c11.333 3.33301 25.333 5 42 5c23.333 0 43.666 -6.16699 60.999 -18.5s26 -30.166 26 -53.499c0 -18.667 -5 -34.5 -15 -47.5s-23.167 -22.667 -39.5 -29s-32.5 -10.833 -48.5 -13.5
s-32.667 -4 -50 -4c-30 0 -60.333 6 -91 18z" />
    <glyph glyph-name="egrave" unicode="&#xe8;" horiz-adv-x="556" 
d="M531 211l-330 -0.000976562c0 -93.333 33.333 -140 100 -140c20.667 0 41.667 7.66699 63 23s34 36.333 38 63h116c-7.33301 -56 -34.5 -98.667 -81.5 -128s-100.167 -44 -159.5 -44c-84 0 -147.167 21.833 -189.5 65.5s-63.5 104.834 -63.5 183.501
c0 76 23.833 136.5 71.5 181.5s108.167 67.5 181.5 67.5c79.333 0 141.5 -25.333 186.5 -76s67.5 -116 67.5 -196zM203 290.999h150.999v26c0 26 -6.66699 46.833 -20 62.5s-31.666 23.5 -54.999 23.5c-24 0 -42.667 -7.83301 -56 -23.5s-20 -36.5 -20 -62.5v-26z
M369.999 542.999l-71.999 0.00195312l-118 69c-14.667 8.66699 -25.167 15.167 -31.5 19.5s-12.833 11.5 -19.5 21.5s-10 21.333 -10 34c0 15.333 5.83301 28 17.5 38s25.167 15 40.5 15c8.66699 0 17.167 -1.33301 25.5 -4s15 -5.33398 20 -8.00098
s11.167 -7.83398 18.5 -15.501s12.166 -13 14.499 -16s7.5 -10 15.5 -21s12.667 -17.167 14 -18.5z" />
    <glyph glyph-name="eacute" unicode="&#xe9;" horiz-adv-x="556" 
d="M531 211l-330 -0.000976562c0 -93.333 33.333 -140 100 -140c20.667 0 41.667 7.66699 63 23s34 36.333 38 63h116c-7.33301 -56 -34.5 -98.667 -81.5 -128s-100.167 -44 -159.5 -44c-84 0 -147.167 21.833 -189.5 65.5s-63.5 104.834 -63.5 183.501
c0 76 23.833 136.5 71.5 181.5s108.167 67.5 181.5 67.5c79.333 0 141.5 -25.333 186.5 -76s67.5 -116 67.5 -196zM203 290.999h150.999v26c0 26 -6.66699 46.833 -20 62.5s-31.666 23.5 -54.999 23.5c-24 0 -42.667 -7.83301 -56 -23.5s-20 -36.5 -20 -62.5v-26z
M271.999 542.999l-71.999 -0.00195312l85 114c1.33301 1.33301 6 7.5 14 18.5s13.167 18 15.5 21s7.16602 8.33301 14.499 16s13.5 12.834 18.5 15.501s11.667 5.33398 20 8.00098s16.833 4 25.5 4c15.333 0 28.833 -5 40.5 -15s17.5 -22.667 17.5 -38
c0 -12.667 -3.33301 -24 -10 -34s-13.167 -17.167 -19.5 -21.5s-16.833 -10.833 -31.5 -19.5z" />
    <glyph glyph-name="ecircumflex" unicode="&#xea;" horiz-adv-x="556" 
d="M531 211l-330 -0.000976562c0 -93.333 33.333 -140 100 -140c20.667 0 41.667 7.66699 63 23s34 36.333 38 63h116c-7.33301 -56 -34.5 -98.667 -81.5 -128s-100.167 -44 -159.5 -44c-84 0 -147.167 21.833 -189.5 65.5s-63.5 104.834 -63.5 183.501
c0 76 23.833 136.5 71.5 181.5s108.167 67.5 181.5 67.5c79.333 0 141.5 -25.333 186.5 -76s67.5 -116 67.5 -196zM203 290.999h150.999v26c0 26 -6.66699 46.833 -20 62.5s-31.666 23.5 -54.999 23.5c-24 0 -42.667 -7.83301 -56 -23.5s-20 -36.5 -20 -62.5v-26z
M285.999 634.999l-107 -92h-78l122 180h125l123 -180h-79z" />
    <glyph glyph-name="edieresis" unicode="&#xeb;" horiz-adv-x="556" 
d="M531 211l-330 -0.000976562c0 -93.333 33.333 -140 100 -140c20.667 0 41.667 7.66699 63 23s34 36.333 38 63h116c-7.33301 -56 -34.5 -98.667 -81.5 -128s-100.167 -44 -159.5 -44c-84 0 -147.167 21.833 -189.5 65.5s-63.5 104.834 -63.5 183.501
c0 76 23.833 136.5 71.5 181.5s108.167 67.5 181.5 67.5c79.333 0 141.5 -25.333 186.5 -76s67.5 -116 67.5 -196zM203 290.999h150.999v26c0 26 -6.66699 46.833 -20 62.5s-31.666 23.5 -54.999 23.5c-24 0 -42.667 -7.83301 -56 -23.5s-20 -36.5 -20 -62.5v-26z
M175.999 704.999c22 0 40.667 -7.83301 56 -23.5s23 -34.167 23 -55.5c0 -22 -7.66699 -40.667 -23 -56s-34 -23 -56 -23s-40.667 7.66699 -56 23s-23 34 -23 56c0 21.333 7.66699 39.833 23 55.5s34 23.5 56 23.5zM395.999 704.999c22 0 40.667 -7.83301 56 -23.5
s23 -34.167 23 -55.5c0 -22 -7.66699 -40.667 -23 -56s-34 -23 -56 -23s-40.667 7.66699 -56 23s-23 34 -23 56c0 21.333 7.66699 39.833 23 55.5s34 23.5 56 23.5z" />
    <glyph glyph-name="igrave" unicode="&#xec;" horiz-adv-x="389" 
d="M278 468v-345c0 -14.667 2.5 -25.5 7.5 -32.5s14.5 -10.5 28.5 -10.5h41v-80h-322v80h43c14 0 23.5 3.5 28.5 10.5s7.5 17.833 7.5 32.5v222c0 14.667 -2.5 25.5 -7.5 32.5s-14.5 10.5 -28.5 10.5h-46v80h248zM279 543l-71.999 0.00195312l-118 69
c-14.667 8.66699 -25.167 15.167 -31.5 19.5s-12.833 11.5 -19.5 21.5s-10 21.333 -10 34c0 15.333 5.83301 28 17.5 38s25.167 15 40.5 15c8.66699 0 17.167 -1.33301 25.5 -4s15 -5.33398 20 -8.00098s11.167 -7.83398 18.5 -15.501s12.166 -13 14.499 -16
s7.5 -10 15.5 -21s12.667 -17.167 14 -18.5z" />
    <glyph glyph-name="iacute" unicode="&#xed;" horiz-adv-x="389" 
d="M278 468v-345c0 -14.667 2.5 -25.5 7.5 -32.5s14.5 -10.5 28.5 -10.5h41v-80h-322v80h43c14 0 23.5 3.5 28.5 10.5s7.5 17.833 7.5 32.5v222c0 14.667 -2.5 25.5 -7.5 32.5s-14.5 10.5 -28.5 10.5h-46v80h248zM181 543l-71.999 -0.00195312l85 114
c1.33301 1.33301 6 7.5 14 18.5s13.167 18 15.5 21s7.16602 8.33301 14.499 16s13.5 12.834 18.5 15.501s11.667 5.33398 20 8.00098s16.833 4 25.5 4c15.333 0 28.833 -5 40.5 -15s17.5 -22.667 17.5 -38c0 -12.667 -3.33301 -24 -10 -34s-13.167 -17.167 -19.5 -21.5
s-16.833 -10.833 -31.5 -19.5z" />
    <glyph glyph-name="icircumflex" unicode="&#xee;" horiz-adv-x="389" 
d="M278 468v-345c0 -14.667 2.5 -25.5 7.5 -32.5s14.5 -10.5 28.5 -10.5h41v-80h-322v80h43c14 0 23.5 3.5 28.5 10.5s7.5 17.833 7.5 32.5v222c0 14.667 -2.5 25.5 -7.5 32.5s-14.5 10.5 -28.5 10.5h-46v80h248zM195 635l-107 -92h-78l122 180h125l123 -180h-79z" />
    <glyph glyph-name="idieresis" unicode="&#xef;" horiz-adv-x="389" 
d="M278 468v-345c0 -14.667 2.5 -25.5 7.5 -32.5s14.5 -10.5 28.5 -10.5h41v-80h-322v80h43c14 0 23.5 3.5 28.5 10.5s7.5 17.833 7.5 32.5v222c0 14.667 -2.5 25.5 -7.5 32.5s-14.5 10.5 -28.5 10.5h-46v80h248zM85 705c22 0 40.667 -7.83301 56 -23.5s23 -34.167 23 -55.5
c0 -22 -7.66699 -40.667 -23 -56s-34 -23 -56 -23s-40.667 7.66699 -56 23s-23 34 -23 56c0 21.333 7.66699 39.833 23 55.5s34 23.5 56 23.5zM305 705c22 0 40.667 -7.83301 56 -23.5s23 -34.167 23 -55.5c0 -22 -7.66699 -40.667 -23 -56s-34 -23 -56 -23
s-40.667 7.66699 -56 23s-23 34 -23 56c0 21.333 7.66699 39.833 23 55.5s34 23.5 56 23.5z" />
    <glyph glyph-name="eth" unicode="&#xf0;" horiz-adv-x="556" 
d="M278 403c-29.333 0 -50.166 -13.167 -62.499 -39.5s-18.5 -69.5 -18.5 -129.5s6.16699 -103.167 18.5 -129.5s33.166 -39.5 62.499 -39.5s50.166 13.167 62.499 39.5s18.5 69.5 18.5 129.5s-6.16699 103.167 -18.5 129.5s-33.166 39.5 -62.499 39.5zM104 621l92 45
c29.333 -14 56 -28 80 -42l85 40l52 -51l-73 -33c62.667 -48 111 -102.167 145 -162.5s51 -121.5 51 -183.5c0 -78 -23.833 -139 -71.5 -183s-109.834 -66 -186.501 -66s-138.834 22 -186.501 66s-71.5 105 -71.5 183s23.833 139 71.5 183s109.834 66 186.501 66
c8.66699 0 15.334 -0.333008 20.001 -1c-18 24 -36.667 42 -56 54l-88 -40l-48 48l74 35c-18 10.667 -43.333 24.667 -76 42z" />
    <glyph glyph-name="ntilde" unicode="&#xf1;" horiz-adv-x="667" 
d="M16 468h235v-77h2c22.667 32.667 47 56.167 73 70.5s59 21.5 99 21.5c54.667 0 93.667 -14.5 117 -43.5s35 -71.167 35 -126.5v-190c0 -14.667 2.5 -25.5 7.5 -32.5s14.5 -10.5 28.5 -10.5h38v-80h-297v80h21c14 0 23.5 3.5 28.5 10.5s7.5 17.833 7.5 32.5v172
c0 33.333 -5 58 -15 74s-30.667 24 -62 24c-22 0 -40 -8.66699 -54 -26s-21 -37 -21 -59v-185c0 -14.667 2.5 -25.5 7.5 -32.5s14.5 -10.5 28.5 -10.5h24v-80h-302v80h40c14 0 23.5 3.5 28.5 10.5s7.5 17.833 7.5 32.5v222c0 14.667 -2.5 25.5 -7.5 32.5
s-14.5 10.5 -28.5 10.5h-41v80zM464 704h54.999c-8 -39.333 -22.167 -73.5 -42.5 -102.5s-48.166 -43.5 -83.499 -43.5c-28.667 0 -61.667 9 -99 27c-40 17.333 -64.333 26 -73 26c-24.667 0 -40.334 -16 -47.001 -48h-52c4 42 17.333 76.667 40 104s53.667 41 93 41
c18.667 0 47.334 -8.66699 86.001 -26s63.667 -26 75 -26c24 0 40 16 48 48z" />
    <glyph glyph-name="ograve" unicode="&#xf2;" horiz-adv-x="556" 
d="M278 483c76.667 0 138.834 -22 186.501 -66s71.5 -105 71.5 -183s-23.833 -139 -71.5 -183s-109.834 -66 -186.501 -66s-138.834 22 -186.501 66s-71.5 105 -71.5 183s23.833 139 71.5 183s109.834 66 186.501 66zM278 403c-29.333 0 -50.166 -13.167 -62.499 -39.5
s-18.5 -69.5 -18.5 -129.5s6.16699 -103.167 18.5 -129.5s33.166 -39.5 62.499 -39.5s50.166 13.167 62.499 39.5s18.5 69.5 18.5 129.5s-6.16699 103.167 -18.5 129.5s-33.166 39.5 -62.499 39.5zM363 543l-71.999 0.00195312l-118 69
c-14.667 8.66699 -25.167 15.167 -31.5 19.5s-12.833 11.5 -19.5 21.5s-10 21.333 -10 34c0 15.333 5.83301 28 17.5 38s25.167 15 40.5 15c8.66699 0 17.167 -1.33301 25.5 -4s15 -5.33398 20 -8.00098s11.167 -7.83398 18.5 -15.501s12.166 -13 14.499 -16
s7.5 -10 15.5 -21s12.667 -17.167 14 -18.5z" />
    <glyph glyph-name="oacute" unicode="&#xf3;" horiz-adv-x="556" 
d="M278 483c76.667 0 138.834 -22 186.501 -66s71.5 -105 71.5 -183s-23.833 -139 -71.5 -183s-109.834 -66 -186.501 -66s-138.834 22 -186.501 66s-71.5 105 -71.5 183s23.833 139 71.5 183s109.834 66 186.501 66zM278 403c-29.333 0 -50.166 -13.167 -62.499 -39.5
s-18.5 -69.5 -18.5 -129.5s6.16699 -103.167 18.5 -129.5s33.166 -39.5 62.499 -39.5s50.166 13.167 62.499 39.5s18.5 69.5 18.5 129.5s-6.16699 103.167 -18.5 129.5s-33.166 39.5 -62.499 39.5zM265 543l-71.999 -0.00195312l85 114c1.33301 1.33301 6 7.5 14 18.5
s13.167 18 15.5 21s7.16602 8.33301 14.499 16s13.5 12.834 18.5 15.501s11.667 5.33398 20 8.00098s16.833 4 25.5 4c15.333 0 28.833 -5 40.5 -15s17.5 -22.667 17.5 -38c0 -12.667 -3.33301 -24 -10 -34s-13.167 -17.167 -19.5 -21.5s-16.833 -10.833 -31.5 -19.5z" />
    <glyph glyph-name="ocircumflex" unicode="&#xf4;" horiz-adv-x="556" 
d="M278 483c76.667 0 138.834 -22 186.501 -66s71.5 -105 71.5 -183s-23.833 -139 -71.5 -183s-109.834 -66 -186.501 -66s-138.834 22 -186.501 66s-71.5 105 -71.5 183s23.833 139 71.5 183s109.834 66 186.501 66zM278 403c-29.333 0 -50.166 -13.167 -62.499 -39.5
s-18.5 -69.5 -18.5 -129.5s6.16699 -103.167 18.5 -129.5s33.166 -39.5 62.499 -39.5s50.166 13.167 62.499 39.5s18.5 69.5 18.5 129.5s-6.16699 103.167 -18.5 129.5s-33.166 39.5 -62.499 39.5zM279 635l-107 -92h-78l122 180h125l123 -180h-79z" />
    <glyph glyph-name="otilde" unicode="&#xf5;" horiz-adv-x="556" 
d="M278 483c76.667 0 138.834 -22 186.501 -66s71.5 -105 71.5 -183s-23.833 -139 -71.5 -183s-109.834 -66 -186.501 -66s-138.834 22 -186.501 66s-71.5 105 -71.5 183s23.833 139 71.5 183s109.834 66 186.501 66zM278 403c-29.333 0 -50.166 -13.167 -62.499 -39.5
s-18.5 -69.5 -18.5 -129.5s6.16699 -103.167 18.5 -129.5s33.166 -39.5 62.499 -39.5s50.166 13.167 62.499 39.5s18.5 69.5 18.5 129.5s-6.16699 103.167 -18.5 129.5s-33.166 39.5 -62.499 39.5zM423 704h54.999c-8 -39.333 -22.167 -73.5 -42.5 -102.5
s-48.166 -43.5 -83.499 -43.5c-28.667 0 -61.667 9 -99 27c-40 17.333 -64.333 26 -73 26c-24.667 0 -40.334 -16 -47.001 -48h-52c4 42 17.333 76.667 40 104s53.667 41 93 41c18.667 0 47.334 -8.66699 86.001 -26s63.667 -26 75 -26c24 0 40 16 48 48z" />
    <glyph glyph-name="odieresis" unicode="&#xf6;" horiz-adv-x="556" 
d="M278 483c76.667 0 138.834 -22 186.501 -66s71.5 -105 71.5 -183s-23.833 -139 -71.5 -183s-109.834 -66 -186.501 -66s-138.834 22 -186.501 66s-71.5 105 -71.5 183s23.833 139 71.5 183s109.834 66 186.501 66zM278 403c-29.333 0 -50.166 -13.167 -62.499 -39.5
s-18.5 -69.5 -18.5 -129.5s6.16699 -103.167 18.5 -129.5s33.166 -39.5 62.499 -39.5s50.166 13.167 62.499 39.5s18.5 69.5 18.5 129.5s-6.16699 103.167 -18.5 129.5s-33.166 39.5 -62.499 39.5zM169 705c22 0 40.667 -7.83301 56 -23.5s23 -34.167 23 -55.5
c0 -22 -7.66699 -40.667 -23 -56s-34 -23 -56 -23s-40.667 7.66699 -56 23s-23 34 -23 56c0 21.333 7.66699 39.833 23 55.5s34 23.5 56 23.5zM389 705c22 0 40.667 -7.83301 56 -23.5s23 -34.167 23 -55.5c0 -22 -7.66699 -40.667 -23 -56s-34 -23 -56 -23
s-40.667 7.66699 -56 23s-23 34 -23 56c0 21.333 7.66699 39.833 23 55.5s34 23.5 56 23.5z" />
    <glyph glyph-name="divide" unicode="&#xf7;" horiz-adv-x="600" 
d="M533 178h-467v111h467v-111zM300 508c22.667 0 42.334 -8.33301 59.001 -25s25 -36.334 25 -59.001s-8.33301 -42.167 -25 -58.5s-36.334 -24.5 -59.001 -24.5s-42.167 8.16699 -58.5 24.5s-24.5 35.833 -24.5 58.5s8.16699 42.334 24.5 59.001s35.833 25 58.5 25z
M300 126c22.667 0 42.334 -8.33301 59.001 -25s25 -36.334 25 -59.001s-8.33301 -42.167 -25 -58.5s-36.334 -24.5 -59.001 -24.5s-42.167 8.16699 -58.5 24.5s-24.5 35.833 -24.5 58.5s8.16699 42.334 24.5 59.001s35.833 25 58.5 25z" />
    <glyph glyph-name="oslash" unicode="&#xf8;" horiz-adv-x="556" 
d="M199 204l144.999 149c-11.333 33.333 -33.333 50 -66 50c-29.333 0 -50.166 -13.167 -62.499 -39.5s-18.5 -69.5 -18.5 -129.5c0 -15.333 0.666992 -25.333 2 -30zM356.999 266l-145.998 -149c11.333 -34.667 33.666 -52 66.999 -52c29.333 0 50.166 13.167 62.499 39.5
s18.5 69.5 18.5 129.5c0 16 -0.666992 26.667 -2 32zM57.001 -40l-51 46l65 67c-34 43.333 -51 97 -51 161c0 78 23.833 139 71.5 183s109.834 66 186.501 66c60.667 0 111.667 -13.667 153 -41l63 65l51 -48l-61 -63c34.667 -43.333 52 -97.333 52 -162
c0 -78 -23.833 -139 -71.5 -183s-109.834 -66 -186.501 -66c-61.333 0 -113 14 -155 42z" />
    <glyph glyph-name="ugrave" unicode="&#xf9;" horiz-adv-x="667" 
d="M641 0h-229.999v77h-2c-22.667 -32.667 -47 -56.167 -73 -70.5s-59 -21.5 -99 -21.5c-56 0 -95.333 12.333 -118 37s-34 64.667 -34 120v203c0 14.667 -2.5 25.5 -7.5 32.5s-14.5 10.5 -28.5 10.5h-33v80h235v-295c0 -22 0.333008 -37.5 1 -46.5s3.5 -18.333 8.5 -28
s12.667 -16 23 -19s25.166 -4.5 44.499 -4.5c22 0 40 8.66699 54 26s21 37 21 59v185c0 14.667 -2.5 25.5 -7.5 32.5s-14.5 10.5 -28.5 10.5h-44v80h246v-345c0 -14.667 2.5 -25.5 7.5 -32.5s14.5 -10.5 28.5 -10.5h36v-80zM390.001 543l-71.999 0.00195312l-118 69
c-14.667 8.66699 -25.167 15.167 -31.5 19.5s-12.833 11.5 -19.5 21.5s-10 21.333 -10 34c0 15.333 5.83301 28 17.5 38s25.167 15 40.5 15c8.66699 0 17.167 -1.33301 25.5 -4s15 -5.33398 20 -8.00098s11.167 -7.83398 18.5 -15.501s12.166 -13 14.499 -16
s7.5 -10 15.5 -21s12.667 -17.167 14 -18.5z" />
    <glyph glyph-name="uacute" unicode="&#xfa;" horiz-adv-x="667" 
d="M641 0h-229.999v77h-2c-22.667 -32.667 -47 -56.167 -73 -70.5s-59 -21.5 -99 -21.5c-56 0 -95.333 12.333 -118 37s-34 64.667 -34 120v203c0 14.667 -2.5 25.5 -7.5 32.5s-14.5 10.5 -28.5 10.5h-33v80h235v-295c0 -22 0.333008 -37.5 1 -46.5s3.5 -18.333 8.5 -28
s12.667 -16 23 -19s25.166 -4.5 44.499 -4.5c22 0 40 8.66699 54 26s21 37 21 59v185c0 14.667 -2.5 25.5 -7.5 32.5s-14.5 10.5 -28.5 10.5h-44v80h246v-345c0 -14.667 2.5 -25.5 7.5 -32.5s14.5 -10.5 28.5 -10.5h36v-80zM292.001 543l-71.999 -0.00195312l85 114
c1.33301 1.33301 6 7.5 14 18.5s13.167 18 15.5 21s7.16602 8.33301 14.499 16s13.5 12.834 18.5 15.501s11.667 5.33398 20 8.00098s16.833 4 25.5 4c15.333 0 28.833 -5 40.5 -15s17.5 -22.667 17.5 -38c0 -12.667 -3.33301 -24 -10 -34s-13.167 -17.167 -19.5 -21.5
s-16.833 -10.833 -31.5 -19.5z" />
    <glyph glyph-name="ucircumflex" unicode="&#xfb;" horiz-adv-x="667" 
d="M641 0h-229.999v77h-2c-22.667 -32.667 -47 -56.167 -73 -70.5s-59 -21.5 -99 -21.5c-56 0 -95.333 12.333 -118 37s-34 64.667 -34 120v203c0 14.667 -2.5 25.5 -7.5 32.5s-14.5 10.5 -28.5 10.5h-33v80h235v-295c0 -22 0.333008 -37.5 1 -46.5s3.5 -18.333 8.5 -28
s12.667 -16 23 -19s25.166 -4.5 44.499 -4.5c22 0 40 8.66699 54 26s21 37 21 59v185c0 14.667 -2.5 25.5 -7.5 32.5s-14.5 10.5 -28.5 10.5h-44v80h246v-345c0 -14.667 2.5 -25.5 7.5 -32.5s14.5 -10.5 28.5 -10.5h36v-80zM306.001 635l-107 -92h-78l122 180h125l123 -180
h-79z" />
    <glyph glyph-name="udieresis" unicode="&#xfc;" horiz-adv-x="667" 
d="M641 0h-229.999v77h-2c-22.667 -32.667 -47 -56.167 -73 -70.5s-59 -21.5 -99 -21.5c-56 0 -95.333 12.333 -118 37s-34 64.667 -34 120v203c0 14.667 -2.5 25.5 -7.5 32.5s-14.5 10.5 -28.5 10.5h-33v80h235v-295c0 -22 0.333008 -37.5 1 -46.5s3.5 -18.333 8.5 -28
s12.667 -16 23 -19s25.166 -4.5 44.499 -4.5c22 0 40 8.66699 54 26s21 37 21 59v185c0 14.667 -2.5 25.5 -7.5 32.5s-14.5 10.5 -28.5 10.5h-44v80h246v-345c0 -14.667 2.5 -25.5 7.5 -32.5s14.5 -10.5 28.5 -10.5h36v-80zM196.001 705c22 0 40.667 -7.83301 56 -23.5
s23 -34.167 23 -55.5c0 -22 -7.66699 -40.667 -23 -56s-34 -23 -56 -23s-40.667 7.66699 -56 23s-23 34 -23 56c0 21.333 7.66699 39.833 23 55.5s34 23.5 56 23.5zM416.001 705c22 0 40.667 -7.83301 56 -23.5s23 -34.167 23 -55.5c0 -22 -7.66699 -40.667 -23 -56
s-34 -23 -56 -23s-40.667 7.66699 -56 23s-23 34 -23 56c0 21.333 7.66699 39.833 23 55.5s34 23.5 56 23.5z" />
    <glyph glyph-name="yacute" unicode="&#xfd;" 
d="M364 468l222.997 -0.000976562v-80h-19c-12 0 -22.167 -2.66699 -30.5 -8s-14 -10.666 -17 -15.999s-6.83301 -14 -11.5 -26l-133 -324c-31.333 -75.333 -62.166 -131.833 -92.499 -169.5s-69.833 -56.5 -118.5 -56.5c-44.667 0 -80.834 10.5 -108.501 31.5
s-41.5 53.5 -41.5 97.5c0 26 7.83301 46.667 23.5 62s36.5 23 62.5 23c20.667 0 38.334 -6 53.001 -18s22 -28 22 -48c0 -42.667 -17.667 -64 -53 -64c-11.333 0 -20.666 1.33301 -27.999 4c2 -17.333 21 -26 57 -26c14.667 0 27.667 3.16699 39 9.5s21.5 16.5 30.5 30.5
s15.833 26 20.5 36s10.667 24.667 18 44l-158 356c-6.66699 15.333 -11.667 26.5 -15 33.5s-8.16602 13.5 -14.499 19.5s-13.5 9 -21.5 9h-32v80h303v-80h-33c-22 0 -33 -6.33301 -33 -19c0 -4.66699 2 -11.667 6 -21l82 -185h2l71 182c4 10 6 19 6 27
c0 10.667 -10 16 -30 16h-29v80zM291.997 542.999l-71.999 -0.00195312l85 114c1.33301 1.33301 6 7.5 14 18.5s13.167 18 15.5 21s7.16602 8.33301 14.499 16s13.5 12.834 18.5 15.501s11.667 5.33398 20 8.00098s16.833 4 25.5 4c15.333 0 28.833 -5 40.5 -15
s17.5 -22.667 17.5 -38c0 -12.667 -3.33301 -24 -10 -34s-13.167 -17.167 -19.5 -21.5s-16.833 -10.833 -31.5 -19.5z" />
    <glyph glyph-name="thorn" unicode="&#xfe;" 
d="M311 390c-52.667 0 -79 -53.333 -79 -160c0 -106 26.333 -159 79 -159s79 53 79 159c0 106.667 -26.333 160 -79 160zM224 663v-267.998h2c28 58.667 76.333 88 145 88c29.333 0 55.5 -4.83301 78.5 -14.5s41.667 -22.334 56 -38.001s26.333 -34.5 36 -56.5
s16.334 -44.333 20.001 -67s5.5 -47 5.5 -73s-1.83301 -50.333 -5.5 -73s-10.334 -45 -20.001 -67s-21.667 -40.833 -36 -56.5s-33 -28.334 -56 -38.001s-49.167 -14.5 -78.5 -14.5c-31.333 0 -59.5 5.83301 -84.5 17.5s-42.5 28.167 -52.5 49.5l-2 -2v-139
c0 -14.667 2.5 -25.5 7.5 -32.5s14.5 -10.5 28.5 -10.5h41v-80h-317v80h38c14 0 23.5 3.5 28.5 10.5s7.5 17.833 7.5 32.5v629c0 14.667 -2.5 25.5 -7.5 32.5s-14.5 10.5 -28.5 10.5h-39v80h233z" />
    <glyph glyph-name="ydieresis" unicode="&#xff;" 
d="M364 468l222.997 -0.000976562v-80h-19c-12 0 -22.167 -2.66699 -30.5 -8s-14 -10.666 -17 -15.999s-6.83301 -14 -11.5 -26l-133 -324c-31.333 -75.333 -62.166 -131.833 -92.499 -169.5s-69.833 -56.5 -118.5 -56.5c-44.667 0 -80.834 10.5 -108.501 31.5
s-41.5 53.5 -41.5 97.5c0 26 7.83301 46.667 23.5 62s36.5 23 62.5 23c20.667 0 38.334 -6 53.001 -18s22 -28 22 -48c0 -42.667 -17.667 -64 -53 -64c-11.333 0 -20.666 1.33301 -27.999 4c2 -17.333 21 -26 57 -26c14.667 0 27.667 3.16699 39 9.5s21.5 16.5 30.5 30.5
s15.833 26 20.5 36s10.667 24.667 18 44l-158 356c-6.66699 15.333 -11.667 26.5 -15 33.5s-8.16602 13.5 -14.499 19.5s-13.5 9 -21.5 9h-32v80h303v-80h-33c-22 0 -33 -6.33301 -33 -19c0 -4.66699 2 -11.667 6 -21l82 -185h2l71 182c4 10 6 19 6 27
c0 10.667 -10 16 -30 16h-29v80zM195.997 704.999c22 0 40.667 -7.83301 56 -23.5s23 -34.167 23 -55.5c0 -22 -7.66699 -40.667 -23 -56s-34 -23 -56 -23s-40.667 7.66699 -56 23s-23 34 -23 56c0 21.333 7.66699 39.833 23 55.5s34 23.5 56 23.5zM415.997 704.999
c22 0 40.667 -7.83301 56 -23.5s23 -34.167 23 -55.5c0 -22 -7.66699 -40.667 -23 -56s-34 -23 -56 -23s-40.667 7.66699 -56 23s-23 34 -23 56c0 21.333 7.66699 39.833 23 55.5s34 23.5 56 23.5z" />
    <glyph glyph-name="dotlessi" unicode="&#x131;" horiz-adv-x="389" 
d="M278 468v-345c0 -14.667 2.5 -25.5 7.5 -32.5s14.5 -10.5 28.5 -10.5h41v-80h-322v80h43c14 0 23.5 3.5 28.5 10.5s7.5 17.833 7.5 32.5v222c0 14.667 -2.5 25.5 -7.5 32.5s-14.5 10.5 -28.5 10.5h-46v80h248z" />
    <glyph glyph-name="Lslash" unicode="&#x141;" horiz-adv-x="667" 
d="M418 445v-88l-117 -29v-240h109c55.333 0 92.333 15.5 111 46.5s28 77.167 28 138.5h93v-273h-629v88h61c26 0 39 13.333 39 40v154l-101 -25v88l101 25v165c0 26.667 -13 40 -39 40h-62v88h390v-88h-62c-26 0 -39 -13.333 -39 -40v-119z" />
    <glyph glyph-name="lslash" unicode="&#x142;" horiz-adv-x="389" 
d="M367 477v-74l-89 -33v-247c0 -14.667 2.5 -25.5 7.5 -32.5s14.5 -10.5 28.5 -10.5h41v-80h-322v80h43c14 0 23.5 3.5 28.5 10.5s7.5 17.833 7.5 32.5v186l-94 -35v74l94 35v157c0 14.667 -2.5 25.5 -7.5 32.5s-14.5 10.5 -28.5 10.5h-46v80h248v-219z" />
    <glyph glyph-name="OE" unicode="&#x152;" horiz-adv-x="1000" 
d="M438 149v363c0 25.333 -5.33301 43.333 -16 54s-29 16 -55 16c-48 0 -84.5 -21.333 -109.5 -64s-37.5 -105 -37.5 -187c0 -92 12 -157 36 -195s61 -57 111 -57c26 0 44.333 5.16699 55 15.5s16 28.5 16 54.5zM788 485l0.000976562 -294h-83v37
c0 20.667 -4.83301 37.167 -14.5 49.5s-22.5 18.5 -38.5 18.5h-41v-208h109c37.333 0 65.666 4 84.999 12s34.5 25.5 45.5 52.5s16.5 66.833 16.5 119.5h93v-272h-431c-18 -0 -45.333 -1.66699 -82 -5s-64 -5 -82 -5c-108 0 -192.333 29.833 -253 89.5
s-91 143.167 -91 250.5c0 98.667 31.167 180.5 93.5 245.5s145.833 97.5 250.5 97.5c18 0 45.333 -1.66699 82 -5s64 -5 82 -5h431v-257h-93c0 70.667 -12.333 116.5 -37 137.5s-70.667 31.5 -138 31.5h-81v-193h24c46.667 0 70 22.667 70 68v35h83z" />
    <glyph glyph-name="oe" unicode="&#x153;" horiz-adv-x="889" 
d="M289 403c-29.333 0 -50.166 -13.167 -62.499 -39.5s-18.5 -69.5 -18.5 -129.5s6.16699 -103.167 18.5 -129.5s33.166 -39.5 62.499 -39.5s50.166 13.167 62.499 39.5s18.5 69.5 18.5 129.5s-6.16699 103.167 -18.5 129.5s-33.166 39.5 -62.499 39.5zM548 291h150.999v26
c0 26 -6.66699 46.833 -20 62.5s-31.666 23.5 -54.999 23.5c-24 0 -42.667 -7.83301 -56 -23.5s-20 -36.5 -20 -62.5v-26zM870.999 211l-324.004 0.000976562c-1.33301 -93.333 32 -140 100 -140c58.667 0 92.334 28.667 101.001 86h116
c-7.33301 -56.667 -33.666 -99.5 -78.999 -128.5s-99.333 -43.5 -162 -43.5c-66 0 -119 19.667 -159 59c-39.333 -39.333 -98 -59 -176 -59c-81.333 0 -144.666 21.667 -189.999 65s-68 104.666 -68 183.999c0 77.333 24.833 138.166 74.5 182.499
s110.834 66.5 183.501 66.5c67.333 0 126 -19 176 -57c26 22.667 51 37.834 75 45.501s53.333 11.5 88 11.5c81.333 0 142.333 -24.833 183 -74.5s61 -115.5 61 -197.5z" />
    <glyph glyph-name="Scaron" unicode="&#x160;" horiz-adv-x="667" 
d="M606 672l0.00195312 -246.001h-92c-7.33301 50 -30.166 89.833 -68.499 119.5s-80.833 44.5 -127.5 44.5c-74.667 0 -112 -28.667 -112 -86c0 -16.667 8 -30.5 24 -41.5s36.667 -19.5 62 -25.5s53.5 -11.833 84.5 -17.5s61.833 -13.5 92.5 -23.5s58.667 -22.5 84 -37.5
s46 -36.5 62 -64.5s24 -61.333 24 -100c0 -50.667 -13.833 -92.667 -41.5 -126s-61.334 -56.333 -101.001 -69s-84.167 -19 -133.5 -19c-88.667 0 -161.334 20.667 -218.001 62l-26 -53h-84v262h93c6.66699 -52.667 30 -95.5 70 -128.5s89.333 -49.5 148 -49.5
c29.333 0 55.833 7.66699 79.5 23s35.5 36.333 35.5 63c0 19.333 -8 35 -24 47s-36.667 21.333 -62 28s-53.5 12.667 -84.5 18s-61.833 12.666 -92.5 21.999s-58.667 21.333 -84 36s-46 35.834 -62 63.501s-24 60.834 -24 99.501c0 32 5.66699 60.333 17 85s26 44.667 44 60
s39.833 28 65.5 38s51.5 17 77.5 21s53.667 6 83 6c65.333 0 128.666 -19.333 189.999 -58l18 47h83zM250.002 895.999l107 -92l106 92h79l-123 -180h-125l-122 180h78z" />
    <glyph glyph-name="scaron" unicode="&#x161;" horiz-adv-x="556" 
d="M41 168l81.9961 -0.000976562c4 -28 20.333 -52.167 49 -72.5s57.667 -30.5 87 -30.5c56.667 0 85 14.667 85 44c0 15.333 -10.667 27.5 -32 36.5s-47.166 16.833 -77.499 23.5s-60.666 14.834 -90.999 24.501s-56.166 25.5 -77.499 47.5s-32 50 -32 84
c0 28.667 6.83301 53.667 20.5 75s31.834 37.833 54.501 49.5s46.5 20.167 71.5 25.5s50.833 8 77.5 8c54 0 105.667 -14 155 -42l12 30h69v-150h-76c-9.33301 26 -26.333 46.667 -51 62c-22 13.333 -48.333 20 -79 20c-10.667 0 -21 -0.833008 -31 -2.5
s-20.167 -5.5 -30.5 -11.5s-15.5 -14.333 -15.5 -25c0 -13.333 7.66699 -24.166 23 -32.499s34.5 -14.333 57.5 -18s47.833 -9.16699 74.5 -16.5s51.5 -15.833 74.5 -25.5s42.167 -25 57.5 -46s23 -46.833 23 -77.5c0 -38 -11 -69.833 -33 -95.5
s-48.333 -43.334 -79 -53.001s-64.667 -14.5 -102 -14.5c-74 0 -132.667 15 -176 45l-15 -34h-75v172zM171.996 722.999l107 -92l106 92h79l-123 -180h-125l-122 180h78z" />
    <glyph glyph-name="Ydieresis" unicode="&#x178;" horiz-adv-x="778" 
d="M23 663h381v-88h-41c-20.667 0 -31 -5.33301 -31 -16c0 -6.66699 5 -18 15 -34l88 -137l89 137c10 16 15 27.333 15 34c0 10.667 -10.333 16 -31 16h-41v88h288v-88h-21c-34 0 -57 -9 -69 -27l-178 -281v-139c0 -26.667 13 -40 39 -40h68v-88h-400v88h66
c26 0 39 13.333 39 40v139l-158 252c-14 22 -27.167 36.833 -39.5 44.5s-31.5 11.5 -57.5 11.5h-21v88zM303 878c22 0 40.667 -7.83301 56 -23.5s23 -34.167 23 -55.5c0 -22 -7.66699 -40.667 -23 -56s-34 -23 -56 -23s-40.667 7.66699 -56 23s-23 34 -23 56
c0 21.333 7.66699 39.833 23 55.5s34 23.5 56 23.5zM523 878c22 0 40.667 -7.83301 56 -23.5s23 -34.167 23 -55.5c0 -22 -7.66699 -40.667 -23 -56s-34 -23 -56 -23s-40.667 7.66699 -56 23s-23 34 -23 56c0 21.333 7.66699 39.833 23 55.5s34 23.5 56 23.5z" />
    <glyph glyph-name="Zcaron" unicode="&#x17d;" horiz-adv-x="667" 
d="M29 0v90.998l385 484h-107c-67.333 0 -113.166 -12.167 -137.499 -36.5s-36.5 -67.166 -36.5 -128.499h-93v253h591v-90l-385 -485h116c67.333 0 113.166 13.333 137.499 40s36.5 74.334 36.5 143.001h93v-271h-600zM250 895.998l107 -92l106 92h79l-123 -180h-125
l-122 180h78z" />
    <glyph glyph-name="zcaron" unicode="&#x17e;" horiz-adv-x="500" 
d="M472 380l-258 -300h90c57.333 0 86 28 86 84v53h80v-217h-442v97l252 291h-93c-26 0 -43.833 -5.5 -53.5 -16.5s-14.5 -29.167 -14.5 -54.5v-45h-80v196h433v-88zM144 723l107 -92l106 92h79l-123 -180h-125l-122 180h78z" />
    <glyph glyph-name="florin" unicode="&#x192;" 
d="M229 344h-124.997v74h138c24.667 176.667 102.667 265 234 265c33.333 0 62.5 -8.33301 87.5 -25s37.5 -40.667 37.5 -72c0 -20 -6.5 -36.833 -19.5 -50.5s-29.5 -20.5 -49.5 -20.5c-44.667 0 -67 20.333 -67 61c0 10 3.33301 19 10 27s14.667 13 24 15v2
c-8.66699 2 -17.334 3 -26.001 3c-22.667 0 -38.334 -7.5 -47.001 -22.5s-14 -42.833 -16 -83.5l-5 -99h134v-74h-143l-35 -296c-20.667 -173.333 -95.334 -260 -224.001 -260c-21.333 0 -41.333 2.33301 -60 7s-35.667 14 -51 28s-23 31.667 -23 53s6.66699 40 20 56
s30.666 24 51.999 24c19.333 0 35.333 -5 48 -15s19 -24.667 19 -44c0 -11.333 -3.33301 -21.333 -10 -30s-15.667 -12.667 -27 -12c4.66699 -4.66699 12.334 -7 23.001 -7c23.333 0 39.5 9.83301 48.5 29.5s15.5 54.5 19.5 104.5z" />
    <glyph glyph-name="circumflex" unicode="&#x2c6;" horiz-adv-x="333" 
d="M167 635l-107 -92h-78l122 180h125l123 -180h-79z" />
    <glyph glyph-name="caron" unicode="&#x2c7;" horiz-adv-x="333" 
d="M60 723l107 -92l106 92h79l-123 -180h-125l-122 180h78z" />
    <glyph glyph-name="breve" unicode="&#x2d8;" horiz-adv-x="333" 
d="M4 712h57.999c0.666992 -26.667 10.667 -46.834 30 -60.501s44 -20.5 74 -20.5c26.667 0 49.834 6.83301 69.501 20.5s31.5 33.834 35.5 60.501h58c-8.66699 -112.667 -63 -169 -163 -169c-54.667 0 -95.667 15 -123 45s-40.333 71.333 -39 124z" />
    <glyph glyph-name="dotaccent" unicode="&#x2d9;" horiz-adv-x="333" 
d="M166 705c22 0 40.667 -7.83301 56 -23.5s23 -34.167 23 -55.5c0 -22 -7.66699 -40.667 -23 -56s-34 -23 -56 -23s-40.667 7.66699 -56 23s-23 34 -23 56c0 21.333 7.66699 39.833 23 55.5s34 23.5 56 23.5z" />
    <glyph glyph-name="ring" unicode="&#x2da;" horiz-adv-x="333" 
d="M166 767c31.333 0 58 -11 80 -33s33 -48.333 33 -79s-11 -57 -33 -79s-48.667 -33 -80 -33s-58 11 -80 33s-33 48.333 -33 79s11 57 33 79s48.667 33 80 33zM166 707c-14.667 0 -27.167 -5.16699 -37.5 -15.5s-15.5 -22.5 -15.5 -36.5c0 -14.667 5.16699 -27 15.5 -37
s22.833 -15 37.5 -15c14 0 26.333 5.16699 37 15.5s16 22.5 16 36.5s-5.33301 26.167 -16 36.5s-23 15.5 -37 15.5z" />
    <glyph glyph-name="ogonek" unicode="&#x2db;" horiz-adv-x="333" 
d="M258 21l-0.000976562 -15.0029c-34.667 -12 -67 -28.5 -97 -49.5s-45 -45.167 -45 -72.5c0 -14.667 4.83301 -26.167 14.5 -34.5s20.834 -12.5 33.501 -12.5c22.667 0 54.667 13.333 96 40l22 -40c-56.667 -41.333 -108.667 -62 -156 -62
c-31.333 0 -58.166 8.83301 -80.499 26.5s-33.5 41.5 -33.5 71.5c0 22 9.16699 42.333 27.5 61s41.333 33.834 69 45.501s54.167 20.834 79.5 27.501s48.666 11.334 69.999 14.001z" />
    <glyph glyph-name="tilde" unicode="&#x2dc;" horiz-adv-x="333" 
d="M311 704h54.999c-8 -39.333 -22.167 -73.5 -42.5 -102.5s-48.166 -43.5 -83.499 -43.5c-28.667 0 -61.667 9 -99 27c-40 17.333 -64.333 26 -73 26c-24.667 0 -40.334 -16 -47.001 -48h-52c4 42 17.333 76.667 40 104s53.667 41 93 41
c18.667 0 47.334 -8.66699 86.001 -26s63.667 -26 75 -26c24 0 40 16 48 48z" />
    <glyph glyph-name="hungarumlaut" unicode="&#x2dd;" horiz-adv-x="333" 
d="M274 533h-71l76 163c20.667 44 47 66 79 66c17.333 0 31.333 -4.5 42 -13.5s16 -21.167 16 -36.5c0 -20.667 -14 -45.667 -42 -75zM65 533h-71l76 163c20.667 44 47 66 79 66c17.333 0 31.333 -4.5 42 -13.5s16 -21.167 16 -36.5c0 -20.667 -14 -45.667 -42 -75z" />
    <glyph glyph-name="mu" unicode="&#x3bc;" horiz-adv-x="667" 
d="M641 80l0.00195312 -79.998h-230v77h-2c-20.667 -30.667 -43.334 -53.334 -68.001 -68.001s-54.667 -22.334 -90 -23.001v-198h-235v80h32c24.667 0 37 16 37 48v429c0 14.667 -2.5 25.5 -7.5 32.5s-14.5 10.5 -28.5 10.5h-33v80h235v-295c0 -22 0.333008 -37.5 1 -46.5
s3.5 -18.333 8.5 -28s12.667 -16 23 -19s25.166 -4.5 44.499 -4.5c22 0 40 8.66699 54 26s21 37 21 59v185c0 14.667 -2.5 25.5 -7.5 32.5s-14.5 10.5 -28.5 10.5h-44v80h246v-345c0 -14.667 2.5 -25.5 7.5 -32.5s14.5 -10.5 28.5 -10.5h36z" />
    <glyph glyph-name="endash" unicode="&#x2013;" horiz-adv-x="500" 
d="M500 179h-500v110h500v-110z" />
    <glyph glyph-name="emdash" unicode="&#x2014;" horiz-adv-x="1000" 
d="M1000 179h-1000v110h1000v-110z" />
    <glyph glyph-name="quoteleft" unicode="&#x2018;" horiz-adv-x="278" 
d="M216 683v-49c-25.333 -6.66699 -45 -15.667 -59 -27s-22.333 -28.333 -25 -51c6.66699 4.66699 17.667 7 33 7c18.667 0 33.667 -6.16699 45 -18.5s17 -27.833 17 -46.5c0 -28 -7.33301 -49.667 -22 -65s-36 -23 -64 -23c-27.333 0 -49.166 10 -65.499 30
s-24.5 44 -24.5 72c0 48 15.167 86.5 45.5 115.5s70.166 47.5 119.499 55.5z" />
    <glyph glyph-name="quoteright" unicode="&#x2019;" horiz-adv-x="278" 
d="M62 410v49c25.333 6.66699 45 15.667 59 27s22.333 28.333 25 51c-6.66699 -4.66699 -17.667 -7 -33 -7c-18.667 0 -33.667 6.16699 -45 18.5s-17 27.833 -17 46.5c0 28 7.33301 49.667 22 65s36 23 64 23c27.333 0 49.166 -10 65.499 -30s24.5 -44 24.5 -72
c0 -48 -15.167 -86.5 -45.5 -115.5s-70.166 -47.5 -119.499 -55.5z" />
    <glyph glyph-name="quotesinglbase" unicode="&#x201a;" horiz-adv-x="278" 
d="M62 -120v49c25.333 6.66699 45 15.667 59 27s22.333 28.333 25 51c-6.66699 -4.66699 -17.667 -7 -33 -7c-18.667 0 -33.667 6.16699 -45 18.5s-17 27.833 -17 46.5c0 28 7.33301 49.667 22 65s36 23 64 23c27.333 0 49.166 -10 65.499 -30s24.5 -44 24.5 -72
c0 -48 -15.167 -86.5 -45.5 -115.5s-70.166 -47.5 -119.499 -55.5z" />
    <glyph glyph-name="quotedblleft" unicode="&#x201c;" horiz-adv-x="500" 
d="M197 683v-49c-25.333 -6.66699 -45 -15.667 -59 -27s-22.333 -28.333 -25 -51c6.66699 4.66699 17.667 7 33 7c18.667 0 33.667 -6.16699 45 -18.5s17 -27.833 17 -46.5c0 -28 -7.33301 -49.667 -22 -65s-36 -23 -64 -23c-27.333 0 -49.166 10 -65.499 30
s-24.5 44 -24.5 72c0 48 15.167 86.5 45.5 115.5s70.166 47.5 119.499 55.5zM457 683v-49c-25.333 -6.66699 -45 -15.667 -59 -27s-22.333 -28.333 -25 -51c6.66699 4.66699 17.667 7 33 7c18.667 0 33.667 -6.16699 45 -18.5s17 -27.833 17 -46.5
c0 -28 -7.33301 -49.667 -22 -65s-36 -23 -64 -23c-27.333 0 -49.166 10 -65.499 30s-24.5 44 -24.5 72c0 48 15.167 86.5 45.5 115.5s70.166 47.5 119.499 55.5z" />
    <glyph glyph-name="quotedblright" unicode="&#x201d;" horiz-adv-x="500" 
d="M303 410v49c25.333 6.66699 45 15.667 59 27s22.333 28.333 25 51c-6.66699 -4.66699 -17.667 -7 -33 -7c-18.667 0 -33.667 6.16699 -45 18.5s-17 27.833 -17 46.5c0 28 7.33301 49.667 22 65s36 23 64 23c27.333 0 49.166 -10 65.499 -30s24.5 -44 24.5 -72
c0 -48 -15.167 -86.5 -45.5 -115.5s-70.166 -47.5 -119.499 -55.5zM43 410v49c25.333 6.66699 45 15.667 59 27s22.333 28.333 25 51c-6.66699 -4.66699 -17.667 -7 -33 -7c-18.667 0 -33.667 6.16699 -45 18.5s-17 27.833 -17 46.5c0 28 7.33301 49.667 22 65s36 23 64 23
c27.333 0 49.166 -10 65.499 -30s24.5 -44 24.5 -72c0 -48 -15.167 -86.5 -45.5 -115.5s-70.166 -47.5 -119.499 -55.5z" />
    <glyph glyph-name="quotedblbase" unicode="&#x201e;" horiz-adv-x="500" 
d="M303 -120v49c25.333 6.66699 45 15.667 59 27s22.333 28.333 25 51c-6.66699 -4.66699 -17.667 -7 -33 -7c-18.667 0 -33.667 6.16699 -45 18.5s-17 27.833 -17 46.5c0 28 7.33301 49.667 22 65s36 23 64 23c27.333 0 49.166 -10 65.499 -30s24.5 -44 24.5 -72
c0 -48 -15.167 -86.5 -45.5 -115.5s-70.166 -47.5 -119.499 -55.5zM43 -120v49c25.333 6.66699 45 15.667 59 27s22.333 28.333 25 51c-6.66699 -4.66699 -17.667 -7 -33 -7c-18.667 0 -33.667 6.16699 -45 18.5s-17 27.833 -17 46.5c0 28 7.33301 49.667 22 65s36 23 64 23
c27.333 0 49.166 -10 65.499 -30s24.5 -44 24.5 -72c0 -48 -15.167 -86.5 -45.5 -115.5s-70.166 -47.5 -119.499 -55.5z" />
    <glyph glyph-name="dagger" unicode="&#x2020;" 
d="M273 265l-0.00195312 77c-20 0 -45 -6.33301 -75 -19s-54.333 -19 -73 -19c-21.333 0 -37.666 6.16699 -48.999 18.5s-17 28.833 -17 49.5c0 42.667 22 65 66 67c19.333 1.33301 44 -4.5 74 -17.5s54.333 -19.5 73 -19.5c0.666992 22.667 -5.83301 56 -19.5 100
s-20.5 77 -20.5 99c0 54.667 24.667 82 74 82h-1c49.333 0 74 -27.333 74 -82c0 -22 -6.83301 -55 -20.5 -99s-20.167 -77.333 -19.5 -100c18.667 0 43 6.5 73 19.5s54.667 18.833 74 17.5c44 -2 66 -24.333 66 -67c0 -20.667 -5.66699 -37.167 -17 -49.5
s-27.666 -18.5 -48.999 -18.5c-18.667 0 -43 6.33301 -73 19s-55 19 -75 19v-77c0 -22.667 6.83301 -84 20.5 -184s20.5 -166.667 20.5 -200c0 -62 -24.333 -93 -73 -93c-49.333 0 -74 31 -74 93c0 33.333 6.83301 100 20.5 200s20.5 161.333 20.5 184z" />
    <glyph glyph-name="daggerdbl" unicode="&#x2021;" 
d="M306 683c20.667 0 38.165 -6.33496 52.498 -19.002s21.5 -29.334 21.5 -50.001c0 -19.333 -6.66699 -48.666 -20 -87.999s-20 -68 -20 -86c19.333 0 43.666 6.66699 72.999 20c32 12.667 56.333 18.334 73 17.001c44 -2 66 -24.333 66 -67
c0 -20.667 -5.66699 -37.167 -17 -49.5s-27.666 -18.5 -48.999 -18.5c-16 0 -40.333 6.33301 -73 19c-28 12.667 -52.333 19 -73 19c0 -56 14.667 -104.333 44 -145c-29.333 -40 -44 -85.667 -44 -137c19.333 0 43.666 6.66699 72.999 20c32 12.667 56.333 18.334 73 17.001
c44 -2 66 -24.333 66 -67c0 -20.667 -5.66699 -37.167 -17 -49.5s-27.666 -18.5 -48.999 -18.5c-16 -0 -40.333 6.33301 -73 19c-28 12.667 -52.333 19 -73 19c0 -21.333 6.66699 -52.166 20 -92.499s20 -69.833 20 -88.5c0 -20.667 -7.16699 -37.334 -21.5 -50.001
s-31.833 -19 -52.5 -19s-38.167 6.33301 -52.5 19s-21.5 29.334 -21.5 50.001c0 19.333 6.66699 49 20 89s20 70 20 90c-21.333 0 -46 -6.33301 -74 -19c-32.667 -12.667 -57 -19 -73 -19c-21.333 0 -37.666 6.16699 -48.999 18.5s-17 28.833 -17 49.5c0 42.667 22 65 66 67
c16.667 1.33301 41 -4.33398 73 -17.001c29.333 -13.333 54 -20 74 -20c0 52.667 -14 99 -42 139c28 41.333 42 90.333 42 147c-21.333 0 -46 -6.33301 -74 -19c-32.667 -12.667 -57 -19 -73 -19c-21.333 0 -37.666 6.16699 -48.999 18.5s-17 28.833 -17 49.5
c0 42.667 22 65 66 67c16.667 1.33301 41 -4.33398 73 -17.001c29.333 -13.333 54 -20 74 -20c0 17.333 -6.66699 45.333 -20 84s-20 68 -20 88c0 20.667 7.16699 37.334 21.5 50.001s31.833 19 52.5 19z" />
    <glyph glyph-name="bullet" unicode="&#x2022;" horiz-adv-x="500" 
d="M250 498c46 0 85.167 -16 117.5 -48s48.5 -71.333 48.5 -118s-16.167 -86 -48.5 -118s-71.5 -48 -117.5 -48s-85.167 16 -117.5 48s-48.5 71.333 -48.5 118s16.167 86 48.5 118s71.5 48 117.5 48z" />
    <glyph glyph-name="ellipsis" unicode="&#x2026;" horiz-adv-x="1000" 
d="M166 153c22.667 0 42.334 -8.33301 59.001 -25s25 -36.334 25 -59.001s-8.33301 -42.167 -25 -58.5s-36.334 -24.5 -59.001 -24.5s-42.167 8.16699 -58.5 24.5s-24.5 35.833 -24.5 58.5s8.16699 42.334 24.5 59.001s35.833 25 58.5 25zM499 153
c22.667 0 42.334 -8.33301 59.001 -25s25 -36.334 25 -59.001s-8.33301 -42.167 -25 -58.5s-36.334 -24.5 -59.001 -24.5s-42.167 8.16699 -58.5 24.5s-24.5 35.833 -24.5 58.5s8.16699 42.334 24.5 59.001s35.833 25 58.5 25zM832 153c22.667 0 42.334 -8.33301 59.001 -25
s25 -36.334 25 -59.001s-8.33301 -42.167 -25 -58.5s-36.334 -24.5 -59.001 -24.5s-42.167 8.16699 -58.5 24.5s-24.5 35.833 -24.5 58.5s8.16699 42.334 24.5 59.001s35.833 25 58.5 25z" />
    <glyph glyph-name="perthousand" unicode="&#x2030;" horiz-adv-x="1000" 
d="M152 -15h-55l408 635h59zM161 572c-37.333 0 -56 -42.333 -56 -127s18.667 -127 56 -127s56 42.333 56 127s-18.667 127 -56 127zM161 620c48.667 0 86.334 -17.5 113.001 -52.5s40 -75.833 40 -122.5s-13.333 -87.5 -40 -122.5s-64.334 -52.5 -113.001 -52.5
s-86.334 17.5 -113.001 52.5s-40 75.833 -40 122.5s13.333 87.5 40 122.5s64.334 52.5 113.001 52.5zM496 287c-37.333 0 -56 -42.333 -56 -127s18.667 -127 56 -127s56 42.333 56 127s-18.667 127 -56 127zM496 335c48.667 0 86.334 -17.5 113.001 -52.5
s40 -75.833 40 -122.5s-13.333 -87.5 -40 -122.5s-64.334 -52.5 -113.001 -52.5s-86.334 17.5 -113.001 52.5s-40 75.833 -40 122.5s13.333 87.5 40 122.5s64.334 52.5 113.001 52.5zM839 287c-37.333 0 -56 -42.333 -56 -127s18.667 -127 56 -127s56 42.333 56 127
s-18.667 127 -56 127zM839 335c48.667 0 86.334 -17.5 113.001 -52.5s40 -75.833 40 -122.5s-13.333 -87.5 -40 -122.5s-64.334 -52.5 -113.001 -52.5s-86.334 17.5 -113.001 52.5s-40 75.833 -40 122.5s13.333 87.5 40 122.5s64.334 52.5 113.001 52.5z" />
    <glyph glyph-name="guilsinglleft" unicode="&#x2039;" horiz-adv-x="278" 
d="M148 403l86 -0.00195312l-16 -37c-1.33301 -2.66699 -5.33301 -11.167 -12 -25.5l-17.5 -38.5c-5 -11.333 -9.83301 -23.666 -14.5 -36.999s-7 -23.666 -7 -30.999s2.33301 -17.666 7 -30.999s9.5 -25.666 14.5 -36.999l17.5 -38.5
c6.66699 -14.333 10.667 -22.833 12 -25.5l16 -37h-86l-42 61c-1.33301 2 -6.33301 8.66699 -15 20s-16 21.333 -22 30s-11.833 18.667 -17.5 30s-8.5 20.666 -8.5 27.999s2.83301 16.666 8.5 27.999s11.5 21.333 17.5 30s13.333 18.667 22 30s13.667 18 15 20z" />
    <glyph glyph-name="guilsinglright" unicode="&#x203a;" horiz-adv-x="278" 
d="M130 65l-86 0.00195312l16 37c1.33301 2.66699 5.33301 11.167 12 25.5l17.5 38.5c5 11.333 9.83301 23.666 14.5 36.999s7 23.666 7 30.999s-2.33301 17.666 -7 30.999s-9.5 25.666 -14.5 36.999l-17.5 38.5c-6.66699 14.333 -10.667 22.833 -12 25.5l-16 37h86l42 -61
c1.33301 -2 6.33301 -8.66699 15 -20s16 -21.333 22 -30s11.833 -18.667 17.5 -30s8.5 -20.666 8.5 -27.999s-2.83301 -16.666 -8.5 -27.999s-11.5 -21.333 -17.5 -30s-13.333 -18.667 -22 -30s-13.667 -18 -15 -20z" />
    <glyph glyph-name="fraction" unicode="&#x2044;" horiz-adv-x="167" 
d="M-167 -15l439 635h62l-437 -635h-64z" />
    <glyph glyph-name="trademark" unicode="&#x2122;" horiz-adv-x="1000" 
d="M259 636v-310c0 -16 2.5 -26.5 7.5 -31.5s19.5 -7.83301 43.5 -8.5v-27h-224v27c24 0.666992 38.5 3.5 43.5 8.5s7.5 15.5 7.5 31.5v310h-42c-34 0 -54.667 -20.333 -62 -61h-27v88h384v-88h-27c-7.33301 40.667 -28 61 -62 61h-42zM663 260l-128.001 274h-2v-174
c0 -30.667 2.5 -50.5 7.5 -59.5s19.5 -13.833 43.5 -14.5v-27h-135v27c23.333 0.666992 37.5 5.5 42.5 14.5s7.5 28.833 7.5 59.5v222c0 16 -7.66699 29 -23 39s-31.666 15 -48.999 15v27h163l127 -263l138 263h139v-27c-24 0 -38.5 -2.66699 -43.5 -8s-7.5 -16 -7.5 -32
v-270c0 -16 2.5 -26.5 7.5 -31.5s19.5 -7.83301 43.5 -8.5v-27h-224v27c24 0.666992 38.5 3.5 43.5 8.5s7.5 15.5 7.5 31.5v208h-2l-140 -274h-16z" />
    <glyph glyph-name="minus" unicode="&#x2212;" horiz-adv-x="600" 
d="M533 178h-467v111h467v-111z" />
    <glyph glyph-name="fi" unicode="&#xfb01;" horiz-adv-x="667" 
d="M258 376l-0.00195312 -253c0 -14.667 2.5 -25.5 7.5 -32.5s14.5 -10.5 28.5 -10.5h24v-80h-300v80h38c14 0 23.5 3.5 28.5 10.5s7.5 17.833 7.5 32.5v253h-74v80h74v58c0 34.667 7.5 63.834 22.5 87.501s36.333 41.167 64 52.5s55.334 19 83.001 23s59.5 6 95.5 6
c19.333 0 40 -1.66699 62 -5s44.5 -8.83301 67.5 -16.5s42 -18.834 57 -33.501s22.5 -32 22.5 -52c0 -50.667 -30 -76 -90 -76c-21.333 0 -38.666 5.33301 -51.999 16s-20 25 -20 43c0 22.667 6.66699 39 20 49c-22 6 -51 9 -87 9c-52.667 0 -79 -32.667 -79 -98v-63h326
v-333c0 -14.667 2.5 -25.5 7.5 -32.5s14.5 -10.5 28.5 -10.5h31v-80h-292v80h23c14 0 23.5 3.5 28.5 10.5s7.5 17.833 7.5 32.5v210c0 14.667 -2.5 25.5 -7.5 32.5s-14.5 10.5 -28.5 10.5h-124z" />
    <glyph glyph-name="fl" unicode="&#xfb02;" horiz-adv-x="667" 
d="M92 123v253h-74v80h74v39c0 61.333 18.5 108 55.5 140s91.833 48 164.5 48h272v-560c0 -14.667 2.5 -25.5 7.5 -32.5s14.5 -10.5 28.5 -10.5h29v-80h-292v80h25c14 0 23.5 3.5 28.5 10.5s7.5 17.833 7.5 32.5v375c-37.333 8 -56 28 -56 60c0 28.667 19.667 47.667 59 57
v2h-52c-74 0 -111 -33 -111 -99v-62h85v-80h-85v-253c0 -14.667 2.5 -25.5 7.5 -32.5s14.5 -10.5 28.5 -10.5h24v-80h-300v80h38c14 0 23.5 3.5 28.5 10.5s7.5 17.833 7.5 32.5z" />
    <glyph glyph-name=".null" horiz-adv-x="0" 
 />
    <glyph glyph-name="nonmarkingreturn" horiz-adv-x="333" 
 />
  </font>
</defs>
</svg>
