<?xml version="1.0" standalone="no"?>
<!DOCTYPE svg PUBLIC "-//W3C//DTD SVG 20010904//EN"
 "http://www.w3.org/TR/2001/REC-SVG-20010904/DTD/svg10.dtd">
<svg version="1.0" xmlns="http://www.w3.org/2000/svg"
 width="202.000000pt" height="202.000000pt" viewBox="0 0 202.000000 202.000000"
 preserveAspectRatio="xMidYMid meet">
<metadata>
Created by potrace 1.11, written by Peter Selinger 2001-2013
</metadata>
<g transform="translate(0.000000,202.000000) scale(0.100000,-0.100000)"
fill="#000000" stroke="none">
<path d="M958 1943 c28 -2 76 -2 105 0 28 2 5 3 -53 3 -58 0 -81 -1 -52 -3z"/>
<path d="M838 1933 c7 -3 16 -2 19 1 4 3 -2 6 -13 5 -11 0 -14 -3 -6 -6z"/>
<path d="M1158 1933 c7 -3 16 -2 19 1 4 3 -2 6 -13 5 -11 0 -14 -3 -6 -6z"/>
<path d="M798 1923 c7 -3 16 -2 19 1 4 3 -2 6 -13 5 -11 0 -14 -3 -6 -6z"/>
<path d="M835 1885 c-493 -113 -783 -552 -685 -1036 86 -422 469 -718 900
-696 217 11 404 88 554 228 117 110 193 225 239 361 65 190 62 412 -6 583 -39
98 -49 117 -91 180 -115 173 -305 312 -501 366 -101 27 -319 35 -410 14z m377
-25 c263 -66 469 -233 580 -472 61 -130 73 -189 73 -368 -1 -154 -3 -171 -29
-250 -36 -109 -67 -169 -127 -250 -116 -158 -274 -267 -464 -322 -69 -20 -102
-23 -235 -23 -179 1 -232 12 -374 79 -149 70 -258 165 -355 309 -87 129 -135
295 -134 467 1 143 21 236 78 357 110 234 314 405 559 469 122 31 314 33 428
4z"/>
<path d="M890 1840 c-398 -54 -712 -410 -709 -804 0 -78 15 -201 18 -155 1 23
76 32 112 13 16 -8 39 -14 53 -14 14 0 28 -5 31 -11 4 -6 13 -8 20 -5 21 8 36
-14 24 -36 -6 -11 -9 -21 -7 -22 21 -14 63 -25 69 -19 4 4 2 104 -4 222 -10
205 -10 214 8 227 17 13 16 14 -18 14 -40 0 -40 0 -37 66 1 34 -4 47 -31 73
-28 28 -37 32 -66 26 -19 -3 -41 -9 -49 -12 -27 -10 -14 23 33 88 49 66 63 79
98 91 26 8 242 72 370 108 55 16 108 32 116 35 17 6 56 -41 44 -53 -3 -4 -10
0 -15 8 -15 24 -20 6 -9 -35 6 -24 7 -66 2 -104 -8 -62 -9 -65 -41 -73 -36
-10 -72 4 -72 27 0 22 -21 18 -53 -9 -15 -13 -43 -27 -61 -30 -28 -5 -33 -11
-33 -33 0 -21 1 -23 9 -9 16 29 131 66 143 46 3 -6 15 -10 27 -10 11 0 32 -9
47 -19 14 -10 42 -26 61 -34 l35 -15 -28 -1 c-16 -1 -38 4 -49 10 -15 8 -19 8
-14 0 14 -22 62 -41 75 -28 8 8 11 7 11 -6 0 -20 31 -23 62 -6 20 11 20 13 5
24 -9 7 -17 28 -18 53 -3 42 7 65 19 46 4 -6 15 -13 25 -17 16 -6 17 -9 3 -22
-8 -8 -19 -15 -25 -15 -6 0 -11 -4 -11 -10 0 -5 15 -10 34 -10 26 0 36 5 41
20 9 27 24 25 35 -5 9 -25 28 -32 89 -37 23 -2 39 -11 50 -27 15 -24 15 -24
-6 -19 -14 4 -24 1 -28 -10 -7 -19 -4 -22 38 -29 30 -4 40 0 75 31 24 22 43
33 47 26 3 -5 3 -14 0 -20 -5 -9 41 -16 69 -11 15 3 56 -29 56 -44 0 -7 -9
-17 -20 -20 -19 -6 -29 -26 -12 -24 18 3 32 -2 32 -12 0 -5 -5 -7 -12 -3 -8 5
-9 2 -5 -10 4 -10 7 -20 7 -24 0 -3 6 3 14 14 14 19 15 19 39 -4 13 -13 37
-25 52 -28 94 -17 81 -72 -32 -142 -8 -5 -9 -49 -2 -172 6 -91 13 -185 17
-210 7 -43 9 -45 40 -42 28 3 45 -11 25 -20 -5 -2 -21 -21 -38 -43 -48 -66
-88 -105 -131 -131 -47 -28 -54 -29 -54 -10 0 9 -7 12 -20 9 -19 -5 -20 -7 -5
-29 15 -23 14 -25 -9 -35 -19 -9 -37 -9 -72 0 -61 16 -153 5 -177 -20 -14 -15
-15 -19 -3 -19 7 0 17 -7 20 -16 9 -22 8 -24 -11 -25 -15 0 -15 -2 2 -8 17 -7
14 -10 -20 -20 -61 -17 -69 -14 -95 35 l-25 46 -60 -6 c-33 -4 -109 -14 -169
-22 -117 -17 -161 -14 -192 14 -11 9 -26 18 -34 20 -35 7 -220 152 -220 172 0
4 19 11 43 15 69 11 77 15 77 40 0 19 -7 26 -27 30 -16 4 -50 12 -78 20 -27 8
-62 17 -77 21 -32 7 -58 43 -58 81 0 43 -11 73 -26 73 -7 0 -20 21 -28 48 -8
26 -15 39 -15 30 -1 -28 55 -174 95 -246 48 -87 186 -224 283 -282 321 -191
732 -149 1000 104 181 172 273 402 257 646 -24 375 -276 669 -651 759 -61 15
-222 21 -295 11z m99 -327 c1 -24 -3 -43 -9 -43 -6 0 -9 37 -9 93 2 82 2 87 9
42 5 -27 9 -69 9 -92z m156 -43 c3 -5 2 -10 -4 -10 -5 0 -13 5 -16 10 -3 6 -2
10 4 10 5 0 13 -4 16 -10z m-165 -42 c0 -19 -2 -20 -10 -8 -13 19 -13 30 0 30
6 0 10 -10 10 -22z"/>
<path d="M870 1608 c0 -16 -81 -68 -106 -68 -10 0 -25 -4 -33 -9 -11 -7 -9
-10 7 -16 15 -4 40 5 82 29 34 20 72 36 86 36 13 0 24 5 24 10 0 6 -9 10 -20
10 -11 0 -20 5 -20 10 0 6 -4 10 -10 10 -5 0 -10 -6 -10 -12z"/>
<path d="M611 1576 c2 -2 22 -6 44 -9 28 -5 34 -4 20 3 -19 8 -73 14 -64 6z"/>
<path d="M577 1533 c-4 -3 -7 -11 -7 -17 0 -6 5 -5 12 2 6 6 9 14 7 17 -3 3
-9 2 -12 -2z"/>
<path d="M530 1484 c0 -6 -12 -16 -26 -22 -14 -7 -22 -17 -19 -23 5 -7 12 -6
23 4 10 8 22 16 29 18 8 3 9 9 3 19 -5 8 -10 10 -10 4z"/>
<path d="M1210 1351 c0 -26 10 -51 21 -51 10 0 12 31 3 54 -9 22 -24 20 -24
-3z"/>
<path d="M943 1004 c3 -279 6 -337 18 -345 28 -18 32 -8 27 79 -3 48 -2 101 2
117 l8 30 1 -30 2 -30 14 34 c8 18 13 36 10 40 -2 4 2 30 9 58 13 49 13 53
-15 104 -27 48 -29 60 -29 160 0 108 -4 119 -41 119 -6 0 -9 -125 -6 -336z"/>
<path d="M1044 1326 c-10 -8 -15 -18 -11 -22 4 -4 15 0 24 9 22 21 12 31 -13
13z"/>
<path d="M1188 1309 c-5 -16 20 -69 33 -69 14 0 11 16 -10 51 -11 18 -20 26
-23 18z"/>
<path d="M1100 1281 c0 -5 6 -16 14 -23 7 -8 17 -24 20 -36 4 -12 12 -22 18
-22 6 0 7 7 3 18 -4 9 -10 29 -13 45 -3 18 -10 27 -23 27 -11 0 -19 -4 -19 -9z"/>
<path d="M831 1253 c-1 -18 4 -33 9 -33 12 0 12 17 0 45 -7 17 -9 15 -9 -12z"/>
<path d="M1010 1262 c0 -12 5 -22 10 -22 6 0 10 -7 10 -15 0 -8 4 -23 9 -33 5
-9 28 -57 51 -106 30 -63 45 -85 51 -75 5 8 9 22 9 31 0 9 6 18 13 21 6 2 -3
7 -20 11 -25 6 -33 13 -33 30 0 12 -5 27 -12 34 -6 6 -11 24 -10 40 0 22 -4
29 -16 28 -10 0 -18 8 -20 20 -2 12 -12 30 -23 40 -18 16 -19 16 -19 -4z"/>
<path d="M1055 1269 c-10 -14 -1 -21 19 -13 9 3 13 10 10 15 -7 12 -21 11 -29
-2z"/>
<path d="M1315 1262 c-3 -3 1 -12 9 -21 13 -14 10 -18 -20 -33 -33 -17 -34
-17 -34 2 0 27 -12 31 -39 11 -29 -22 -22 -36 19 -45 33 -6 98 15 112 37 5 8
8 4 8 -11 0 -16 -8 -26 -29 -33 -23 -8 -30 -18 -35 -47 -7 -41 -7 -36 0 -146
5 -63 3 -78 -8 -74 -10 4 -13 -8 -13 -53 0 -64 -10 -75 -25 -31 -15 39 -32 73
-52 104 -23 33 -15 78 13 78 10 0 18 -6 16 -12 -1 -7 9 -14 23 -16 19 -2 22
-1 10 7 -12 8 -12 13 -2 23 6 6 12 22 12 34 0 22 -1 23 -37 8 -43 -17 -83 -57
-83 -82 0 -23 207 -432 231 -457 19 -19 19 -19 19 1 0 11 -7 29 -15 40 -17 23
-20 43 -3 26 22 -22 30 -12 24 31 -4 24 -2 114 4 201 l10 158 -25 30 c-14 16
-25 35 -25 41 0 30 30 121 45 137 16 17 15 20 -4 39 -12 12 -21 25 -21 30 0
15 -73 35 -85 23z"/>
<path d="M616 1224 c-4 -10 -1 -14 6 -12 15 5 23 28 10 28 -5 0 -13 -7 -16
-16z"/>
<path d="M827 1184 c-11 -11 -8 -62 3 -69 6 -3 10 -19 10 -35 0 -16 4 -32 10
-35 6 -4 8 16 4 57 -7 67 -16 93 -27 82z"/>
<path d="M1477 1130 c-10 -38 -8 -100 3 -100 18 0 23 28 13 78 -8 41 -10 44
-16 22z"/>
<path d="M1610 1090 c0 -5 5 -10 10 -10 6 0 10 5 10 10 0 6 -4 10 -10 10 -5 0
-10 -4 -10 -10z"/>
<path d="M871 944 c0 -11 3 -14 6 -6 3 7 2 16 -1 19 -3 4 -6 -2 -5 -13z"/>
<path d="M1261 924 c0 -11 3 -14 6 -6 3 7 2 16 -1 19 -3 4 -6 -2 -5 -13z"/>
<path d="M782 850 l1 -75 7 60 c5 33 4 67 -1 75 -5 9 -8 -13 -7 -60z"/>
<path d="M1101 844 c0 -11 3 -14 6 -6 3 7 2 16 -1 19 -3 4 -6 -2 -5 -13z"/>
<path d="M1109 791 c-13 -29 -25 -48 -27 -42 -3 10 -35 -13 -38 -28 -7 -28
-18 -51 -24 -51 -5 0 -3 -13 3 -29 9 -25 15 -29 38 -24 21 4 28 1 34 -16 8
-25 20 -27 29 -5 4 12 15 15 37 12 l31 -5 -6 75 c-5 47 -16 92 -30 120 l-23
45 -24 -52z"/>
<path d="M836 788 c-13 -40 -12 -59 0 -69 12 -9 14 -4 14 35 0 44 -7 60 -14
34z"/>
<path d="M341 764 c0 -11 3 -14 6 -6 3 7 2 16 -1 19 -3 4 -6 -2 -5 -13z"/>
<path d="M400 750 c8 -5 22 -9 30 -9 10 0 8 3 -5 9 -27 12 -43 12 -25 0z"/>
<path d="M449 708 c-1 -21 -3 -25 -6 -12 -2 12 -14 25 -26 28 -33 9 -37 7 -30
-11 5 -12 2 -15 -10 -10 -9 3 -19 2 -22 -3 -4 -6 -2 -10 4 -10 5 0 16 -7 24
-15 9 -8 53 -24 99 -36 45 -11 92 -24 103 -29 46 -19 193 -60 213 -60 19 0 22
6 22 40 0 23 -5 40 -11 40 -7 0 -9 -12 -5 -36 l7 -35 -24 16 c-20 13 -26 13
-29 3 -3 -7 -8 6 -12 30 -7 46 -28 54 -34 14 -2 -12 -8 -22 -13 -22 -6 0 -8 9
-4 20 3 11 2 27 -3 36 -7 13 -11 10 -17 -17 l-8 -34 -5 30 -5 30 -8 -25 -7
-25 -7 23 c-9 27 -25 30 -18 2 3 -11 0 -20 -6 -20 -15 0 -51 37 -51 53 0 8 -3
9 -8 1 -4 -6 -17 -13 -29 -16 -20 -5 -22 -2 -25 36 -2 34 -7 42 -25 44 -20 3
-23 -1 -24 -30z"/>
<path d="M630 730 c0 -5 5 -10 10 -10 6 0 10 5 10 10 0 6 -4 10 -10 10 -5 0
-10 -4 -10 -10z"/>
<path d="M668 713 c6 -2 18 -2 25 0 6 3 1 5 -13 5 -14 0 -19 -2 -12 -5z"/>
<path d="M1523 645 c2 -35 8 -60 16 -63 9 -3 10 9 5 50 -9 75 -25 86 -21 13z"/>
<path d="M828 674 c22 -15 31 -54 11 -54 -5 0 -7 -5 -4 -11 10 -15 28 -6 31
15 5 33 -14 66 -38 66 l-22 0 22 -16z"/>
<path d="M885 561 c2 -30 6 -36 25 -36 13 0 25 6 28 13 2 7 -5 12 -17 12 -12
0 -21 6 -21 15 0 19 9 19 31 -1 11 -10 25 -14 35 -10 16 6 16 8 2 23 -9 8 -32
16 -50 18 -34 2 -35 1 -33 -34z"/>
<path d="M1241 573 c7 -12 15 -20 18 -17 3 2 -3 12 -13 22 -17 16 -18 16 -5
-5z"/>
<path d="M840 550 c0 -11 4 -20 9 -20 5 0 7 9 4 20 -3 11 -7 20 -9 20 -2 0 -4
-9 -4 -20z"/>
<path d="M533 544 c-8 -21 -2 -23 37 -15 35 8 34 10 -15 26 -9 2 -18 -2 -22
-11z"/>
<path d="M1005 550 c-3 -5 -1 -10 4 -10 6 0 11 5 11 10 0 6 -2 10 -4 10 -3 0
-8 -4 -11 -10z"/>
<path d="M1060 524 c0 -17 7 -28 20 -31 11 -3 20 -11 20 -19 0 -8 6 -11 15 -8
21 8 21 74 -1 74 -11 0 -14 -6 -9 -20 4 -11 2 -20 -4 -20 -6 0 -11 9 -11 19 0
10 -7 21 -15 25 -11 4 -15 -2 -15 -20z"/>
<path d="M1140 500 c0 -39 14 -39 17 0 1 17 -2 30 -7 30 -6 0 -10 -13 -10 -30z"/>
<path d="M1180 504 c0 -16 37 -69 48 -69 3 0 6 19 7 43 1 40 0 42 -27 42 -19
0 -28 -5 -28 -16z"/>
<path d="M1251 463 c0 -31 2 -34 9 -18 12 28 12 55 0 55 -5 0 -10 -17 -9 -37z"/>
<path d="M1306 474 c-13 -33 -6 -55 20 -65 15 -5 28 -8 29 -7 1 2 5 22 8 46 5
41 4 42 -23 42 -16 0 -30 -7 -34 -16z m44 -28 c0 -19 -5 -24 -20 -23 -24 2
-24 2 -8 27 17 27 28 25 28 -4z"/>
<path d="M715 465 l-50 -14 63 6 c35 3 76 9 90 13 49 15 -47 10 -103 -5z"/>
<path d="M1396 457 c3 -10 9 -15 12 -12 3 3 0 11 -7 18 -10 9 -11 8 -5 -6z"/>
<path d="M1460 446 c0 -8 5 -18 10 -21 6 -3 10 1 10 9 0 8 -4 18 -10 21 -5 3
-10 -1 -10 -9z"/>
<path d="M551 439 c-24 -5 -47 -11 -50 -15 -8 -9 93 4 122 16 22 9 22 9 -3 8
-14 0 -45 -4 -69 -9z"/>
<path d="M1117 427 c-4 -11 -1 -17 8 -17 8 0 19 -8 24 -17 6 -10 11 -13 11 -7
0 7 -8 22 -18 34 -16 20 -19 21 -25 7z"/>
<path d="M1501 424 c0 -11 3 -14 6 -6 3 7 2 16 -1 19 -3 4 -6 -2 -5 -13z"/>
<path d="M1370 405 c0 -8 7 -15 15 -15 8 0 15 7 15 15 0 8 -7 15 -15 15 -8 0
-15 -7 -15 -15z"/>
<path d="M980 380 c-8 -5 -11 -12 -7 -16 4 -4 13 -2 19 4 15 15 7 24 -12 12z"/>
<path d="M1138 363 c7 -3 16 -2 19 1 4 3 -2 6 -13 5 -11 0 -14 -3 -6 -6z"/>
<path d="M665 330 c-3 -5 -1 -10 4 -10 6 0 11 5 11 10 0 6 -2 10 -4 10 -3 0
-8 -4 -11 -10z"/>
<path d="M1158 333 c6 -2 18 -2 25 0 6 3 1 5 -13 5 -14 0 -19 -2 -12 -5z"/>
<path d="M455 1770 c-3 -6 1 -7 9 -4 18 7 21 14 7 14 -6 0 -13 -4 -16 -10z"/>
<path d="M166 1425 c-9 -26 -7 -32 5 -12 6 10 9 21 6 23 -2 3 -7 -2 -11 -11z"/>
<path d="M1922 1170 c0 -14 2 -19 5 -12 2 6 2 18 0 25 -3 6 -5 1 -5 -13z"/>
<path d="M82 1090 c0 -19 2 -27 5 -17 2 9 2 25 0 35 -3 9 -5 1 -5 -18z"/>
<path d="M1934 1020 c0 -52 1 -74 3 -47 2 26 2 68 0 95 -2 26 -3 4 -3 -48z"/>
<path d="M1921 884 c0 -11 3 -14 6 -6 3 7 2 16 -1 19 -3 4 -6 -2 -5 -13z"/>
<path d="M1911 834 c0 -11 3 -14 6 -6 3 7 2 16 -1 19 -3 4 -6 -2 -5 -13z"/>
<path d="M1866 685 c-9 -26 -7 -32 5 -12 6 10 9 21 6 23 -2 3 -7 -2 -11 -11z"/>
<path d="M1846 633 c-6 -14 -5 -15 5 -6 7 7 10 15 7 18 -3 3 -9 -2 -12 -12z"/>
<path d="M1796 543 c-6 -14 -5 -15 5 -6 7 7 10 15 7 18 -3 3 -9 -2 -12 -12z"/>
<path d="M1739 463 c-13 -16 -12 -17 4 -4 16 13 21 21 13 21 -2 0 -10 -8 -17
-17z"/>
<path d="M1709 423 c-13 -16 -12 -17 4 -4 16 13 21 21 13 21 -2 0 -10 -8 -17
-17z"/>
<path d="M1639 353 c-27 -29 -28 -32 -7 -17 22 16 54 54 45 54 -2 0 -19 -16
-38 -37z"/>
<path d="M360 366 c0 -2 8 -10 18 -17 15 -13 16 -12 3 4 -13 16 -21 21 -21 13z"/>
<path d="M1569 293 c-13 -16 -12 -17 4 -4 16 13 21 21 13 21 -2 0 -10 -8 -17
-17z"/>
<path d="M470 276 c0 -3 9 -10 20 -16 11 -6 20 -8 20 -6 0 3 -9 10 -20 16 -11
6 -20 8 -20 6z"/>
<path d="M1458 224 c-38 -20 -36 -28 2 -9 17 9 30 18 30 20 0 7 -1 6 -32 -11z"/>
<path d="M1380 185 c-14 -8 -20 -14 -15 -14 6 0 21 6 35 14 14 8 21 14 15 14
-5 0 -21 -6 -35 -14z"/>
<path d="M1300 155 c-19 -7 -28 -14 -20 -14 8 0 29 6 45 14 39 17 21 18 -25 0z"/>
<path d="M1238 133 c7 -3 16 -2 19 1 4 3 -2 6 -13 5 -11 0 -14 -3 -6 -6z"/>
<path d="M808 123 c6 -2 18 -2 25 0 6 3 1 5 -13 5 -14 0 -19 -2 -12 -5z"/>
<path d="M1198 123 c7 -3 16 -2 19 1 4 3 -2 6 -13 5 -11 0 -14 -3 -6 -6z"/>
<path d="M863 113 c9 -2 23 -2 30 0 6 3 -1 5 -18 5 -16 0 -22 -2 -12 -5z"/>
<path d="M1133 113 c9 -2 23 -2 30 0 6 3 -1 5 -18 5 -16 0 -22 -2 -12 -5z"/>
<path d="M958 103 c28 -2 76 -2 105 0 28 2 5 3 -53 3 -58 0 -81 -1 -52 -3z"/>
</g>
</svg>
